<svg width="29" height="21" viewBox="0 0 29 21" fill="none" xmlns="http://www.w3.org/2000/svg">
<path d="M6.18157 12.6602C2.84448 13.5409 0.743412 15.6741 0.0620649 18.6704C-0.136193 19.5276 0.171031 19.7778 0.552579 19.8963C3.17548 20.7105 8.03009 20.9997 9.93526 20.9997C11.8404 20.9997 16.695 20.7105 19.3179 19.8963C19.6995 19.7778 20.0067 19.5276 19.8084 18.6704C19.1271 15.6743 17.0257 13.541 13.6889 12.6602L10.2395 15.5726C10.0638 15.7209 9.80794 15.7209 9.63227 15.5726L6.18157 12.6602Z" fill="#80C342"/>
<path fill-rule="evenodd" clip-rule="evenodd" d="M9.93495 0C7.03273 0 4.69629 2.38016 4.69629 5.33663V5.69743C4.69629 8.65387 7.03273 11.0341 9.93495 11.0341C12.8372 11.0341 15.1736 8.65387 15.1736 5.69743V5.33663C15.1736 2.38016 12.8372 0 9.93495 0Z" fill="#80C342"/>
<path fill-rule="evenodd" clip-rule="evenodd" d="M23.0522 3.80957C22.3904 3.80951 21.7352 3.94083 21.1238 4.19605C20.5124 4.45126 19.9569 4.82536 19.4889 5.297C19.021 5.76863 18.6497 6.32855 18.3965 6.9448C18.1432 7.56105 18.0128 8.22154 18.0128 8.88858C18.0132 9.0127 18.0181 9.13676 18.0275 9.26052L16.541 10.5243V11.3034H18.6243C19.0559 12.1083 19.6951 12.7808 20.4745 13.2497C21.2539 13.7186 22.1445 13.9667 23.0522 13.9676C24.3885 13.9675 25.6701 13.4324 26.615 12.4799C27.5599 11.5274 28.0908 10.2356 28.0909 8.88858C28.0908 7.54156 27.5599 6.24973 26.615 5.29725C25.6701 4.34476 24.3885 3.80963 23.0522 3.80957ZM23.0522 5.94191C23.5216 5.94191 23.902 6.32538 23.902 6.79851C23.902 7.27164 23.5216 7.6551 23.0522 7.6551C22.5828 7.6551 22.2024 7.27164 22.2024 6.79851C22.2024 6.32538 22.5828 5.94191 23.0522 5.94191ZM21.8229 8.21443H23.2849C23.5447 8.21443 23.7538 8.42527 23.7538 8.68711V10.6659H24.2808V11.8352H21.8229V10.6659H22.3498V9.11329L21.8229 8.8766V8.21443Z" fill="#80C342"/>
</svg>
