<svg width="27" height="27" viewBox="0 0 27 27" fill="none" xmlns="http://www.w3.org/2000/svg">
    <rect width="27" height="27" rx="5" fill="#80C342" fill-opacity="0.3" />
    <path
        d="M21.9242 17.9551C21.8868 17.8227 21.815 17.7025 21.7159 17.6069C21.617 17.5113 21.4944 17.4436 21.3608 17.4108C20.037 17.0582 18.7777 16.4978 17.6295 15.7506C17.3995 15.6058 17.1107 15.5913 16.8675 15.7125C16.0844 16.1025 15.4701 16.7641 15.1393 17.5741C14.0536 16.8435 13.0426 16.0075 12.121 15.0784C11.1928 14.1567 10.3578 13.1457 9.62805 12.0602C10.0718 11.8807 10.4746 11.6132 10.8119 11.2736C11.0876 10.9991 11.3174 10.6821 11.4923 10.3346C11.6101 10.0913 11.5946 9.80452 11.4515 9.57525C10.7032 8.42574 10.1428 7.16431 9.79134 5.83841C9.75889 5.70488 9.69122 5.58253 9.5956 5.48398C9.49986 5.38532 9.37945 5.31412 9.24701 5.27779C8.08145 4.94999 6.82917 5.23126 5.91577 6.02622C4.95786 7.15835 4.89251 9.00904 5.70898 11.238C6.47103 13.2819 7.93802 15.4539 9.83773 17.3562C11.7374 19.2586 13.9173 20.7229 15.9615 21.493C16.8576 21.8475 17.8095 22.04 18.7729 22.0619C19.638 22.0987 20.4876 21.8245 21.1679 21.2889V21.2726C21.5418 20.842 21.8059 20.3276 21.9381 19.7729C22.0888 19.1758 22.0842 18.5498 21.9245 17.9549L21.9242 17.9551Z"
        fill="#80C342" />
</svg>
