<svg width="20" height="20" viewBox="0 0 20 20" fill="none" xmlns="http://www.w3.org/2000/svg">
<path d="M9.66578 0.296875C4.49403 0.296875 0.300781 4.48973 0.300781 9.66187C0.300781 14.834 4.49363 19.0269 9.66578 19.0269C14.8379 19.0269 19.0308 14.834 19.0308 9.66187C19.0308 4.48973 14.8379 0.296875 9.66578 0.296875ZM9.66578 17.8557C5.1473 17.8557 1.47151 14.1799 1.47151 9.66147C1.47151 5.14303 5.14734 1.4672 9.66578 1.4672C14.1842 1.4672 17.8601 5.14303 17.8601 9.66147C17.8601 14.1799 14.1842 17.8557 9.66578 17.8557Z" fill="#80C342"/>
<path d="M10.6451 5.75928H9.47435V9.0768H6.15698V10.2464H9.47435V13.564H10.6451V10.2464H13.9617V9.0768H10.6451V5.75928Z" fill="#80C342"/>
</svg>
