<svg width="37" height="37" viewBox="0 0 37 37" fill="none" xmlns="http://www.w3.org/2000/svg">
<rect width="37" height="37" rx="9" fill="#9481FC"/>
<path d="M27.1455 20.1211H24.4907V22.7758H27.1455V20.1211ZM26.4307 22.0611H25.2054V20.8359H26.4307V22.0611Z" fill="white"/>
<path d="M23.6228 16.5986H20.968V19.2536H23.6228V16.5986ZM22.908 18.5388H21.6827V17.3135H22.908V18.5388Z" fill="white"/>
<path d="M13.0544 20.1211H10.425V22.7758H13.0798L13.08 20.1211H13.0544ZM12.3396 22.0611H11.1143V20.8359H12.3396V22.0611Z" fill="white"/>
<path d="M13.0544 23.6436H10.425V26.2983H13.0798L13.08 23.6436H13.0544ZM12.3396 25.5836H11.1143V24.3583H12.3396V25.5836Z" fill="white"/>
<path d="M27.1455 16.5986H24.4907V19.2536H27.1455V16.5986ZM26.4307 18.5388H25.2054V17.3135L26.4307 17.3134V18.5388Z" fill="white"/>
<path d="M23.6226 23.6436H20.9679V26.2983H23.6226V23.6436ZM22.9079 25.5836H21.6826V24.3583H22.9079V25.5836Z" fill="white"/>
<path d="M20.0999 20.1211H17.4449V22.7758H20.0997L20.0999 20.1211ZM19.3851 22.0611H18.1598V20.8359H19.3851V22.0611Z" fill="white"/>
<path d="M16.5771 23.6436H13.9224V26.2983H16.5771V23.6436ZM15.8623 25.5836H14.6371V24.3583H15.8623V25.5836Z" fill="white"/>
<path d="M20.1 16.5986H17.4451V19.2536H20.0998L20.1 16.5986ZM19.3852 18.5388H18.16V17.3135H19.3852V18.5388Z" fill="white"/>
<path d="M16.5771 16.5986H13.9224V19.2536H16.5771V16.5986ZM15.8623 18.5388H14.6371V17.3135H15.8623V18.5388Z" fill="white"/>
<path d="M23.6226 20.1211H20.9679V22.7758H23.6226V20.1211ZM22.9079 22.0611H21.6826V20.8359H22.9079V22.0611Z" fill="white"/>
<path d="M16.5771 20.1211H13.9224V22.7758H16.5771V20.1211ZM15.8623 22.0611H14.6371V20.8359H15.8623V22.0611Z" fill="white"/>
<path d="M20.0999 23.6436H17.4449V26.2983H20.0997L20.0999 23.6436ZM19.3851 25.5836H18.1598L18.1597 24.3583H19.3849L19.3851 25.5836Z" fill="white"/>
<path d="M28.3197 8.12324H24.6437C24.4906 7.48506 23.929 7 23.2397 7C22.5504 7 21.9888 7.48506 21.8102 8.12324H15.7347C15.5816 7.48506 14.9945 7 14.3052 7C13.6159 7 13.0543 7.48506 12.8757 8.12324H9.22526C8.5616 8.12324 8 8.65941 8 9.34851V28.7747C8 29.4384 8.53616 30 9.22526 30H28.2941C28.9578 30 29.5194 29.4638 29.5194 28.7747L29.5196 9.32298C29.5196 8.65918 28.9834 8.1232 28.3198 8.1232L28.3197 8.12324ZM22.4995 8.45515C22.4995 8.04668 22.8314 7.71495 23.2397 7.71495C23.6481 7.71495 23.9799 8.04686 23.9799 8.45515V9.45072C23.9799 9.85919 23.648 10.1909 23.2397 10.1909C22.8312 10.1909 22.4995 9.85901 22.4995 9.45072V8.45515ZM13.5649 8.45515C13.5649 8.04668 13.8968 7.71495 14.3051 7.71495C14.7136 7.71495 15.0453 8.04686 15.0453 8.45515V9.45072C15.0453 9.85919 14.7134 10.1909 14.3051 10.1909C13.8967 10.1909 13.5649 9.85901 13.5649 9.45072V8.45515ZM8.74029 9.32303C8.74029 9.04222 8.96999 8.83797 9.22535 8.83797H12.8247V9.45067C12.8247 10.2676 13.4884 10.9312 14.3053 10.9312H14.5096C15.2498 10.8292 15.8114 10.1654 15.8114 9.39952V8.83792H21.7593V9.45062C21.7593 10.2676 22.4229 10.9312 23.2398 10.9312H23.4441C24.1843 10.8292 24.7459 10.1653 24.7459 9.39948V8.83788H28.3453C28.6261 8.83788 28.8304 9.06758 28.8304 9.32294V13.6371H8.74043L8.74029 9.32303ZM28.8047 28.7493C28.8047 29.0301 28.575 29.2343 28.3196 29.2343H9.22526C8.94445 29.2343 8.7402 29.0046 8.7402 28.7493L8.74038 14.403H28.8048L28.8047 28.7493Z" fill="white"/>
</svg>
