<svg width="31" height="31" viewBox="0 0 31 31" fill="none" xmlns="http://www.w3.org/2000/svg">
<circle cx="15.25" cy="15.25" r="15.25" fill="#FF5E5B"/>
<path d="M8.25 16.2497L20.11 16.2497L16.48 20.6097C16.3103 20.8139 16.2286 21.0772 16.253 21.3416C16.2774 21.6061 16.4058 21.85 16.61 22.0197C16.8142 22.1895 17.0775 22.2711 17.3419 22.2467C17.6064 22.2224 17.8503 22.0939 18.02 21.8897L23.02 15.8897C23.0536 15.842 23.0837 15.7919 23.11 15.7397C23.11 15.6897 23.11 15.6597 23.18 15.6097C23.2253 15.4951 23.2491 15.373 23.25 15.2497C23.2491 15.1264 23.2253 15.0044 23.18 14.8897C23.18 14.8397 23.18 14.8097 23.11 14.7597C23.0837 14.7076 23.0536 14.6574 23.02 14.6097L18.02 8.60972C17.926 8.49684 17.8082 8.40606 17.6752 8.34384C17.5421 8.28162 17.3969 8.24949 17.25 8.24972C17.0163 8.24927 16.7899 8.33064 16.61 8.47972C16.5087 8.56367 16.425 8.66677 16.3637 8.78312C16.3023 8.89947 16.2645 9.02678 16.2525 9.15775C16.2404 9.28873 16.2543 9.4208 16.2933 9.5464C16.3324 9.67201 16.3958 9.78868 16.48 9.88972L20.11 14.2497L8.25 14.2497C7.98478 14.2497 7.73043 14.3551 7.54289 14.5426C7.35536 14.7302 7.25 14.9845 7.25 15.2497C7.25 15.5149 7.35536 15.7693 7.54289 15.9568C7.73043 16.1444 7.98478 16.2497 8.25 16.2497Z" fill="white"/>
</svg>
