<svg width="26" height="25" viewBox="0 0 26 25" fill="none" xmlns="http://www.w3.org/2000/svg">
<circle cx="13.25" cy="12.5" r="12.5" fill="#80C342"/>
<path d="M7.51254 13.3192L17.2338 13.3192L14.2584 16.893C14.1193 17.0604 14.0524 17.2762 14.0724 17.4929C14.0923 17.7097 14.1976 17.9096 14.365 18.0487C14.5324 18.1879 14.7482 18.2548 14.9649 18.2348C15.1817 18.2148 15.3816 18.1096 15.5207 17.9422L19.6191 13.0241C19.6467 12.985 19.6713 12.9439 19.6929 12.9012C19.6929 12.8602 19.6929 12.8356 19.7502 12.7946C19.7874 12.7006 19.8068 12.6006 19.8076 12.4996C19.8068 12.3985 19.7874 12.2985 19.7502 12.2045C19.7502 12.1635 19.7502 12.1389 19.6929 12.0979C19.6713 12.0552 19.6467 12.0141 19.6191 11.975L15.5207 7.05693C15.4437 6.9644 15.3472 6.88999 15.2381 6.83899C15.129 6.78799 15.01 6.76165 14.8896 6.76185C14.6981 6.76147 14.5125 6.82817 14.365 6.95037C14.282 7.01918 14.2134 7.10369 14.1631 7.19906C14.1128 7.29442 14.0818 7.39877 14.0719 7.50613C14.062 7.61349 14.0734 7.72174 14.1054 7.8247C14.1374 7.92765 14.1894 8.02328 14.2584 8.10611L17.2338 11.6799L7.51254 11.6799C7.29515 11.6799 7.08666 11.7662 6.93294 11.92C6.77922 12.0737 6.69286 12.2822 6.69286 12.4996C6.69286 12.7169 6.77922 12.9254 6.93294 13.0791C7.08666 13.2329 7.29515 13.3192 7.51254 13.3192Z" fill="white"/>
</svg>
