<svg width="29" height="30" viewBox="0 0 29 30" fill="none" xmlns="http://www.w3.org/2000/svg">
<path d="M8.70995 3.62903C8.70995 2.9609 8.1684 2.41935 7.50027 2.41935H17.6616C18.3297 2.41935 18.8712 1.87781 18.8712 1.20968C18.8712 0.541548 18.3297 0 17.6616 0H0V9.67741H7.49972C8.16785 9.67741 8.7094 9.13587 8.7094 8.46774C8.7094 7.79961 8.16785 7.25806 7.49972 7.25806C8.16785 7.25806 8.7094 6.71651 8.7094 6.04838C8.7094 5.38026 8.16785 4.83871 7.49972 4.83871C8.16785 4.83871 8.7094 4.29716 8.7094 3.62903H8.70995Z" fill="white"/>
<path d="M16.4519 4.35492C16.4519 5.42375 16.885 5.80653 17.4196 5.80653C17.9543 5.80653 18.3874 5.42375 18.3874 4.35492C18.3874 3.28608 17.4196 2.41943 17.4196 2.41943C17.4196 2.41943 16.4519 3.28609 16.4519 4.35492Z" fill="white"/>
<path d="M26.1293 10.6453H22.7422C22.7422 11.4472 22.0924 12.0969 21.2906 12.0969V4.83887H19.3196C19.2175 5.69579 18.8518 6.22611 18.3874 6.50781V12.0969C17.5855 12.0969 16.9357 11.4472 16.9357 10.6453H13.5486C12.4798 10.6453 11.6132 11.512 11.6132 12.5808V28.0647C11.6132 29.1335 12.4798 30.0001 13.5486 30.0001H26.1293C27.1981 30.0001 28.0648 29.1335 28.0648 28.0647V12.5808C28.0648 11.512 27.1981 10.6453 26.1293 10.6453ZM18.8712 26.1292C18.8712 26.6638 18.4381 27.0969 17.9035 27.0969H15.0003C14.4656 27.0969 14.0325 26.6638 14.0325 26.1292V25.1614C14.0325 24.6268 14.4656 24.1937 15.0003 24.1937H17.9035C18.4381 24.1937 18.8712 24.6268 18.8712 25.1614V26.1292ZM25.6454 26.1292C25.6454 26.6638 25.2123 27.0969 24.6777 27.0969H21.7744C21.2398 27.0969 20.8067 26.6638 20.8067 26.1292V25.1614C20.8067 24.6268 21.2398 24.1937 21.7744 24.1937H24.6777C25.2123 24.1937 25.6454 24.6268 25.6454 25.1614V26.1292ZM25.6454 21.2905H14.0325V14.5163H25.6454V21.2905Z" fill="white"/>
<path d="M18.5289 17.0769L19.4965 16.1094L20.1808 16.7937L19.2133 17.7612L18.5289 17.0769Z" fill="white"/>
<path d="M16.1096 19.4963L17.5615 18.0444L18.2458 18.7288L16.794 20.1806L16.1096 19.4963Z" fill="white"/>
<path d="M21.4321 17.561L23.3676 15.6255L24.0519 16.3098L22.1165 18.2453L21.4321 17.561Z" fill="white"/>
<path d="M19.4967 19.4963L20.4642 18.5288L21.1486 19.2131L20.181 20.1807L19.4967 19.4963Z" fill="white"/>
</svg>
