<svg width="294" height="283" viewBox="0 0 294 283" fill="none" xmlns="http://www.w3.org/2000/svg">
<path d="M20 0V258H294" stroke="#2D2D2D"/>
<path d="M39.7627 279L36.4062 270.154H36.3516C36.3698 270.341 36.3857 270.569 36.3994 270.838C36.4131 271.107 36.4245 271.401 36.4336 271.72C36.4427 272.034 36.4473 272.355 36.4473 272.684V279H35.3672V269.006H37.0898L40.2549 277.318H40.3027L43.5156 269.006H45.2246V279H44.0762V272.602C44.0762 272.305 44.0807 272.009 44.0898 271.713C44.099 271.412 44.1104 271.13 44.124 270.865C44.1377 270.596 44.1514 270.364 44.165 270.168H44.1104L40.7129 279H39.7627ZM54.248 275.24C54.248 275.855 54.1683 276.405 54.0088 276.888C53.8493 277.371 53.6191 277.779 53.3184 278.111C53.0176 278.444 52.653 278.699 52.2246 278.877C51.8008 279.05 51.32 279.137 50.7822 279.137C50.2809 279.137 49.8206 279.05 49.4014 278.877C48.9867 278.699 48.6266 278.444 48.3213 278.111C48.0205 277.779 47.7858 277.371 47.6172 276.888C47.4531 276.405 47.3711 275.855 47.3711 275.24C47.3711 274.42 47.5101 273.723 47.7881 273.148C48.0661 272.57 48.4626 272.13 48.9775 271.829C49.4971 271.524 50.1146 271.371 50.8301 271.371C51.5137 271.371 52.1107 271.524 52.6211 271.829C53.1361 272.134 53.5348 272.576 53.8174 273.155C54.1045 273.729 54.248 274.424 54.248 275.24ZM48.5469 275.24C48.5469 275.842 48.6266 276.364 48.7861 276.806C48.9456 277.248 49.1917 277.59 49.5244 277.831C49.8571 278.073 50.2855 278.193 50.8096 278.193C51.3291 278.193 51.7552 278.073 52.0879 277.831C52.4251 277.59 52.6735 277.248 52.833 276.806C52.9925 276.364 53.0723 275.842 53.0723 275.24C53.0723 274.643 52.9925 274.128 52.833 273.695C52.6735 273.258 52.4274 272.921 52.0947 272.684C51.762 272.447 51.3314 272.328 50.8027 272.328C50.0234 272.328 49.4515 272.586 49.0869 273.101C48.7269 273.616 48.5469 274.329 48.5469 275.24ZM81.2705 279H80.1016V270.031H76.957V269.006H84.4014V270.031H81.2705V279ZM91.9277 271.508V279H90.998L90.834 277.947H90.7725C90.6175 278.207 90.417 278.426 90.1709 278.604C89.9248 278.781 89.6468 278.913 89.3369 279C89.0316 279.091 88.7057 279.137 88.3594 279.137C87.7669 279.137 87.2702 279.041 86.8691 278.85C86.4681 278.658 86.165 278.362 85.96 277.961C85.7594 277.56 85.6592 277.045 85.6592 276.416V271.508H86.8076V276.334C86.8076 276.958 86.9489 277.425 87.2314 277.735C87.514 278.041 87.9447 278.193 88.5234 278.193C89.0794 278.193 89.5215 278.089 89.8496 277.879C90.1823 277.669 90.4215 277.362 90.5674 276.956C90.7132 276.546 90.7861 276.045 90.7861 275.452V271.508H91.9277ZM127.673 269.006L125 279H123.831L121.849 272.273C121.789 272.082 121.732 271.891 121.678 271.699C121.628 271.503 121.58 271.319 121.534 271.146C121.489 270.968 121.45 270.813 121.418 270.681C121.391 270.544 121.37 270.441 121.356 270.373C121.347 270.441 121.329 270.542 121.302 270.674C121.279 270.806 121.247 270.959 121.206 271.132C121.17 271.305 121.124 271.49 121.069 271.686C121.019 271.882 120.965 272.08 120.905 272.28L118.978 279H117.809L115.156 269.006H116.366L117.973 275.274C118.027 275.484 118.077 275.691 118.123 275.896C118.173 276.097 118.216 276.293 118.253 276.484C118.294 276.676 118.33 276.863 118.362 277.045C118.394 277.227 118.424 277.405 118.451 277.578C118.474 277.4 118.504 277.216 118.54 277.024C118.576 276.828 118.615 276.63 118.656 276.43C118.702 276.229 118.75 276.026 118.8 275.821C118.854 275.616 118.911 275.411 118.971 275.206L120.769 269.006H121.965L123.838 275.254C123.902 275.468 123.961 275.68 124.016 275.89C124.07 276.099 124.118 276.304 124.159 276.505C124.205 276.701 124.243 276.89 124.275 277.072C124.312 277.25 124.344 277.419 124.371 277.578C124.403 277.355 124.442 277.12 124.487 276.874C124.533 276.628 124.585 276.37 124.645 276.102C124.708 275.833 124.777 275.555 124.85 275.268L126.456 269.006H127.673ZM131.966 271.371C132.604 271.371 133.151 271.512 133.606 271.795C134.062 272.077 134.411 272.474 134.652 272.984C134.894 273.49 135.015 274.083 135.015 274.762V275.466H129.84C129.854 276.345 130.072 277.015 130.496 277.476C130.92 277.936 131.517 278.166 132.287 278.166C132.761 278.166 133.18 278.123 133.545 278.036C133.91 277.95 134.288 277.822 134.68 277.653V278.651C134.301 278.82 133.925 278.943 133.552 279.021C133.183 279.098 132.745 279.137 132.239 279.137C131.519 279.137 130.89 278.991 130.353 278.699C129.819 278.403 129.405 277.97 129.108 277.4C128.812 276.831 128.664 276.133 128.664 275.309C128.664 274.502 128.799 273.805 129.067 273.217C129.341 272.624 129.724 272.169 130.216 271.85C130.713 271.531 131.296 271.371 131.966 271.371ZM131.952 272.301C131.346 272.301 130.863 272.499 130.503 272.896C130.143 273.292 129.929 273.846 129.86 274.557H133.825C133.821 274.11 133.75 273.718 133.613 273.381C133.481 273.039 133.278 272.775 133.005 272.588C132.731 272.396 132.381 272.301 131.952 272.301ZM162.003 279H160.834V270.031H157.689V269.006H165.134V270.031H162.003V279ZM167.608 268.363V271.542C167.608 271.724 167.604 271.909 167.595 272.096C167.586 272.278 167.57 272.447 167.547 272.602H167.622C167.777 272.337 167.973 272.116 168.21 271.938C168.451 271.756 168.725 271.619 169.03 271.528C169.336 271.433 169.659 271.385 170.001 271.385C170.603 271.385 171.104 271.48 171.505 271.672C171.91 271.863 172.214 272.16 172.414 272.561C172.619 272.962 172.722 273.481 172.722 274.119V279H171.601V274.194C171.601 273.57 171.457 273.103 171.17 272.793C170.887 272.483 170.452 272.328 169.864 272.328C169.308 272.328 168.864 272.435 168.531 272.649C168.203 272.859 167.966 273.169 167.82 273.579C167.679 273.989 167.608 274.491 167.608 275.083V279H166.474V268.363H167.608ZM198.213 279H197.051V269.006H202.615V270.031H198.213V273.695H202.349V274.714H198.213V279ZM207.517 271.371C207.667 271.371 207.824 271.38 207.988 271.398C208.152 271.412 208.298 271.433 208.426 271.46L208.282 272.513C208.159 272.481 208.022 272.456 207.872 272.438C207.722 272.419 207.58 272.41 207.448 272.41C207.147 272.41 206.863 272.472 206.594 272.595C206.329 272.713 206.097 272.886 205.896 273.114C205.696 273.338 205.539 273.609 205.425 273.928C205.311 274.242 205.254 274.593 205.254 274.98V279H204.112V271.508H205.056L205.179 272.889H205.227C205.382 272.611 205.568 272.358 205.787 272.13C206.006 271.897 206.259 271.713 206.546 271.576C206.838 271.439 207.161 271.371 207.517 271.371ZM237.472 276.341C237.472 276.933 237.324 277.439 237.027 277.858C236.736 278.273 236.326 278.59 235.797 278.809C235.268 279.027 234.646 279.137 233.931 279.137C233.552 279.137 233.195 279.118 232.857 279.082C232.52 279.046 232.21 278.993 231.928 278.925C231.645 278.856 231.397 278.772 231.183 278.672V277.558C231.524 277.699 231.941 277.831 232.434 277.954C232.926 278.073 233.441 278.132 233.979 278.132C234.48 278.132 234.904 278.066 235.25 277.934C235.596 277.797 235.858 277.603 236.036 277.353C236.218 277.097 236.31 276.792 236.31 276.437C236.31 276.095 236.234 275.81 236.084 275.582C235.934 275.35 235.683 275.14 235.332 274.953C234.986 274.762 234.512 274.559 233.91 274.345C233.486 274.194 233.113 274.03 232.789 273.853C232.465 273.67 232.194 273.465 231.976 273.237C231.757 273.009 231.59 272.745 231.477 272.444C231.367 272.144 231.312 271.799 231.312 271.412C231.312 270.879 231.447 270.423 231.716 270.045C231.989 269.662 232.365 269.37 232.844 269.17C233.327 268.965 233.881 268.862 234.505 268.862C235.038 268.862 235.53 268.912 235.981 269.013C236.437 269.113 236.854 269.247 237.232 269.416L236.87 270.414C236.51 270.264 236.127 270.138 235.722 270.038C235.321 269.938 234.906 269.888 234.478 269.888C234.049 269.888 233.687 269.951 233.391 270.079C233.099 270.202 232.876 270.378 232.721 270.605C232.566 270.833 232.488 271.104 232.488 271.419C232.488 271.77 232.561 272.062 232.707 272.294C232.857 272.526 233.094 272.734 233.418 272.916C233.746 273.094 234.179 273.281 234.717 273.477C235.305 273.691 235.804 273.919 236.214 274.16C236.624 274.397 236.936 274.689 237.15 275.035C237.365 275.377 237.472 275.812 237.472 276.341ZM242.147 271.385C243.041 271.385 243.704 271.585 244.137 271.986C244.57 272.387 244.786 273.028 244.786 273.907V279H243.959L243.74 277.893H243.686C243.476 278.166 243.257 278.396 243.029 278.583C242.801 278.765 242.537 278.904 242.236 279C241.94 279.091 241.576 279.137 241.143 279.137C240.687 279.137 240.281 279.057 239.926 278.897C239.575 278.738 239.297 278.496 239.092 278.173C238.891 277.849 238.791 277.439 238.791 276.942C238.791 276.195 239.087 275.621 239.68 275.22C240.272 274.819 241.174 274.6 242.387 274.563L243.679 274.509V274.051C243.679 273.404 243.54 272.95 243.262 272.69C242.984 272.431 242.592 272.301 242.086 272.301C241.694 272.301 241.32 272.358 240.965 272.472C240.609 272.586 240.272 272.72 239.953 272.875L239.604 272.014C239.942 271.84 240.329 271.692 240.767 271.569C241.204 271.446 241.664 271.385 242.147 271.385ZM243.665 275.309L242.523 275.356C241.589 275.393 240.931 275.546 240.548 275.814C240.165 276.083 239.974 276.464 239.974 276.956C239.974 277.384 240.104 277.701 240.363 277.906C240.623 278.111 240.967 278.214 241.396 278.214C242.061 278.214 242.605 278.029 243.029 277.66C243.453 277.291 243.665 276.737 243.665 275.999V275.309ZM271.118 276.341C271.118 276.933 270.97 277.439 270.674 277.858C270.382 278.273 269.972 278.59 269.443 278.809C268.915 279.027 268.293 279.137 267.577 279.137C267.199 279.137 266.841 279.118 266.504 279.082C266.167 279.046 265.857 278.993 265.574 278.925C265.292 278.856 265.043 278.772 264.829 278.672V277.558C265.171 277.699 265.588 277.831 266.08 277.954C266.572 278.073 267.087 278.132 267.625 278.132C268.126 278.132 268.55 278.066 268.896 277.934C269.243 277.797 269.505 277.603 269.683 277.353C269.865 277.097 269.956 276.792 269.956 276.437C269.956 276.095 269.881 275.81 269.73 275.582C269.58 275.35 269.329 275.14 268.979 274.953C268.632 274.762 268.158 274.559 267.557 274.345C267.133 274.194 266.759 274.03 266.436 273.853C266.112 273.67 265.841 273.465 265.622 273.237C265.403 273.009 265.237 272.745 265.123 272.444C265.014 272.144 264.959 271.799 264.959 271.412C264.959 270.879 265.093 270.423 265.362 270.045C265.636 269.662 266.012 269.37 266.49 269.17C266.973 268.965 267.527 268.862 268.151 268.862C268.685 268.862 269.177 268.912 269.628 269.013C270.084 269.113 270.501 269.247 270.879 269.416L270.517 270.414C270.157 270.264 269.774 270.138 269.368 270.038C268.967 269.938 268.552 269.888 268.124 269.888C267.696 269.888 267.333 269.951 267.037 270.079C266.745 270.202 266.522 270.378 266.367 270.605C266.212 270.833 266.135 271.104 266.135 271.419C266.135 271.77 266.208 272.062 266.354 272.294C266.504 272.526 266.741 272.734 267.064 272.916C267.393 273.094 267.826 273.281 268.363 273.477C268.951 273.691 269.45 273.919 269.86 274.16C270.271 274.397 270.583 274.689 270.797 275.035C271.011 275.377 271.118 275.812 271.118 276.341ZM279.178 271.508V279H278.248L278.084 277.947H278.022C277.868 278.207 277.667 278.426 277.421 278.604C277.175 278.781 276.897 278.913 276.587 279C276.282 279.091 275.956 279.137 275.609 279.137C275.017 279.137 274.52 279.041 274.119 278.85C273.718 278.658 273.415 278.362 273.21 277.961C273.009 277.56 272.909 277.045 272.909 276.416V271.508H274.058V276.334C274.058 276.958 274.199 277.425 274.481 277.735C274.764 278.041 275.195 278.193 275.773 278.193C276.329 278.193 276.771 278.089 277.1 277.879C277.432 277.669 277.672 277.362 277.817 276.956C277.963 276.546 278.036 276.045 278.036 275.452V271.508H279.178Z" fill="#2D2D2D"/>
<path d="M5.328 67.488C4.88 67.312 4.536 67.056 4.296 66.72C4.056 66.384 3.936 65.976 3.936 65.496C3.936 65.064 4.044 64.676 4.26 64.332C4.476 63.98 4.796 63.704 5.22 63.504C5.652 63.296 6.172 63.192 6.78 63.192C7.388 63.192 7.904 63.296 8.328 63.504C8.76 63.704 9.084 63.98 9.3 64.332C9.524 64.676 9.636 65.064 9.636 65.496C9.636 65.96 9.512 66.368 9.264 66.72C9.016 67.064 8.676 67.32 8.244 67.488C8.74 67.64 9.132 67.908 9.42 68.292C9.716 68.668 9.864 69.124 9.864 69.66C9.864 70.18 9.736 70.636 9.48 71.028C9.224 71.412 8.86 71.712 8.388 71.928C7.924 72.136 7.388 72.24 6.78 72.24C6.172 72.24 5.636 72.136 5.172 71.928C4.716 71.712 4.36 71.412 4.104 71.028C3.848 70.636 3.72 70.18 3.72 69.66C3.72 69.124 3.864 68.664 4.152 68.28C4.44 67.896 4.832 67.632 5.328 67.488ZM8.58 65.628C8.58 65.14 8.42 64.764 8.1 64.5C7.78 64.236 7.34 64.104 6.78 64.104C6.228 64.104 5.792 64.236 5.472 64.5C5.152 64.764 4.992 65.144 4.992 65.64C4.992 66.088 5.156 66.448 5.484 66.72C5.82 66.992 6.252 67.128 6.78 67.128C7.316 67.128 7.748 66.992 8.076 66.72C8.412 66.44 8.58 66.076 8.58 65.628ZM6.78 67.968C6.188 67.968 5.704 68.108 5.328 68.388C4.952 68.66 4.764 69.072 4.764 69.624C4.764 70.136 4.944 70.548 5.304 70.86C5.672 71.172 6.164 71.328 6.78 71.328C7.396 71.328 7.884 71.172 8.244 70.86C8.604 70.548 8.784 70.136 8.784 69.624C8.784 69.088 8.6 68.68 8.232 68.4C7.864 68.112 7.38 67.968 6.78 67.968Z" fill="#2D2D2D"/>
<path d="M0.456 14.32V13.324H2.712V22H1.608V14.32H0.456ZM4.58775 17.572C4.58775 16.196 4.81175 15.124 5.25975 14.356C5.70775 13.58 6.49175 13.192 7.61175 13.192C8.72375 13.192 9.50375 13.58 9.95175 14.356C10.3997 15.124 10.6237 16.196 10.6237 17.572C10.6237 18.972 10.3997 20.06 9.95175 20.836C9.50375 21.612 8.72375 22 7.61175 22C6.49175 22 5.70775 21.612 5.25975 20.836C4.81175 20.06 4.58775 18.972 4.58775 17.572ZM9.54375 17.572C9.54375 16.876 9.49575 16.288 9.39975 15.808C9.31175 15.32 9.12375 14.928 8.83575 14.632C8.55575 14.336 8.14775 14.188 7.61175 14.188C7.06775 14.188 6.65175 14.336 6.36375 14.632C6.08375 14.928 5.89575 15.32 5.79975 15.808C5.71175 16.288 5.66775 16.876 5.66775 17.572C5.66775 18.292 5.71175 18.896 5.79975 19.384C5.89575 19.872 6.08375 20.264 6.36375 20.56C6.65175 20.856 7.06775 21.004 7.61175 21.004C8.14775 21.004 8.55575 20.856 8.83575 20.56C9.12375 20.264 9.31175 19.872 9.39975 19.384C9.49575 18.896 9.54375 18.292 9.54375 17.572Z" fill="#2D2D2D"/>
<path d="M3.48 170.068V169.24L7.692 163.408H9V169.12H10.2V170.068H9V172H7.92V170.068H3.48ZM7.968 164.548L4.74 169.12H7.968V164.548Z" fill="#2D2D2D"/>
<path d="M7.58 115.388C7.404 114.5 6.856 114.056 5.936 114.056C5.224 114.056 4.692 114.332 4.34 114.884C3.988 115.428 3.816 116.328 3.824 117.584C4.008 117.168 4.312 116.844 4.736 116.612C5.168 116.372 5.648 116.252 6.176 116.252C7 116.252 7.656 116.508 8.144 117.02C8.64 117.532 8.888 118.24 8.888 119.144C8.888 119.688 8.78 120.176 8.564 120.608C8.356 121.04 8.036 121.384 7.604 121.64C7.18 121.896 6.664 122.024 6.056 122.024C5.232 122.024 4.588 121.84 4.124 121.472C3.66 121.104 3.336 120.596 3.152 119.948C2.968 119.3 2.876 118.5 2.876 117.548C2.876 114.612 3.9 113.144 5.948 113.144C6.732 113.144 7.348 113.356 7.796 113.78C8.244 114.204 8.508 114.74 8.588 115.388H7.58ZM5.948 117.176C5.604 117.176 5.28 117.248 4.976 117.392C4.672 117.528 4.424 117.74 4.232 118.028C4.048 118.308 3.956 118.652 3.956 119.06C3.956 119.668 4.132 120.164 4.484 120.548C4.836 120.924 5.34 121.112 5.996 121.112C6.556 121.112 7 120.94 7.328 120.596C7.664 120.244 7.832 119.772 7.832 119.18C7.832 118.556 7.672 118.068 7.352 117.716C7.032 117.356 6.564 117.176 5.948 117.176Z" fill="#2D2D2D"/>
<path d="M3.612 221.124C4.628 220.308 5.424 219.64 6 219.12C6.576 218.592 7.06 218.044 7.452 217.476C7.852 216.9 8.052 216.336 8.052 215.784C8.052 215.264 7.924 214.856 7.668 214.56C7.42 214.256 7.016 214.104 6.456 214.104C5.912 214.104 5.488 214.276 5.184 214.62C4.888 214.956 4.728 215.408 4.704 215.976H3.648C3.68 215.08 3.952 214.388 4.464 213.9C4.976 213.412 5.636 213.168 6.444 213.168C7.268 213.168 7.92 213.396 8.4 213.852C8.888 214.308 9.132 214.936 9.132 215.736C9.132 216.4 8.932 217.048 8.532 217.68C8.14 218.304 7.692 218.856 7.188 219.336C6.684 219.808 6.04 220.36 5.256 220.992H9.384V221.904H3.612V221.124Z" fill="#2D2D2D"/>
<path d="M9.084 89.176L5.748 97H4.644L8.028 89.284H3.396V88.348H9.084V89.176Z" fill="#2D2D2D"/>
<path d="M5.148 44.672C5.228 45.128 5.412 45.48 5.7 45.728C5.996 45.976 6.392 46.1 6.888 46.1C7.552 46.1 8.04 45.84 8.352 45.32C8.672 44.8 8.824 43.924 8.808 42.692C8.64 43.052 8.36 43.336 7.968 43.544C7.576 43.744 7.14 43.844 6.66 43.844C6.124 43.844 5.644 43.736 5.22 43.52C4.804 43.296 4.476 42.972 4.236 42.548C3.996 42.124 3.876 41.612 3.876 41.012C3.876 40.156 4.124 39.468 4.62 38.948C5.116 38.42 5.82 38.156 6.732 38.156C7.852 38.156 8.636 38.52 9.084 39.248C9.54 39.976 9.768 41.06 9.768 42.5C9.768 43.508 9.676 44.34 9.492 44.996C9.316 45.652 9.012 46.152 8.58 46.496C8.156 46.84 7.572 47.012 6.828 47.012C6.012 47.012 5.376 46.792 4.92 46.352C4.464 45.912 4.204 45.352 4.14 44.672H5.148ZM6.84 42.92C7.376 42.92 7.816 42.756 8.16 42.428C8.504 42.092 8.676 41.64 8.676 41.072C8.676 40.472 8.508 39.988 8.172 39.62C7.836 39.252 7.364 39.068 6.756 39.068C6.196 39.068 5.748 39.244 5.412 39.596C5.084 39.948 4.92 40.412 4.92 40.988C4.92 41.572 5.084 42.04 5.412 42.392C5.74 42.744 6.216 42.92 6.84 42.92Z" fill="#2D2D2D"/>
<path d="M3.72 190.508C3.776 189.772 4.06 189.196 4.572 188.78C5.084 188.364 5.748 188.156 6.564 188.156C7.108 188.156 7.576 188.256 7.968 188.456C8.368 188.648 8.668 188.912 8.868 189.248C9.076 189.584 9.18 189.964 9.18 190.388C9.18 190.884 9.036 191.312 8.748 191.672C8.468 192.032 8.1 192.264 7.644 192.368V192.428C8.164 192.556 8.576 192.808 8.88 193.184C9.184 193.56 9.336 194.052 9.336 194.66C9.336 195.116 9.232 195.528 9.024 195.896C8.816 196.256 8.504 196.54 8.088 196.748C7.672 196.956 7.172 197.06 6.588 197.06C5.74 197.06 5.044 196.84 4.5 196.4C3.956 195.952 3.652 195.32 3.588 194.504H4.644C4.7 194.984 4.896 195.376 5.232 195.68C5.568 195.984 6.016 196.136 6.576 196.136C7.136 196.136 7.56 195.992 7.848 195.704C8.144 195.408 8.292 195.028 8.292 194.564C8.292 193.964 8.092 193.532 7.692 193.268C7.292 193.004 6.688 192.872 5.88 192.872H5.604V191.96H5.892C6.628 191.952 7.184 191.832 7.56 191.6C7.936 191.36 8.124 190.992 8.124 190.496C8.124 190.072 7.984 189.732 7.704 189.476C7.432 189.22 7.04 189.092 6.528 189.092C6.032 189.092 5.632 189.22 5.328 189.476C5.024 189.732 4.844 190.076 4.788 190.508H3.72Z" fill="#2D2D2D"/>
<path d="M9.276 139.272H5.064V142.008C5.248 141.752 5.52 141.544 5.88 141.384C6.24 141.216 6.628 141.132 7.044 141.132C7.708 141.132 8.248 141.272 8.664 141.552C9.08 141.824 9.376 142.18 9.552 142.62C9.736 143.052 9.828 143.512 9.828 144C9.828 144.576 9.72 145.092 9.504 145.548C9.288 146.004 8.956 146.364 8.508 146.628C8.068 146.892 7.52 147.024 6.864 147.024C6.024 147.024 5.344 146.808 4.824 146.376C4.304 145.944 3.988 145.368 3.876 144.648H4.944C5.048 145.104 5.268 145.46 5.604 145.716C5.94 145.972 6.364 146.1 6.876 146.1C7.508 146.1 7.984 145.912 8.304 145.536C8.624 145.152 8.784 144.648 8.784 144.024C8.784 143.4 8.624 142.92 8.304 142.584C7.984 142.24 7.512 142.068 6.888 142.068C6.464 142.068 6.092 142.172 5.772 142.38C5.46 142.58 5.232 142.856 5.088 143.208H4.056V138.312H9.276V139.272Z" fill="#2D2D2D"/>
<path d="M7.456 239.32V238.324H9.712V247H8.608V239.32H7.456Z" fill="#2D2D2D"/>
<path d="M20 258L39 192.5L81.5 166.5L118.5 118L154 90L192.5 139.5L234.5 67.5L270 115" stroke="#FF3334"/>
<circle cx="39.5" cy="193.5" r="3.5" fill="#FF3334"/>
<circle cx="81.5" cy="165.5" r="3.5" fill="#FF3334"/>
<circle cx="118.5" cy="117.5" r="3.5" fill="#FF3334"/>
<circle cx="153.5" cy="92.5" r="3.5" fill="#FF3334"/>
<circle cx="192.5" cy="139.5" r="3.5" fill="#FF3334"/>
<circle cx="234.5" cy="67.5" r="3.5" fill="#FF3334"/>
<circle cx="269.5" cy="114.5" r="3.5" fill="#FF3334"/>
</svg>
