<svg width="24" height="30" viewBox="0 0 24 30" fill="none" xmlns="http://www.w3.org/2000/svg">
<path d="M14.3413 7.62311C13.7981 7.64104 13.2856 7.87877 12.9216 8.28201C12.5172 8.64768 12.2792 9.16211 12.2627 9.70713C12.8056 9.68393 13.3167 9.44477 13.6824 9.04272C14.0834 8.67704 14.3209 8.1655 14.3413 7.62305V7.62311Z" fill="white"/>
<path d="M12.8573 26.7856H10.7144C10.4186 26.7856 10.1787 27.0255 10.1787 27.3214C10.1787 27.6172 10.4186 27.8571 10.7144 27.8571H12.8573C13.1531 27.8571 13.393 27.6172 13.393 27.3214C13.393 27.0255 13.1531 26.7856 12.8573 26.7856Z" fill="white"/>
<path d="M23.5714 2.67857C23.5714 1.96824 23.2892 1.28694 22.787 0.784408C22.2846 0.282178 21.6032 0 20.8929 0H2.67857C1.96825 0 1.28694 0.282208 0.784408 0.784408C0.282177 1.28688 0 1.96824 0 2.67857V27.3214C0 28.0318 0.282208 28.7131 0.784408 29.2156C1.28688 29.7178 1.96825 30 2.67857 30H20.8929C21.6032 30 22.2845 29.7178 22.787 29.2156C23.2893 28.7131 23.5714 28.0318 23.5714 27.3214V2.67857ZM10.1786 1.07143H13.3929V2.14286H10.1786V1.07143ZM8.03572 1.07143H9.10714V2.14286H8.03572V1.07143ZM12.8571 28.9286H10.7143C10.1401 28.9286 9.60961 28.6222 9.32241 28.125C9.03542 27.6278 9.03542 27.0151 9.32241 26.5179C9.60964 26.0206 10.1401 25.7143 10.7143 25.7143H12.8571C13.4314 25.7143 13.9618 26.0206 14.249 26.5179C14.536 27.0151 14.536 27.6278 14.249 28.125C13.9618 28.6222 13.4314 28.9286 12.8571 28.9286ZM18.4501 16.8912C18.2363 18.2188 17.5882 19.4378 16.6071 20.3573C15.7342 21.2121 14.5092 21.6053 13.3018 21.418C13.0131 21.3699 12.7318 21.2836 12.4662 21.1609C12.0331 20.9681 11.5385 20.9681 11.1053 21.1609C10.8389 21.2829 10.5581 21.3709 10.2697 21.4235C10.0676 21.4553 9.86341 21.4716 9.65892 21.4716C8.65251 21.4529 7.69019 21.0549 6.96431 20.3573C5.98331 19.4377 5.33519 18.2188 5.12133 16.8912C4.86615 15.5689 5.05628 14.1992 5.66254 12.9966C6.19491 11.8964 7.21207 11.1091 8.41073 10.87C9.15167 10.7447 9.91311 10.8513 10.5911 11.1752C10.8159 11.2797 11.0536 11.3536 11.2983 11.3949C11.2768 10.3986 11.0037 8.85553 9.53573 8.56091L9.75001 7.51104C10.4209 7.63349 11.0252 7.99294 11.4535 8.52338C11.6307 8.15197 11.8718 7.81477 12.166 7.52708C12.5101 7.13605 12.9545 6.84645 13.451 6.68977C13.9477 6.53288 14.4777 6.51494 14.984 6.63787C15.1456 6.69216 15.2724 6.81891 15.3267 6.98059C15.4496 7.48689 15.4317 8.01688 15.2748 8.51359C15.1181 9.01008 14.8285 9.45443 14.4375 9.79857C13.8893 10.3883 13.1312 10.7385 12.3266 10.7734C12.3482 10.9769 12.3642 11.1804 12.3695 11.3787L12.3697 11.3789C12.5802 11.3344 12.7851 11.2663 12.9803 11.1752C13.6583 10.8513 14.4198 10.7447 15.1607 10.87C16.3593 11.1092 17.3764 11.8965 17.9088 12.9966C18.5151 14.1993 18.7052 15.569 18.4501 16.8913L18.4501 16.8912Z" fill="white"/>
<path d="M14.9732 11.9246C14.4504 11.8358 13.9128 11.9126 13.4357 12.1444C12.3911 12.6373 11.1804 12.6373 10.1358 12.1444C9.78592 11.9777 9.40375 11.8899 9.01607 11.8873C8.87592 11.8863 8.73602 11.899 8.59826 11.9246C7.72532 12.1087 6.98947 12.6918 6.61086 13.4997C6.11699 14.4905 5.96439 15.6167 6.17679 16.7032C6.34922 17.7969 6.87848 18.8025 7.6823 19.564C8.31536 20.1916 9.20428 20.4886 10.0875 20.3676C10.2855 20.3313 10.478 20.27 10.6608 20.1854C11.3764 19.8639 12.1952 19.8639 12.9108 20.1854C13.0928 20.2707 13.2855 20.3303 13.484 20.3621C14.3668 20.4898 15.2581 20.194 15.8892 19.564C16.693 18.8025 17.2223 17.7969 17.3947 16.7032C17.6071 15.6167 17.4545 14.4905 16.9607 13.4997C16.5821 12.6918 15.8462 12.1087 14.9733 11.9246L14.9732 11.9246Z" fill="white"/>
</svg>
