<svg width="36" height="30" viewBox="0 0 36 30" fill="none" xmlns="http://www.w3.org/2000/svg">
<path d="M29.7702 14.0112C29.7702 14.6562 29.2476 15.1789 28.6025 15.1789C27.9577 15.1789 27.4351 14.6563 27.4351 14.0112C27.4351 13.3664 27.9577 12.8438 28.6025 12.8438C29.2475 12.8438 29.7702 13.3664 29.7702 14.0112Z" fill="white"/>
<path d="M7.58517 14.0112C7.58517 14.6562 7.06252 15.1789 6.41771 15.1789C5.77268 15.1789 5.25 14.6563 5.25 14.0112C5.25 13.3664 5.77265 12.8438 6.41771 12.8438C7.06255 12.8438 7.58517 13.3664 7.58517 14.0112Z" fill="white"/>
<path d="M34.9657 9.09897C34.4546 3.82533 30.4894 0.000870892 25.5292 0.000870892C22.228 -0.0150115 19.1546 1.68363 17.4126 4.48768C15.7562 1.6917 12.7415 -0.0165182 9.49168 0.000120449C4.53155 0.000120449 0.566224 3.82526 0.0551793 9.09822C-0.0755406 10.2637 0.0265918 11.4436 0.355232 12.5693C1.13931 15.5493 2.83896 18.208 5.21447 20.1706L16.2817 29.5814C16.5962 29.85 16.9954 29.9983 17.4089 30C17.8223 30.0017 18.223 29.8568 18.5394 29.591L29.8068 20.172C32.1823 18.2092 33.8822 15.5502 34.6663 12.5701C34.9949 11.4444 35.0971 10.2648 34.9664 9.09924L34.9657 9.09897ZM3.53429 9.61356L3.49299 9.7692C3.40992 10.0805 3.09032 10.2657 2.77903 10.1829C2.4675 10.1 2.28204 9.78069 2.36463 9.46941L2.37538 9.42861C2.37391 9.40027 2.37465 9.37168 2.37709 9.34333C2.70744 5.86072 5.25715 2.33507 9.49106 2.33507C9.81335 2.33507 10.0748 2.59628 10.0748 2.9188C10.0748 3.24133 9.81335 3.50253 9.49106 3.50253C5.98474 3.50253 3.85706 6.44414 3.54724 9.37599C3.55897 9.45515 3.55457 9.53603 3.53405 9.61324L3.53429 9.61356ZM22.1809 14.5955H21.4339L19.2317 21.2021V21.2019C19.1523 21.4404 18.9292 21.6012 18.678 21.6012H18.6653C18.4095 21.5955 18.1869 21.4238 18.1168 21.1777L15.0554 10.4639L13.3731 14.2488C13.2795 14.4596 13.0704 14.5955 12.8397 14.5955H8.67029C8.47921 15.3356 7.93775 15.9352 7.2211 16.2011C6.50445 16.4669 5.70297 16.365 5.07552 15.9286C4.44807 15.492 4.07395 14.776 4.07395 14.0115C4.07395 13.2472 4.44804 12.5311 5.07552 12.0947C5.70297 11.658 6.50445 11.5564 7.2211 11.822C7.93775 12.0878 8.47919 12.6877 8.67029 13.4278H12.4605L14.6418 8.52019C14.7415 8.29564 14.9709 8.15783 15.216 8.17494C15.4608 8.19204 15.669 8.36064 15.7364 8.59692L18.7211 19.0424L20.4593 13.8269V13.8267C20.5389 13.5884 20.762 13.4276 21.0132 13.4276H22.1809C22.5032 13.4276 22.7647 13.6891 22.7647 14.0114C22.7647 14.3339 22.5032 14.5954 22.1809 14.5954L22.1809 14.5955ZM28.603 16.3469H28.6028C28.0865 16.3452 27.5853 16.1724 27.1778 15.8555C26.7703 15.5386 26.4792 15.0954 26.3504 14.5954H24.5162C24.1936 14.5954 23.9324 14.334 23.9324 14.0115C23.9324 13.6892 24.1936 13.4277 24.5162 13.4277H26.3504C26.4978 12.8623 26.8521 12.3727 27.3429 12.056C27.8341 11.7393 28.4261 11.6186 29.002 11.7178C29.5779 11.8168 30.0954 12.1285 30.4524 12.5911C30.8094 13.0536 30.9797 13.6334 30.9294 14.2157C30.8793 14.7978 30.6122 15.34 30.1814 15.7345C29.7504 16.1292 29.1872 16.3478 28.6028 16.3469L28.603 16.3469Z" fill="white"/>
</svg>
