<svg width="23" height="20" viewBox="0 0 23 20" fill="none" xmlns="http://www.w3.org/2000/svg">
<path d="M20.4285 2.31347H17.7429V0.749894C17.7429 0.482071 17.5995 0.234517 17.3667 0.100434C17.134 -0.0334779 16.8472 -0.0334779 16.6144 0.100434C16.3817 0.234512 16.2383 0.48208 16.2383 0.749894V2.31347H6.14248V0.749894C6.14248 0.482071 5.99907 0.234517 5.76633 0.100434C5.53359 -0.0334779 5.24677 -0.0334779 5.01403 0.100434C4.78129 0.234512 4.63789 0.48208 4.63789 0.749894V2.31347H1.95227C1.43474 2.31447 0.938866 2.51986 0.572949 2.8846C0.207032 3.24933 0.000988732 3.74364 0 4.25954V18.0539C0.00100756 18.5698 0.207049 19.0641 0.572949 19.4289C0.938853 19.7936 1.43474 19.999 1.95227 20H20.4287C20.9462 19.999 21.4421 19.7936 21.808 19.4289C22.1739 19.0641 22.38 18.5698 22.3809 18.0539V4.25954C22.3799 3.74364 22.1739 3.24935 21.808 2.8846C21.4421 2.51984 20.9462 2.31445 20.4287 2.31347H20.4285ZM20.8762 7.93776H1.50476V4.25954C1.50476 4.14119 1.55195 4.0277 1.63591 3.94401C1.71987 3.86031 1.83373 3.81327 1.95245 3.81327H4.63823V5.37685H4.63807C4.63807 5.64467 4.78147 5.89223 5.01421 6.02631C5.24696 6.16022 5.53377 6.16022 5.76651 6.02631C5.99925 5.89223 6.14266 5.64466 6.14266 5.37685V3.81327H16.2385V5.37685C16.2385 5.64467 16.3819 5.89223 16.6146 6.02631C16.8474 6.16022 17.1342 6.16022 17.3669 6.02631C17.5997 5.89223 17.7431 5.64466 17.7431 5.37685V3.81327H20.4289H20.4287C20.676 3.81327 20.8764 4.01297 20.8764 4.25953L20.8762 7.93776Z" fill="#80C342"/>
</svg>
