<svg width="11" height="11" viewBox="0 0 11 11" fill="none" xmlns="http://www.w3.org/2000/svg">
<path d="M6.16621 5.73926L9.94699 9.52003C10.226 9.79905 10.226 10.251 9.94699 10.53C9.66797 10.809 9.21605 10.809 8.93703 10.53L5.15625 6.74922L1.37547 10.53C1.09645 10.809 0.644536 10.809 0.365515 10.53C0.0864949 10.251 0.0864949 9.79905 0.365515 9.52003L4.14629 5.73926L0.365515 1.95848C0.0864949 1.67946 0.0864949 1.22754 0.365515 0.948523C0.644536 0.669503 1.09645 0.669503 1.37547 0.948523L5.15625 4.7293L8.93703 0.948523C9.21605 0.669503 9.66797 0.669503 9.94699 0.948523C10.226 1.22754 10.226 1.67946 9.94699 1.95848L6.16621 5.73926Z" fill="#80C342"/>
</svg>
