<svg width="15" height="23" viewBox="0 0 15 23" fill="none" xmlns="http://www.w3.org/2000/svg">
<path d="M13.9483 5.06934H11.7825C11.7784 5.08291 11.7733 5.09534 11.7692 5.10891C11.7462 5.18543 11.7198 5.26049 11.693 5.33522C11.6747 5.38574 11.6561 5.43562 11.6363 5.485C11.6055 5.5612 11.5728 5.63626 11.5382 5.71033C11.5187 5.75138 11.4979 5.7916 11.4773 5.83232C11.4363 5.91294 11.3946 5.99273 11.3485 6.07073C11.3393 6.08643 11.3287 6.10148 11.3192 6.11717C10.7651 7.03109 9.8866 7.73767 8.83584 8.08955C8.82734 8.0925 8.819 8.09577 8.81017 8.09871C8.71745 8.12912 8.62376 8.15545 8.52891 8.18047C8.48312 8.19257 8.43701 8.20434 8.39041 8.21497C8.31273 8.23263 8.23507 8.24947 8.15641 8.26288C8.08201 8.27613 8.00696 8.28627 7.93157 8.29624C7.87189 8.30393 7.81286 8.31276 7.75252 8.31815C7.61107 8.33091 7.46897 8.33908 7.32507 8.33908C7.18117 8.33908 7.03908 8.33107 6.89763 8.31815C6.83712 8.31259 6.77825 8.30393 6.71857 8.29624C6.64319 8.28643 6.56797 8.27645 6.49373 8.26288C6.41459 8.24898 6.33692 8.23247 6.25974 8.21497C6.2133 8.20434 6.16751 8.19257 6.12123 8.18047C6.02639 8.15561 5.93221 8.12912 5.83998 8.09871C5.83115 8.09577 5.82281 8.0925 5.8143 8.08955C4.76338 7.73749 3.88508 7.03092 3.33092 6.11717C3.32144 6.10148 3.31114 6.08643 3.30165 6.07073C3.25587 5.99306 3.21417 5.91294 3.1728 5.83232C3.15236 5.79209 3.13143 5.7517 3.11197 5.71033C3.07714 5.63642 3.0446 5.5612 3.01386 5.485C2.99375 5.43562 2.9751 5.38542 2.95712 5.33522C2.92997 5.26049 2.90365 5.18543 2.88092 5.10891C2.87683 5.09566 2.87143 5.08291 2.86767 5.06934H0.701851C0.314634 5.06934 4.06477e-06 5.42532 4.06477e-06 5.86307V21.9236C-0.0013041 22.3613 0.313311 22.7178 0.700511 22.7178H13.9484C14.3356 22.7178 14.6502 22.3613 14.6502 21.9237V5.86323C14.6502 5.42516 14.3356 5.0695 13.9484 5.0695L13.9483 5.06934ZM3.5466 17.9994L2.39609 19.3748C2.34262 19.4386 2.26462 19.4791 2.17991 19.4876C2.16895 19.4888 2.15865 19.4891 2.14802 19.4891C2.07411 19.4891 2.00265 19.4642 1.94477 19.4185L1.43703 19.0141C1.30115 18.906 1.28201 18.7116 1.39419 18.5796C1.50555 18.4478 1.70766 18.429 1.84353 18.5382L2.10206 18.7444L3.05001 17.6111C3.16022 17.4781 3.36249 17.458 3.49905 17.5653C3.63624 17.6724 3.65751 17.8668 3.54664 17.9994L3.5466 17.9994ZM3.5466 13.9597L2.39609 15.335C2.34262 15.3988 2.26462 15.4393 2.17991 15.4478C2.16895 15.449 2.15865 15.4493 2.14802 15.4493C2.07411 15.4493 2.00265 15.4245 1.94477 15.3787L1.43703 14.9743C1.30115 14.8662 1.28201 14.6718 1.39419 14.5398C1.50555 14.4083 1.70766 14.3892 1.84353 14.4984L2.10206 14.7046L3.05001 13.5713C3.16022 13.4383 3.36249 13.4186 3.49905 13.5255C3.63624 13.6326 3.65751 13.827 3.54664 13.9596L3.5466 13.9597ZM3.5466 9.91922L2.39609 11.2954C2.34294 11.3592 2.26462 11.3997 2.17991 11.4082C2.16895 11.4094 2.15865 11.4097 2.14802 11.4097C2.07411 11.4097 2.00265 11.3849 1.94477 11.3391L1.43703 10.9347C1.30115 10.8266 1.28201 10.6322 1.39419 10.5002C1.50555 10.3687 1.70766 10.3496 1.84353 10.4588L2.10206 10.665L3.05001 9.53134C3.16022 9.39872 3.36249 9.37861 3.49905 9.48555C3.63624 9.59217 3.65751 9.78659 3.54664 9.91919L3.5466 9.91922ZM13.0089 18.8018H5.29808C5.12197 18.8018 4.97872 18.6637 4.97872 18.4934C4.97872 18.323 5.12197 18.185 5.29808 18.185H13.0089C13.185 18.185 13.3283 18.323 13.3283 18.4934C13.3284 18.6636 13.1855 18.8018 13.0091 18.8018H13.0089ZM13.0089 14.762H5.29808C5.12197 14.762 4.97872 14.624 4.97872 14.4536C4.97872 14.2832 5.12197 14.1452 5.29808 14.1452H13.0089C13.185 14.1452 13.3283 14.2832 13.3283 14.4536C13.3284 14.6238 13.1855 14.762 13.0091 14.762H13.0089ZM13.0089 10.7222H5.29808C5.12197 10.7222 4.97872 10.5842 4.97872 10.4138C4.97872 10.2434 5.12197 10.1054 5.29808 10.1054H13.0089C13.185 10.1054 13.3283 10.2434 13.3283 10.4138C13.3284 10.5837 13.1855 10.7222 13.0091 10.7222H13.0089Z" fill="#858EA9"/>
<path d="M3.75219 5.576C3.76249 5.59579 3.77165 5.61623 3.78228 5.63569C3.82512 5.71516 3.87205 5.79251 3.91997 5.86822C3.93207 5.88719 3.94335 5.90632 3.95545 5.92496C4.00745 6.00378 4.06239 6.0803 4.11995 6.15503C4.12878 6.16632 4.13761 6.17809 4.14677 6.18954C4.21022 6.26983 4.27611 6.34815 4.34561 6.42353L4.34594 6.42386C4.78368 6.89739 5.33931 7.26368 5.96019 7.48496C5.97638 7.49085 5.99241 7.49673 6.00892 7.50213C6.09281 7.53075 6.1785 7.55642 6.26467 7.57948C6.30195 7.58929 6.3394 7.59845 6.37717 7.60728C6.4501 7.62494 6.52303 7.64096 6.59694 7.65453C6.65843 7.66549 6.72106 7.67399 6.78368 7.682C6.83928 7.68969 6.89471 7.69819 6.95064 7.70326C7.0741 7.71422 7.19821 7.72158 7.32461 7.72158C7.45101 7.72158 7.57513 7.71422 7.69858 7.70326C7.755 7.69819 7.80994 7.68936 7.86554 7.682C7.92817 7.6735 7.9908 7.66549 8.05228 7.65453C8.12619 7.64096 8.19945 7.62494 8.27205 7.60728C8.30982 7.59844 8.34711 7.58929 8.38455 7.57948C8.47056 7.55609 8.55641 7.53075 8.6403 7.50213C8.65681 7.49657 8.67284 7.49085 8.68903 7.48496C9.30958 7.26371 9.86525 6.89744 10.3033 6.42386L10.3036 6.42353C10.3733 6.34848 10.4392 6.26999 10.5025 6.18954C10.5113 6.17825 10.5204 6.16681 10.5293 6.15503C10.5868 6.0803 10.6418 6.00378 10.6938 5.92496C10.7062 5.90632 10.7176 5.88719 10.7293 5.86822C10.7777 5.79234 10.8241 5.71516 10.8669 5.63569C10.8776 5.6159 10.8867 5.59579 10.897 5.576C11.035 5.30898 11.1425 5.02444 11.2131 4.72471C11.2787 4.44787 11.3165 4.16105 11.3165 3.86543C11.3165 1.73917 9.5256 0.00878906 7.32461 0.00878906C5.12363 0.00878906 3.33276 1.73917 3.33276 3.86543C3.33276 4.16107 3.37054 4.44788 3.43611 4.72471C3.50675 5.02428 3.61451 5.30931 3.7522 5.576H3.75219ZM7.00528 1.44091C7.00528 1.27052 7.14852 1.1325 7.32463 1.1325C7.50074 1.1325 7.64399 1.27052 7.64399 1.44091V3.70535L8.84097 4.51917C8.98536 4.61729 9.01969 4.80959 8.91831 4.94922C8.85634 5.03424 8.75758 5.08036 8.65685 5.08036C8.5934 5.08036 8.52897 5.06237 8.47337 5.02394L7.14085 4.11802C7.05582 4.06014 7.00529 3.96595 7.00529 3.86571L7.00528 1.44091Z" fill="#858EA9"/>
</svg>
