<svg width="23" height="23" viewBox="0 0 23 23" fill="none" xmlns="http://www.w3.org/2000/svg">
<path d="M15.1343 0.00878906C10.9757 0.00878906 7.58203 3.40255 7.58203 7.56109C7.58203 11.7197 10.9758 15.1134 15.1343 15.1134C19.2929 15.1134 22.6866 11.7196 22.6866 7.56109C22.6866 3.4025 19.3167 0.00878906 15.1343 0.00878906ZM15.1343 13.2731C11.9795 13.2731 9.42231 10.7158 9.42231 7.56109C9.42231 4.40625 11.9797 1.84907 15.1343 1.84907C18.289 1.84907 20.8464 4.43023 20.8464 7.56109C20.8464 10.6919 18.289 13.2731 15.1343 13.2731Z" fill="#858EA9"/>
<path d="M17.6437 6.6528H16.0663V4.50191C16.0663 3.99993 15.6601 3.56982 15.1342 3.56982C14.6084 3.56982 14.2021 3.9761 14.2021 4.50191V7.58489C14.2021 8.08687 14.6084 8.51698 15.1342 8.51698H17.6437C18.1457 8.51698 18.5758 8.1107 18.5758 7.58489C18.5758 7.05909 18.1696 6.6528 17.6437 6.6528Z" fill="#858EA9"/>
<path d="M15.0865 18.4115L11.8839 16.7624C11.4298 16.5234 10.8802 16.6429 10.5694 17.0492L9.39829 18.5549C8.25114 17.9335 7.39076 17.3599 6.38697 16.3323C5.31152 15.2569 4.73785 14.3724 4.14035 13.2493L5.62209 12.0782C6.02837 11.7675 6.14789 11.2178 5.90884 10.7637L4.25972 7.58501C3.97297 7.03536 3.25593 6.84417 2.73013 7.20258L0.698575 8.56495C0.220624 8.8757 -0.0422732 9.42534 0.00556885 9.99902C0.0534152 10.5727 0.125102 11.3135 0.244634 11.8154C0.842297 14.1096 2.27619 16.4519 4.28373 18.4595C6.2674 20.4431 8.63347 21.877 10.9039 22.4745C11.4059 22.6179 12.1468 22.6896 12.7203 22.7136C13.2939 22.7614 13.8436 22.4745 14.1543 21.9966L15.4927 19.9412C15.8273 19.3915 15.6361 18.6985 15.0864 18.4116L15.0865 18.4115Z" fill="#858EA9"/>
</svg>
