<svg width="24" height="23" viewBox="0 0 24 23" fill="none" xmlns="http://www.w3.org/2000/svg">
<path d="M23.299 11.1777L12.4893 0.257497C12.4115 0.178657 12.319 0.116109 12.2173 0.0734325C12.1155 0.030756 12.0064 0.00878906 11.8962 0.00878906C11.786 0.00878906 11.6769 0.030756 11.5752 0.0734325C11.4734 0.116109 11.3809 0.178657 11.3031 0.257497L0.493379 11.1777C0.178456 11.4961 0 11.9286 0 12.3796C0 13.3161 0.75319 14.0776 1.67959 14.0776H2.81856V21.8698C2.81856 22.3394 3.19384 22.7188 3.65835 22.7188H10.2166V16.7758H13.1559V22.7188H20.1341C20.5986 22.7188 20.9739 22.3394 20.9739 21.8698V14.0776H22.1128C22.559 14.0776 22.9867 13.8998 23.3017 13.5788C23.9551 12.9155 23.9551 11.841 23.299 11.1777Z" fill="#858EA9"/>
</svg>
