<svg width="20" height="23" viewBox="0 0 20 23" fill="none" xmlns="http://www.w3.org/2000/svg">
<path d="M4.61588 1.42824C4.41011 1.42824 4.2583 1.58434 4.2583 1.77593V3.91926C4.2583 3.9653 4.26738 4.01084 4.28503 4.05325C4.30285 4.09583 4.32893 4.13428 4.3616 4.16662C4.39427 4.19896 4.43321 4.22454 4.47579 4.2417C4.51852 4.25886 4.56424 4.26744 4.61027 4.26694H15.2611C15.3536 4.26694 15.4426 4.23047 15.5086 4.1653C15.5744 4.10028 15.612 4.01184 15.613 3.91926V1.77593C15.613 1.58154 15.4526 1.42825 15.2554 1.42825H14.1937L12.7743 0.00878906H7.0968L5.67735 1.42825L4.61588 1.42824Z" fill="#858EA9"/>
<path fill-rule="evenodd" clip-rule="evenodd" d="M0 4.25557C0 2.69718 1.26861 1.43288 2.8387 1.42824V4.98376C2.8387 5.38111 3.16229 5.68639 3.56262 5.68639H16.3087C16.709 5.68639 17.0326 5.37122 17.0326 4.98376V1.42824H17.024C17.7764 1.42593 18.4991 1.72245 19.0329 2.25265C19.5667 2.78285 19.8683 3.50326 19.8713 4.25557V19.8915C19.8713 21.4527 18.5982 22.7188 17.024 22.7188H2.84765C2.09522 22.7211 1.3726 22.4246 0.838776 21.8944C0.304949 21.3642 0.00333187 20.6438 0.000332603 19.8915L0 4.25557ZM4.25812 10.6542C4.25812 11.0347 4.57593 11.3639 4.96767 11.3639H14.9033C15.2864 11.3639 15.6128 11.0459 15.6128 10.6542C15.6128 10.2738 15.295 9.94459 14.9033 9.94459H4.96767C4.58452 9.94459 4.25812 10.2624 4.25812 10.6542ZM4.25812 16.3316C4.25812 16.712 4.57593 17.0414 4.96767 17.0414H14.9033C15.2864 17.0414 15.6128 16.7234 15.6128 16.3316C15.6128 15.9513 15.295 15.6219 14.9033 15.6219H4.96767C4.58452 15.6219 4.25812 15.9399 4.25812 16.3316ZM14.9034 12.7832H4.9678C4.5759 12.7832 4.25824 13.1009 4.25824 13.4928C4.25824 13.8848 4.57589 14.2025 4.9678 14.2025H14.9034C15.2953 14.2025 15.613 13.8849 15.613 13.4928C15.613 13.1009 15.2953 12.7832 14.9034 12.7832Z" fill="#858EA9"/>
</svg>
