<svg width="11" height="15" viewBox="0 0 11 15" fill="none" xmlns="http://www.w3.org/2000/svg">
<path d="M0.864692 12.6964C0.864692 13.552 1.56469 14.252 2.42025 14.252H8.64247C9.49803 14.252 10.198 13.552 10.198 12.6964V4.91862C10.198 4.06306 9.49803 3.36306 8.64247 3.36306H2.42025C1.56469 3.36306 0.864692 4.06306 0.864692 4.91862V12.6964ZM10.198 1.02973H8.25358L7.70136 0.477509C7.56136 0.337509 7.35914 0.251953 7.15691 0.251953H3.9058C3.70358 0.251953 3.50136 0.337509 3.36136 0.477509L2.80914 1.02973H0.864692C0.436914 1.02973 0.0869141 1.37973 0.0869141 1.80751C0.0869141 2.23529 0.436914 2.58529 0.864692 2.58529H10.198C10.6258 2.58529 10.9758 2.23529 10.9758 1.80751C10.9758 1.37973 10.6258 1.02973 10.198 1.02973Z" fill="#C20909"/>
</svg>
