<svg width="62" height="28" viewBox="0 0 62 28" fill="none" xmlns="http://www.w3.org/2000/svg">
<rect width="62" height="28" rx="5" fill="#80C342"/>
<path d="M22.052 16.9645C22.0229 16.8615 21.967 16.7681 21.89 16.6937C21.8131 16.6193 21.7177 16.5667 21.6138 16.5412C20.5842 16.2669 19.6047 15.8311 18.7117 15.2499C18.5328 15.1373 18.3082 15.126 18.119 15.2203C17.5099 15.5236 17.0321 16.0382 16.7748 16.6682C15.9304 16.1 15.1441 15.4497 14.4273 14.7271C13.7054 14.0102 13.0559 13.2239 12.4883 12.3796C12.8334 12.24 13.1467 12.0319 13.4091 11.7678C13.6235 11.5543 13.8022 11.3078 13.9383 11.0375C14.0299 10.8482 14.0179 10.6252 13.9066 10.4469C13.3245 9.55281 12.8887 8.5717 12.6153 7.54044C12.5901 7.43659 12.5375 7.34143 12.4631 7.26477C12.3886 7.18804 12.295 7.13266 12.192 7.10441C11.2854 6.84945 10.3114 7.06821 9.60099 7.68652C8.85595 8.56706 8.80512 10.0065 9.44015 11.7401C10.0329 13.3298 11.1739 15.0191 12.6514 16.4987C14.1289 17.9784 15.8244 19.1173 17.4143 19.7163C18.1113 19.9919 18.8517 20.1417 19.601 20.1587C20.2738 20.1873 20.9347 19.9741 21.4638 19.5575V19.5448C21.7546 19.2099 21.96 18.8098 22.0628 18.3784C22.18 17.9139 22.1764 17.4271 22.0522 16.9644L22.052 16.9645Z" fill="white"/>
<path d="M35.7754 10.5059C35.3652 10.5059 34.998 10.5801 34.6738 10.7285C34.3535 10.877 34.082 11.0918 33.8594 11.373C33.6367 11.6504 33.4668 11.9883 33.3496 12.3867C33.2324 12.7812 33.1738 13.2266 33.1738 13.7227C33.1738 14.3867 33.2676 14.959 33.4551 15.4395C33.6426 15.916 33.9277 16.2832 34.3105 16.541C34.6934 16.7949 35.1777 16.9219 35.7637 16.9219C36.127 16.9219 36.4805 16.8867 36.8242 16.8164C37.168 16.7461 37.5234 16.6504 37.8906 16.5293V17.7246C37.543 17.8613 37.1914 17.9609 36.8359 18.0234C36.4805 18.0859 36.0703 18.1172 35.6055 18.1172C34.7305 18.1172 34.0039 17.9355 33.4258 17.5723C32.8516 17.209 32.4219 16.6973 32.1367 16.0371C31.8555 15.377 31.7148 14.6035 31.7148 13.7168C31.7148 13.0684 31.8047 12.4746 31.9844 11.9355C32.1641 11.3965 32.4258 10.9316 32.7695 10.541C33.1133 10.1465 33.5371 9.84375 34.041 9.63281C34.5488 9.41797 35.1289 9.31055 35.7812 9.31055C36.2109 9.31055 36.6328 9.35938 37.0469 9.45703C37.4648 9.55078 37.8516 9.68555 38.207 9.86133L37.7148 11.0215C37.418 10.8809 37.1074 10.7598 36.7832 10.6582C36.459 10.5566 36.123 10.5059 35.7754 10.5059ZM42.1328 11.3906C42.9531 11.3906 43.5723 11.5723 43.9902 11.9355C44.4121 12.2988 44.623 12.8652 44.623 13.6348V18H43.6445L43.3809 17.0801H43.334C43.1504 17.3145 42.9609 17.5078 42.7656 17.6602C42.5703 17.8125 42.3438 17.9258 42.0859 18C41.832 18.0781 41.5215 18.1172 41.1543 18.1172C40.7676 18.1172 40.4219 18.0469 40.1172 17.9062C39.8125 17.7617 39.5723 17.543 39.3965 17.25C39.2207 16.957 39.1328 16.5859 39.1328 16.1367C39.1328 15.4688 39.3809 14.9668 39.877 14.6309C40.377 14.2949 41.1309 14.1094 42.1387 14.0742L43.2637 14.0332V13.6934C43.2637 13.2441 43.1582 12.9238 42.9473 12.7324C42.7402 12.541 42.4473 12.4453 42.0684 12.4453C41.7441 12.4453 41.4297 12.4922 41.125 12.5859C40.8203 12.6797 40.5234 12.7949 40.2344 12.9316L39.7891 11.959C40.1055 11.791 40.4648 11.6543 40.8672 11.5488C41.2734 11.4434 41.6953 11.3906 42.1328 11.3906ZM43.2578 14.9004L42.4199 14.9297C41.7324 14.9531 41.25 15.0703 40.9727 15.2812C40.6953 15.4922 40.5566 15.7812 40.5566 16.1484C40.5566 16.4688 40.6523 16.7031 40.8438 16.8516C41.0352 16.9961 41.2871 17.0684 41.5996 17.0684C42.0762 17.0684 42.4707 16.9336 42.7832 16.6641C43.0996 16.3906 43.2578 15.9902 43.2578 15.4629V14.9004ZM47.9336 18H46.5508V8.88281H47.9336V18ZM51.2852 18H49.9023V8.88281H51.2852V18Z" fill="white"/>
</svg>
