<svg width="19" height="20" viewBox="0 0 19 20" fill="none" xmlns="http://www.w3.org/2000/svg">
<path d="M18.6667 10C18.6667 10.368 18.3686 10.6667 18 10.6667H7.33333V9.33333H18C18.3686 9.33333 18.6667 9.63199 18.6667 10ZM0.666667 3.33333H10.6667V2H0.666667C0.298065 2 0 2.29866 0 2.66667C0 3.03467 0.298065 3.33333 0.666667 3.33333ZM18.6667 2.66667C18.6667 2.29866 18.3686 2 18 2H16V3.33333H18C18.3686 3.33333 18.6667 3.03467 18.6667 2.66667ZM0.666667 10.6667H2V9.33333H0.666667C0.298065 9.33333 0 9.63199 0 10C0 10.368 0.298065 10.6667 0.666667 10.6667ZM18 16.6667H15.3333V18H18C18.3686 18 18.6667 17.7013 18.6667 17.3333C18.6667 16.9653 18.3686 16.6667 18 16.6667ZM0 17.3333C0 17.7013 0.298065 18 0.666667 18H10V16.6667H0.666667C0.298065 16.6667 0 16.9653 0 17.3333ZM12.6667 5.33333H14C14.7353 5.33333 15.3333 4.73528 15.3333 4V1.33333C15.3333 0.598057 14.7353 0 14 0H12.6667C11.9314 0 11.3333 0.598057 11.3333 1.33333V4C11.3333 4.73528 11.9314 5.33333 12.6667 5.33333ZM4 7.33333C3.26472 7.33333 2.66667 7.93139 2.66667 8.66667V11.3333C2.66667 12.0686 3.26472 12.6667 4 12.6667H5.33333C6.06861 12.6667 6.66667 12.0686 6.66667 11.3333V8.66667C6.66667 7.93139 6.06861 7.33333 5.33333 7.33333H4ZM13.3333 14.6667H12C11.2647 14.6667 10.6667 15.2647 10.6667 16V18.6667C10.6667 19.4019 11.2647 20 12 20H13.3333C14.0686 20 14.6667 19.4019 14.6667 18.6667V16C14.6667 15.2647 14.0686 14.6667 13.3333 14.6667Z" fill="#80C342"/>
</svg>
