<svg width="28" height="30" viewBox="0 0 28 30" fill="none" xmlns="http://www.w3.org/2000/svg">
<path d="M22.2914 0H5.1776C3.8048 0.00151319 2.48863 0.54748 1.51808 1.51808C0.54753 2.48862 0.00155213 3.80487 2.60066e-06 5.17729V13.5285C-0.00151059 15.818 0.657345 18.0593 1.89756 19.9838L2.5552 21.0061C3.25884 22.0981 3.63259 23.3698 3.63197 24.6687V25.875C3.63318 26.9687 4.06808 28.0171 4.8413 28.7907C5.61486 29.5639 6.66324 29.9988 7.75698 30H19.7116C20.8053 29.9988 21.8537 29.5639 22.6273 28.7907C23.4005 28.0171 23.8354 26.9687 23.8366 25.875V24.6687C23.836 23.3697 24.2098 22.098 24.9134 21.0061L25.571 19.9838C26.8113 18.0593 27.4701 15.8179 27.4686 13.5285V5.17729C27.4671 3.80479 26.9211 2.48862 25.9505 1.51808C24.98 0.547527 23.6637 0.00154953 22.2913 0H22.2914ZM26.3674 13.5282C26.3683 15.6064 25.7705 17.6405 24.6447 19.3873L23.9871 20.4096C23.169 21.6793 22.7341 23.158 22.7351 24.6688V25.8751V25.8748C22.7342 26.6765 22.4155 27.4449 21.8487 28.0117C21.2818 28.5786 20.5134 28.8973 19.712 28.8981H18.7723V28.8028C18.7723 26.9461 16.5167 25.4407 13.7342 25.4407C10.9518 25.4407 8.69618 26.9458 8.69618 28.8028V28.8981H7.75677C6.95505 28.8972 6.18664 28.5785 5.61982 28.0117C5.05297 27.4449 4.73426 26.6765 4.73341 25.8748V24.6685C4.73432 23.158 4.29942 21.6793 3.48139 20.4097L2.82374 19.3873C1.69824 17.6405 1.1002 15.6064 1.10144 13.5282V5.17699C1.10265 4.09658 1.5324 3.06064 2.29659 2.29641C3.06077 1.53224 4.09668 1.1025 5.17748 1.10126H22.2913C23.3717 1.10247 24.4079 1.53222 25.1718 2.29641C25.936 3.06059 26.3661 4.0965 26.3673 5.17699L26.3674 13.5282Z" fill="white"/>
<path d="M21.8575 3.43018H5.61064C4.98871 3.43108 4.39248 3.67834 3.9528 4.11808C3.51306 4.55782 3.2655 5.15402 3.26489 5.77592V14.9406C3.2655 15.5626 3.51306 16.1588 3.9528 16.5985C4.39254 17.0382 4.98874 17.2855 5.61064 17.2861H21.8575C22.4794 17.2855 23.0756 17.0382 23.5153 16.5985C23.9551 16.1587 24.2026 15.5625 24.2032 14.9406V5.77592C24.2026 5.154 23.9551 4.55776 23.5153 4.11808C23.0756 3.67834 22.4794 3.43108 21.8575 3.43018ZM5.61064 4.53182H21.8575C22.1873 4.53212 22.5036 4.66346 22.737 4.8968C22.97 5.12983 23.1014 5.44609 23.1017 5.776V13.9893H4.36707V5.776C4.36737 5.44612 4.49871 5.12986 4.73175 4.8968C4.96508 4.66346 5.28135 4.53212 5.61126 4.53182H5.61064Z" fill="white"/>
<path d="M10.6777 20.9995H7.08407C6.68307 20.9995 6.35803 21.3246 6.35803 21.7256V23.7941C6.35803 24.1049 6.49452 24.4003 6.73149 24.6013C6.96816 24.8025 7.2817 24.8897 7.58831 24.8392L7.64641 24.8298C9.11002 24.5898 10.4513 23.8667 11.4564 22.776C11.7412 22.467 11.8162 22.0185 11.6474 21.6332C11.4788 21.2483 11.0981 20.9995 10.6777 20.9995V20.9995Z" fill="white"/>
<path d="M20.3839 20.9995H16.7903C16.3699 20.9995 15.9892 21.2483 15.8206 21.6332C15.6517 22.0185 15.7268 22.4667 16.0116 22.776C17.0167 23.8667 18.3579 24.5897 19.8216 24.8298L19.8797 24.8392C20.1862 24.8894 20.4995 24.8025 20.7365 24.6013C20.9734 24.4 21.1099 24.1049 21.1099 23.7941V21.7256C21.1099 21.3246 20.7849 20.9995 20.3839 20.9995V20.9995Z" fill="white"/>
<path d="M10.8125 12.1559C12.2262 12.1559 13.1722 10.771 12.5993 9.42025L11.0625 6.62474C11.0122 6.53364 10.9166 6.47705 10.8125 6.47705C10.7084 6.47705 10.6127 6.53365 10.5625 6.62474L9.02535 9.41994C8.45275 10.771 9.39881 12.1558 10.8124 12.1558L10.8125 12.1559Z" fill="white"/>
<path d="M16.6558 12.1559C18.0694 12.1559 19.0155 10.771 18.4425 9.42024L16.9054 6.62504L16.9057 6.62474C16.8555 6.53364 16.7598 6.47705 16.6557 6.47705C16.5516 6.47705 16.456 6.53365 16.4057 6.62474L14.8686 9.41994C14.296 10.771 15.2421 12.1558 16.6557 12.1558L16.6558 12.1559Z" fill="white"/>
</svg>
