<svg width="37" height="32" viewBox="0 0 37 32" fill="none" xmlns="http://www.w3.org/2000/svg">
<path d="M18.165 31.7886C17.8834 31.7886 17.6034 31.7098 17.3566 31.5554C12.2841 28.3493 8.02914 24.6406 4.70958 20.5283C4.18426 19.8773 4.28562 18.9252 4.93512 18.3999C5.58463 17.8746 6.53969 17.9759 7.06354 18.6269C9.99853 22.2598 13.7299 25.5703 18.1633 28.4753C24.0911 24.5941 28.7487 19.9867 32.0151 14.7715C32.905 13.3562 33.3016 12.0121 33.3016 10.4121V9.51148C33.3016 7.84022 32.6433 6.26302 31.4474 5.0702L30.9221 4.59024C29.3826 3.30063 27.6313 3.02946 26.4324 3.02946C23.7394 3.02946 21.1133 4.69767 19.9023 7.18004L19.5239 7.95495C19.0169 8.99493 17.3094 8.99493 16.8023 7.95495L16.424 7.17848C15.195 4.65803 12.5853 3.0279 9.78032 3.0279C8.11366 3.0279 6.64234 3.55474 5.40417 4.59147L4.88037 5.07143C3.68606 6.2612 3.02766 7.8384 3.02766 9.51122V10.4119C3.02766 11.5684 3.24255 12.6081 3.69514 13.6269L9.86192 13.6239L11.4255 11.6379C11.7374 11.2444 12.2293 11.0279 12.7257 11.0657C13.2283 11.1019 13.6778 11.385 13.9276 11.8226L17.0352 17.2446L21.2826 9.62785C21.5398 9.16461 22.0198 8.87091 22.5497 8.85138C23.1295 8.82401 23.5806 9.09212 23.8712 9.5356L26.5505 13.6241H27.2469C28.0839 13.6241 28.7605 14.3022 28.7605 15.1377C28.7605 15.9732 28.0839 16.6513 27.2469 16.6513H25.7333C25.2231 16.6513 24.7478 16.3941 24.4662 15.9671L22.7104 13.2847L18.3765 21.0559C18.1102 21.5313 17.6092 21.8293 17.0626 21.8324C16.4843 21.7764 16.0122 21.5447 15.7395 21.0709L12.4155 15.2718L11.7843 16.0741C11.4982 16.4375 11.0592 16.6509 10.5961 16.6509H2.76846C2.22515 16.6509 1.72238 16.3587 1.45303 15.8863C0.47513 14.1697 0 12.3792 0 10.4112V9.51053C0 7.0281 0.974849 4.68942 2.7429 2.92591C2.97452 2.69581 3.21374 2.47788 3.45728 2.27056C5.23293 0.785549 7.41708 0 9.78014 0C13.0968 0 16.218 1.61521 18.1631 4.23524C20.0945 1.618 23.1765 0.001492 26.4337 0.001492C28.8723 0.001492 31.099 0.785549 32.8701 2.27056C33.1169 2.47937 33.3559 2.6973 33.5875 2.92889C35.354 4.68935 36.329 7.0281 36.329 9.51027V10.4109C36.329 12.5831 35.775 14.4797 34.5822 16.3779C30.925 22.2132 25.6725 27.3207 18.9731 31.5531C18.7262 31.7089 18.4462 31.7877 18.1647 31.7877L18.165 31.7886Z" fill="white"/>
</svg>
