<svg width="27" height="23" viewBox="0 0 27 23" fill="none" xmlns="http://www.w3.org/2000/svg">
<path d="M26.4342 11.1952C26.6672 10.8975 26.6229 10.469 26.3339 10.2253L13.693 0.125965C13.4518 -0.0419884 13.1318 -0.0419884 12.8905 0.125965L0.249667 10.2253C-0.0393503 10.469 -0.0836714 10.8976 0.149362 11.1952C0.277424 11.3387 0.458676 11.4231 0.650887 11.4292C0.806945 11.4369 0.960668 11.3895 1.0857 11.2955L2.05538 10.4928V20.3246C2.05538 21.0342 2.33717 21.7147 2.83892 22.2165C3.34068 22.7182 4.02114 23 4.73075 23H21.8528C22.5624 23 23.2428 22.7182 23.7446 22.2165C24.2463 21.7147 24.5281 21.0342 24.5281 20.3246V10.4928L25.4978 11.2955C25.7847 11.5246 26.2025 11.4798 26.4342 11.1952H26.4342ZM23.1906 20.3247C23.1906 20.6795 23.0495 21.0196 22.7987 21.2706C22.5479 21.5214 22.2076 21.6623 21.8528 21.6623H4.73077C4.37597 21.6623 4.03561 21.5214 3.78486 21.2706C3.53409 21.0196 3.39296 20.6795 3.39296 20.3247V9.4228L13.2916 1.53062L23.1903 9.4228L23.1906 20.3247Z" fill="white"/>
<path d="M12.6228 10.8604V13.9705H9.47925V15.3081H12.6228V18.4516H13.9603V15.3081H17.1039V13.9705H13.9603V10.8604H12.6228Z" fill="white"/>
</svg>
