<svg width="24" height="20" viewBox="0 0 24 20" fill="none" xmlns="http://www.w3.org/2000/svg">
<path d="M22.9862 9.73495C23.1889 9.47612 23.1503 9.10351 22.899 8.89154L11.907 0.109535C11.6972 -0.0365116 11.4189 -0.0365116 11.2092 0.109535L0.217102 8.89154C-0.0342176 9.10351 -0.0727577 9.47614 0.12988 9.73495C0.241239 9.8597 0.398849 9.93313 0.565989 9.93841C0.701691 9.9451 0.835364 9.90392 0.944085 9.82218L1.78729 9.12422V17.6736C1.78729 18.2906 2.03232 18.8823 2.46863 19.3187C2.90494 19.755 3.49664 20 4.1137 20H19.0024C19.6195 20 20.2111 19.755 20.6475 19.3187C21.0838 18.8823 21.3288 18.2906 21.3288 17.6736V9.12422L22.172 9.82218C22.4215 10.0214 22.7848 9.98242 22.9862 9.73495H22.9862ZM20.1657 17.6737C20.1657 17.9822 20.043 18.2779 19.825 18.4962C19.6069 18.7142 19.3109 18.8368 19.0024 18.8368H4.11371C3.80519 18.8368 3.50922 18.7142 3.29118 18.4962C3.07312 18.2779 2.9504 17.9822 2.9504 17.6737V8.19374L11.5579 1.33098L20.1655 8.19374L20.1657 17.6737Z" fill="#80C342"/>
<path d="M10.9762 9.44434V12.1488H8.24268V13.3119H10.9762V16.0454H12.1393V13.3119H14.8728V12.1488H12.1393V9.44434H10.9762Z" fill="#80C342"/>
</svg>
