<svg width="19" height="21" viewBox="0 0 19 21" fill="none" xmlns="http://www.w3.org/2000/svg">
<path d="M16.3865 1.97664L14.4808 0.967472C14.2208 0.829853 13.9106 0.829853 13.6506 0.967472L11.7458 1.97629C11.5486 2.08062 11.3133 2.08062 11.1162 1.97629L9.21112 0.967472C8.95115 0.829853 8.64093 0.829853 8.38096 0.967472L6.47521 1.97664C6.27994 2.08012 6.04622 2.08097 5.85024 1.97904L4.00696 1.0207V14.9987H13.6097C13.875 14.9987 14.0902 15.2139 14.0902 15.4792V18.4818C14.0902 19.7954 15.1589 20.8643 16.4726 20.8643C17.7862 20.8643 18.8551 19.7956 18.8551 18.4818L18.8549 1.0207L17.0116 1.97904C16.8155 2.08097 16.5817 2.08011 16.3865 1.97664H16.3865ZM6.84615 5.15939H11.7169C11.9822 5.15939 12.1974 5.37457 12.1974 5.63988C12.1974 5.90517 11.9822 6.12037 11.7169 6.12037H6.84615C6.58086 6.12037 6.36565 5.90519 6.36565 5.63988C6.36565 5.37459 6.58084 5.15939 6.84615 5.15939ZM15.5607 12.6066H6.84615C6.58086 12.6066 6.36565 12.3914 6.36565 12.1261C6.36565 11.8608 6.58084 11.6456 6.84615 11.6456H15.5607C15.826 11.6456 16.0412 11.8608 16.0412 12.1261C16.0412 12.3916 15.826 12.6066 15.5607 12.6066ZM15.5607 9.24334H6.84615C6.58086 9.24334 6.36565 9.02816 6.36565 8.76285C6.36565 8.49756 6.58084 8.28236 6.84615 8.28236H15.5607C15.826 8.28236 16.0412 8.49754 16.0412 8.76285C16.0412 9.02831 15.826 9.24334 15.5607 9.24334Z" fill="#80C342"/>
<path d="M3.04586 20.864H14.1308C13.5137 20.2571 13.13 19.4135 13.13 18.4816V15.9595L0.663574 15.9596V18.4818C0.663574 19.7953 1.73227 20.864 3.04599 20.864L3.04586 20.864Z" fill="#80C342"/>
</svg>
