<svg width="19" height="20" viewBox="0 0 19 20" fill="none" xmlns="http://www.w3.org/2000/svg">
<path fill-rule="evenodd" clip-rule="evenodd" d="M3.14846 9.77003C3.26371 9.50098 3.52247 9.3211 3.81477 9.30668H3.81594C3.98849 9.29821 4.16155 9.29921 4.33396 9.30984C4.85228 9.3414 5.36515 9.45865 5.84563 9.65612C6.06752 9.74729 6.28257 9.85541 6.48818 9.97931C6.59231 10.0421 6.69362 10.1092 6.79294 10.1794C6.81586 10.1959 6.83878 10.2123 6.86136 10.2291C7.28751 10.5465 7.71169 10.866 8.13669 11.1846V11.1844C8.14267 11.1892 8.14881 11.1935 8.15496 11.198C8.16824 11.2078 8.18003 11.2163 8.19349 11.2258C8.22205 11.2458 8.25095 11.2653 8.28035 11.2842C8.38764 11.3538 8.49941 11.4166 8.61417 11.473C8.95912 11.6426 9.56216 11.7889 10.1099 11.7996C10.4462 11.8064 10.7471 12.0098 10.8792 12.3191C11.4341 13.6158 12.7556 16.7148 12.7556 16.7148C12.789 16.7942 12.8188 16.8749 12.8438 16.9573C12.8997 17.1423 12.9328 17.3343 12.9419 17.5275C12.9564 17.8332 12.9104 18.1414 12.8074 18.43C12.8052 18.4363 12.8027 18.4427 12.8004 18.4491L12.7996 18.4514L12.7988 18.4534C12.7966 18.4597 12.7943 18.466 12.7918 18.4721L12.7916 18.473L12.7908 18.4748L12.787 18.4848L12.7843 18.4917L12.7828 18.4957C12.7803 18.5019 12.7778 18.508 12.7755 18.5142L12.7748 18.5155L12.774 18.5182L12.7708 18.5255L12.7672 18.5346L12.7664 18.5368L12.7659 18.5377C12.7634 18.5437 12.7609 18.5499 12.7582 18.556L12.7574 18.5578L12.7562 18.5605L12.7541 18.5658L12.7489 18.5778L12.7484 18.5789L12.7483 18.5793C12.7456 18.5852 12.7429 18.5914 12.7403 18.5974L12.7391 18.5999L12.738 18.6022C12.7353 18.6082 12.7326 18.614 12.73 18.62L12.7297 18.6208L12.7285 18.6233L12.7242 18.6326L12.7214 18.6384L12.72 18.6415L12.719 18.6435C12.7164 18.6492 12.7137 18.6548 12.7109 18.6603L12.7084 18.6658L12.7052 18.6721L12.7019 18.6789L12.6999 18.6827L12.6991 18.6844C12.6964 18.6899 12.6938 18.695 12.6911 18.7005L12.6856 18.7115L12.6817 18.7189L12.6793 18.7236L12.677 18.7277L12.672 18.7374L12.6707 18.7399L12.6685 18.7439L12.6664 18.748L12.6652 18.7502L12.6611 18.758L12.6577 18.7639L12.6539 18.7708L12.6513 18.7759L12.6498 18.7784L12.6468 18.784L12.6445 18.7882L12.6441 18.7887L12.6416 18.7932L12.6355 18.804L12.631 18.8118L12.6297 18.8139L12.6287 18.8159C12.5774 18.9045 12.5206 18.9898 12.4583 19.071C12.3367 19.2296 12.1947 19.3725 12.0371 19.4954C11.8572 19.6352 11.6571 19.749 11.4447 19.8317C11.2647 19.9018 11.0762 19.9494 10.8845 19.9737C10.7931 19.985 10.7015 19.9908 10.6095 19.9918C7.85137 20.0027 5.09295 20.0027 2.33491 19.9918C2.24306 19.9908 2.15122 19.985 2.06005 19.9737C1.86839 19.9494 1.67972 19.9018 1.49968 19.8317C1.28178 19.7468 1.07667 19.6292 0.89314 19.4841C0.745995 19.3678 0.612795 19.2336 0.497371 19.0855C0.354542 18.9021 0.239118 18.6979 0.155913 18.4809C0.0419819 18.1837 -0.0106663 17.8635 0.00179106 17.5454C0.0092646 17.3584 0.0389926 17.1724 0.0904758 16.9924C0.11572 16.904 0.146445 16.8173 0.181487 16.7323C1.04976 14.6732 2.62835 10.9849 3.1485 9.7702L3.14846 9.77003ZM12.3775 11.5385C12.3775 11.4283 12.4253 11.3234 12.5085 11.2511C12.5917 11.1787 12.7024 11.146 12.8115 11.1615C13.1441 11.2071 13.4688 11.2809 13.6296 11.3727C13.7764 11.4566 13.9353 11.5177 14.078 11.6084C14.1401 11.6477 14.2006 11.6894 14.2597 11.7331C14.5516 11.9505 14.8413 12.1711 15.1338 12.3878C15.265 12.4831 15.4071 12.5625 15.5555 12.6278C15.7584 12.7169 15.9736 12.7786 16.1934 12.8076C16.3827 12.8305 16.5252 12.9915 16.5252 13.1823C16.5287 14.3505 16.5287 17.9896 16.5287 17.9896V18.0026C16.528 18.0717 16.524 18.1408 16.5162 18.2095C16.4996 18.3547 16.4664 18.4977 16.4169 18.635C16.3171 18.9135 16.1512 19.1668 15.9371 19.3709C15.7426 19.5566 15.509 19.7005 15.2552 19.7898C15.125 19.8358 14.9898 19.8672 14.8526 19.8838C14.784 19.8919 14.7151 19.8964 14.6462 19.8974C14.5299 19.8986 14.4135 19.8979 14.2972 19.8976C14.224 19.8968 14.1509 19.8924 14.0782 19.8838C13.9412 19.8672 13.806 19.8358 13.6756 19.7898C13.4255 19.7018 13.195 19.5606 13.002 19.3788C12.9653 19.3444 12.9301 19.3083 12.8964 19.2711C12.9395 19.21 12.9804 19.1474 13.0186 19.083C13.1415 18.8765 13.238 18.6541 13.3047 18.4233C13.3806 18.1605 13.4182 17.8867 13.4159 17.6133C13.4137 17.3743 13.3811 17.1358 13.319 16.905C13.2923 16.8057 13.2599 16.7083 13.2229 16.6123C13.2149 16.5918 13.2066 16.5712 13.1981 16.5507C12.9267 15.9077 12.6544 15.2651 12.3813 14.6229C12.378 13.5948 12.377 12.5668 12.3775 11.5386L12.3775 11.5385ZM12.4014 1.36385C12.4016 1.12934 12.4019 0.894848 12.4021 0.660327C12.0095 0.660161 11.617 0.660161 11.2246 0.659995L11.1957 0.658833C11.1704 0.655345 11.1638 0.655345 11.1391 0.648868C11.074 0.631429 11.015 0.593728 10.9717 0.542245C10.9531 0.520156 10.9376 0.495575 10.9253 0.469504C10.9051 0.425826 10.8944 0.378161 10.8944 0.329999C10.8944 0.281836 10.9051 0.234171 10.9253 0.190494C10.9376 0.164419 10.9531 0.13984 10.9717 0.117752C10.9964 0.088356 11.0261 0.063446 11.0595 0.0441776C11.0927 0.0249125 11.1294 0.011626 11.1671 0.0049824C11.1925 0.000498186 11.199 0.000996586 11.2246 0H11.537C13.5934 0.000166112 15.6498 0 17.7066 0L17.7353 0.00116256C17.7607 0.00448416 17.7672 0.00448411 17.7919 0.0111275C17.857 0.0285661 17.9161 0.0662671 17.9593 0.11775C17.9904 0.15462 18.013 0.198132 18.0254 0.244636C18.0379 0.290971 18.0399 0.339967 18.0316 0.3873C18.0266 0.4157 18.0178 0.443269 18.0057 0.46951C17.9935 0.495585 17.9779 0.520164 17.9593 0.542251C17.9347 0.571648 17.9049 0.596558 17.8716 0.615826C17.8383 0.635091 17.8017 0.648378 17.7638 0.655021C17.7386 0.659506 17.7321 0.658841 17.7065 0.660004L16.5289 0.66017V12.1655C16.5173 12.166 16.5058 12.1662 16.4942 12.1664C16.2695 12.1689 16.0459 12.1194 15.8396 12.0314C15.729 11.984 15.6219 11.9264 15.5246 11.8555C15.2328 11.6394 14.9438 11.4193 14.6526 11.2025C14.5807 11.1497 14.5075 11.099 14.4323 11.0512C14.259 10.9411 14.0767 10.8452 13.8877 10.7652C13.5751 10.6323 13.2444 10.5425 12.9076 10.4986C12.7505 10.478 12.5922 10.4679 12.4338 10.4669C12.4155 10.4669 12.3971 10.4671 12.3786 10.4672C12.3795 9.91749 12.3806 9.3678 12.382 8.81806C12.595 8.81922 12.8083 8.82038 13.0214 8.8169C13.0361 8.81623 13.0508 8.8149 13.0654 8.81241C13.1016 8.80627 13.1368 8.79414 13.169 8.77637C13.1981 8.7606 13.2246 8.74017 13.2477 8.71642C13.2808 8.68204 13.3065 8.64052 13.3221 8.59534C13.3379 8.55017 13.3436 8.50151 13.3387 8.45401C13.3359 8.42478 13.3289 8.39588 13.3183 8.36848C13.3039 8.33061 13.2823 8.29557 13.2552 8.26567C13.2255 8.23296 13.1894 8.20622 13.1492 8.18762C13.1194 8.17367 13.0871 8.16437 13.0544 8.15988C13.0398 8.15789 13.0252 8.15723 13.0104 8.15706C12.8015 8.15706 12.5925 8.15473 12.3836 8.1549L12.3851 7.64156L12.3866 7.12073C12.5984 7.12189 12.8098 7.12305 13.0214 7.11957C13.0362 7.11874 13.0508 7.11757 13.0654 7.11508C13.1016 7.10894 13.1368 7.09681 13.169 7.07904C13.2502 7.03453 13.31 6.95615 13.3315 6.86613C13.3383 6.83756 13.3413 6.808 13.3403 6.7786C13.3391 6.74556 13.333 6.71267 13.3222 6.68145C13.3089 6.64308 13.2886 6.60737 13.2625 6.57648C13.234 6.54293 13.1986 6.51487 13.1592 6.4951C13.1297 6.48015 13.0979 6.46969 13.0654 6.46421C13.0508 6.46172 13.0362 6.46056 13.0214 6.45973C12.8105 6.45624 12.5997 6.45508 12.3888 6.45624L12.3904 5.89621L12.3919 5.42339C12.6017 5.42455 12.8116 5.42555 13.0214 5.42206C13.0362 5.42139 13.0508 5.42006 13.0654 5.41757C13.1016 5.41159 13.1368 5.3993 13.169 5.3817C13.1981 5.36576 13.2247 5.3455 13.2478 5.32158C13.2682 5.30049 13.2856 5.27674 13.2999 5.25083C13.3228 5.20881 13.3366 5.16198 13.3398 5.11431C13.3429 5.06665 13.3356 5.01815 13.3183 4.97364C13.3039 4.93594 13.2823 4.90073 13.2552 4.87084C13.2255 4.83812 13.1895 4.81138 13.1493 4.79278C13.1194 4.77883 13.0872 4.76953 13.0544 4.76504C13.0398 4.76305 13.0252 4.76239 13.0104 4.76222C12.805 4.76222 12.5994 4.76006 12.3939 4.76006L12.3958 4.15089L12.3968 3.72605C12.605 3.72705 12.8133 3.72821 13.0214 3.72472C13.0362 3.72389 13.0508 3.72273 13.0654 3.72024C13.1016 3.7141 13.1368 3.70197 13.169 3.6842C13.1981 3.66842 13.2247 3.64816 13.2477 3.62424C13.2808 3.58987 13.3065 3.54818 13.3222 3.503C13.3379 3.45783 13.3436 3.40934 13.3388 3.36184C13.3359 3.33244 13.329 3.30354 13.3183 3.27614C13.3039 3.23844 13.2823 3.2034 13.2552 3.17334C13.2255 3.14062 13.1895 3.11405 13.1493 3.09545C13.1194 3.0815 13.0871 3.07219 13.0544 3.06771C13.0398 3.06572 13.0252 3.06505 13.0104 3.06472C12.8065 3.06472 12.6024 3.06273 12.3984 3.06256L12.3999 2.40573L12.4005 2.02856C12.6075 2.02972 12.8144 2.03072 13.0214 2.02723C13.0362 2.02657 13.0508 2.02524 13.0654 2.02291C13.0979 2.01743 13.1297 2.00697 13.1592 1.99202C13.1986 1.97209 13.234 1.94419 13.2625 1.91047C13.2886 1.87958 13.3089 1.84388 13.3221 1.80568C13.3329 1.77446 13.3391 1.74157 13.3402 1.70852C13.3412 1.67896 13.3383 1.64956 13.3314 1.621C13.31 1.53082 13.2502 1.45259 13.169 1.40808C13.1368 1.39031 13.1016 1.37819 13.0654 1.37204C13.0508 1.36955 13.0362 1.36822 13.0214 1.36756C12.8148 1.36407 12.6082 1.36291 12.4016 1.3639L12.4014 1.36385ZM4.11496 3.44269V2.59334C3.7255 2.59334 3.33623 2.59334 2.94674 2.59317L2.91718 2.59184C2.90754 2.59051 2.89758 2.58968 2.88778 2.58786C2.84892 2.58088 2.81138 2.56677 2.7775 2.5465C2.75209 2.53122 2.72884 2.51262 2.70824 2.4912C2.67403 2.45549 2.64812 2.41214 2.63285 2.36515C2.61773 2.31814 2.61308 2.26782 2.61973 2.21883C2.62371 2.18943 2.63168 2.1607 2.64331 2.13346C2.65892 2.09709 2.68101 2.06355 2.70824 2.03498C2.75608 1.98499 2.81968 1.95078 2.88778 1.93832C2.91385 1.93367 2.9205 1.93434 2.94674 1.93317H3.28537C5.51349 1.93334 7.74152 1.93317 9.96981 1.93317L9.99937 1.9345C10.0254 1.93799 10.0321 1.93799 10.0575 1.94497C10.1244 1.9634 10.1846 2.00309 10.2277 2.0574C10.2586 2.09593 10.2805 2.14144 10.2915 2.18977C10.3026 2.23793 10.3026 2.28842 10.2915 2.33658C10.2849 2.36548 10.2744 2.39354 10.2604 2.41945C10.2463 2.44569 10.2289 2.46978 10.2083 2.4912C10.1811 2.51977 10.1485 2.54335 10.113 2.56046C10.0774 2.57773 10.0387 2.58836 9.99937 2.59184C9.9894 2.59267 9.9796 2.59267 9.96981 2.59317L8.82968 2.59334V7.46062C8.83151 7.48869 8.83068 7.496 8.83815 7.52324C8.84098 7.53337 8.84513 7.54317 8.84862 7.55313L10.3756 11.1338L10.3702 11.1345C10.2661 11.1491 10.161 11.1562 10.0559 11.1566C9.70824 11.1572 9.36279 11.0798 9.04358 10.9437C8.95854 10.9075 8.87534 10.8671 8.79446 10.8226C8.70843 10.7753 8.62489 10.7231 8.5455 10.6655C8.11336 10.3453 7.68552 10.0194 7.25423 9.69823C7.15093 9.62233 7.04547 9.54942 6.93719 9.48083C6.70584 9.33368 6.46321 9.20447 6.21207 9.09436C5.7645 8.89806 5.29031 8.76336 4.80652 8.69444C4.6323 8.6697 4.45692 8.65342 4.28123 8.64578C4.20865 8.64263 4.13624 8.64113 4.06366 8.6408C4.04307 8.6408 4.02231 8.6408 4.00155 8.64097C3.87583 8.6423 3.7501 8.64744 3.62455 8.65724C3.78183 8.28921 3.9391 7.9212 4.09606 7.55313C4.10652 7.52324 4.10652 7.52324 4.11283 7.49218L4.11499 7.46063V6.18416C4.43635 6.18548 4.75771 6.1893 5.07909 6.18332C5.09537 6.18249 5.11148 6.181 5.12759 6.17801C5.15947 6.17203 5.1907 6.16124 5.21943 6.14629C5.25547 6.12736 5.28802 6.10194 5.31493 6.07139C5.34183 6.04083 5.36276 6.00529 5.37687 5.96709C5.40926 5.87857 5.40178 5.77826 5.35678 5.69572C5.34117 5.66699 5.3214 5.64091 5.29815 5.61799C5.2749 5.59524 5.24833 5.57597 5.21943 5.56086C5.18704 5.54392 5.15183 5.53246 5.11563 5.52714C5.09935 5.52465 5.08324 5.52382 5.06697 5.52349C4.74959 5.52349 4.4322 5.51884 4.11498 5.52117V4.10601C4.43635 4.1075 4.7577 4.11115 5.07908 4.10534C5.09536 4.10435 5.11147 4.10285 5.12758 4.09986C5.16362 4.09322 5.19833 4.08043 5.23022 4.06233C5.30844 4.01782 5.36607 3.94142 5.3875 3.8539C5.3953 3.82234 5.39829 3.78963 5.39646 3.75724C5.39464 3.72469 5.38799 3.69247 5.37687 3.66191C5.36275 3.62371 5.34182 3.58817 5.31492 3.55761C5.28801 3.52706 5.25547 3.50148 5.21942 3.48271C5.19069 3.46777 5.15964 3.45697 5.12758 3.45099C5.11147 3.448 5.09536 3.44651 5.07908 3.44568C4.75772 3.4397 4.43636 3.4387 4.11498 3.44252L4.11496 3.44269Z" fill="#80C342"/>
</svg>
