<svg width="15" height="30" viewBox="0 0 15 30" fill="none" xmlns="http://www.w3.org/2000/svg">
<path d="M0.0392521 0.493044H0V29.3878H0.0392521V29.8805H4.10143V28.8951H0.985339V23.7146H4.10143V22.7292H0.985339V17.9278H4.10143V16.9424H0.985339V12.8994H4.10143V11.914H0.985339V0.985381H4.10143V0H0.0392521V0.493044Z" fill="white"/>
<path d="M14.0032 0.803988H7.41995C6.94514 0.804529 6.56049 1.1892 6.55994 1.66373V8.64296C6.56048 9.11751 6.94515 9.50214 7.41995 9.5027H7.51632V26.8098C7.51795 27.9502 8.12757 29.0032 9.11536 29.5728C10.1032 30.1427 11.3199 30.1427 12.3077 29.5728C13.2955 29.0033 13.9049 27.9502 13.9068 26.8098V9.5027H14.0031C14.478 9.50243 14.8626 9.11776 14.8632 8.64296V1.66373C14.8626 1.18891 14.478 0.804265 14.0031 0.803711L14.0032 0.803988ZM7.54525 1.78937H13.8776V8.51801H12.4109L12.4112 2.94017H11.4258V8.51773H9.99729V2.94017H9.01191V8.51773H7.54524L7.54525 1.78937ZM12.9214 22.8906L10.8911 22.8903V15.6325H12.9214V22.8906ZM9.90575 14.6473V17.761L8.50159 17.7607V12.8995H12.9214V14.6474L9.90575 14.6473ZM12.9214 11.9141H8.50166V9.50291H12.9214V11.9141Z" fill="white"/>
</svg>
