<svg width="12" height="18" viewBox="0 0 12 18" fill="none" xmlns="http://www.w3.org/2000/svg">
<path d="M8.17627 12.429L10.5908 8.67055C11.6559 7.01301 11.7277 4.9916 10.7821 3.26248C9.83642 1.53332 8.09658 0.5 6.12566 0.5C4.15474 0.5 2.41484 1.53332 1.46922 3.26248C0.523664 4.98902 0.595275 7.01033 1.66049 8.67055L4.07232 12.4266C1.95802 12.8011 0.611328 13.7414 0.611328 14.8757C0.613937 16.3951 2.9302 17.5 6.12565 17.5C9.32111 17.5 11.6372 16.3951 11.6372 14.8757C11.6372 13.7361 10.2933 12.7985 8.17626 12.4292L8.17627 12.429ZM8.41533 5.50706C8.41533 6.76617 7.38736 7.79142 6.12564 7.79142C4.86391 7.79142 3.83594 6.76617 3.83594 5.50706C3.83594 4.24537 4.86391 3.21737 6.12564 3.21737C7.38736 3.21737 8.41533 4.24273 8.41533 5.50706ZM5.74842 15.0349C5.83072 15.1651 5.97159 15.242 6.12564 15.242C6.2824 15.242 6.42316 15.165 6.50285 15.0375L7.41131 13.6217C9.36623 13.8528 10.3465 14.5488 10.3465 14.8755C10.3465 15.2739 8.90948 16.2089 6.12564 16.2089C3.34194 16.2089 1.90482 15.2739 1.90482 14.8755C1.90482 14.5488 2.88501 13.8554 4.83996 13.6217L5.74842 15.0349Z" fill="#80C342"/>
</svg>
