<svg width="20" height="23" viewBox="0 0 20 23" fill="none" xmlns="http://www.w3.org/2000/svg">
<path fill-rule="evenodd" clip-rule="evenodd" d="M4.54833 2.2357C7.52926 -0.745233 12.4051 -0.745233 15.3857 2.2357C18.3664 5.21663 18.3667 10.0925 15.3857 13.0731L10.8831 17.5757C10.3791 18.0806 9.55488 18.0806 9.05085 17.5757L4.54823 13.0731C1.56806 10.0929 1.56806 5.21633 4.54823 2.23621L4.54833 2.2357ZM15.886 13.7766C18.3425 14.7073 19.9364 16.2024 19.9364 17.8892C19.9364 20.7117 15.473 23 9.9682 23C4.46258 23 0 20.7121 0 17.8892C0 16.2032 1.59391 14.7081 4.05043 13.7766L4.90529 14.6314C2.62595 15.3501 1.13498 16.5413 1.13498 17.8891C1.13498 20.0843 5.08997 21.8647 9.9684 21.8647C14.8474 21.8647 18.8018 20.0851 18.8018 17.8891C18.8018 16.5413 17.3108 15.3509 15.0315 14.6314L15.886 13.7766ZM9.9683 10.5248C11.5495 10.5248 12.8393 9.23478 12.8393 7.65374C12.8393 6.0725 11.5493 4.78269 9.9683 4.78269C8.38706 4.78269 7.09725 6.07271 7.09725 7.65374C7.09725 9.23498 8.38726 10.5248 9.9683 10.5248Z" fill="#80C342"/>
</svg>
