<svg width="19" height="23" viewBox="0 0 19 23" fill="none" xmlns="http://www.w3.org/2000/svg">
<path d="M9.20307 12.4208C12.5383 12.4208 15.2421 9.64032 15.2421 6.21041C15.2421 2.78049 12.5383 0 9.20307 0C5.86782 0 3.16406 2.78049 3.16406 6.21041C3.16406 9.64032 5.86782 12.4208 9.20307 12.4208Z" fill="#80C342"/>
<path d="M18.0973 17.9664C17.56 16.9433 16.3064 16.3089 14.3863 15.9201C13.499 15.7478 12.6017 15.635 11.7001 15.5825C10.0445 15.4491 8.38123 15.4491 6.72561 15.5825C5.82053 15.6326 4.91977 15.7454 4.02945 15.9201C2.08941 16.2782 0.835838 16.9433 0.308544 17.9664C0.101836 18.3662 -0.00419581 18.8129 0.000127077 19.2658C0.00175934 19.7158 0.111098 20.1586 0.318493 20.5549C0.855736 21.578 2.1093 22.2328 4.02945 22.6012C4.91586 22.7796 5.81356 22.8924 6.71566 22.9388C7.01413 22.9388 7.32255 22.9593 7.64092 23.0002C8.14831 23.0002 8.63581 23.0002 9.1631 23.0002C10.0088 23.0002 10.8445 23.0002 11.6802 22.9081C12.5823 22.8553 13.4798 22.739 14.3664 22.5602C16.3562 22.2124 17.56 21.5371 18.0973 20.514C18.5008 19.7155 18.5008 18.7649 18.0973 17.9664Z" fill="#80C342"/>
</svg>
