<svg width="20" height="20" viewBox="0 0 20 20" fill="none" xmlns="http://www.w3.org/2000/svg">
<path d="M8.02353 15.9851C6.92863 15.9851 6.0161 16.8748 6.0161 17.9926C6.0161 19.1104 6.90574 20 8.02353 20C9.11843 20 10.031 19.1104 10.031 17.9926C10.031 16.8748 9.11843 15.9851 8.02353 15.9851ZM15.5056 15.9851C14.4107 15.9851 13.4982 16.8748 13.4982 17.9926C13.4982 19.1104 14.3878 20 15.5056 20C16.6005 20 17.5131 19.1104 17.5131 17.9926C17.5131 16.8748 16.6234 15.9851 15.5056 15.9851ZM18.5625 10.7841L19.6803 6.17626C19.6803 5.62875 19.2241 5.1498 18.6538 5.12686L5.30919 3.94063L4.78457 1.84199C4.71615 1.5454 4.48797 1.29448 4.21429 1.20328L1.27171 0.0627103C0.792591 -0.119801 0.245241 0.108378 0.0627102 0.58733C-0.119801 1.06645 0.108378 1.6138 0.58733 1.79633L3.07372 2.7544L6.03923 14.7075C6.15332 15.1181 6.51835 15.4146 6.9516 15.4146H17.4904C18.015 15.4146 18.4257 15.0041 18.4257 14.4793C18.4257 13.9547 18.0152 13.544 17.4904 13.544H7.68157L7.45339 12.6317L17.536 11.8105C18.1063 11.8106 18.5626 11.3315 18.5626 10.7841H18.5625Z" fill="#80C342"/>
</svg>
