<svg width="15" height="18" viewBox="0 0 15 18" fill="none" xmlns="http://www.w3.org/2000/svg">
<path d="M7.41771 17.5002C8.37392 17.5002 9.18145 16.884 9.43642 16.0127H5.39893C5.65388 16.884 6.46142 17.5002 7.41763 17.5002H7.41771Z" fill="#80C342"/>
<path d="M1.68026 15.1625C1.68026 15.1625 5.31407 15.1413 5.31407 15.1625C5.31407 15.1625 9.54282 15.1837 9.54282 15.1625H13.1553C13.6653 15.1625 14.2178 14.3975 14.2178 14.3975C14.2178 14.3975 13.219 13.0587 12.9427 12.8887V8.36244C12.9427 5.55737 11.3064 3.19871 8.7777 2.58246C8.86264 2.39124 8.90518 2.20003 8.90518 1.98746C8.90518 1.15871 8.24647 0.5 7.41772 0.5C6.58897 0.5 5.93026 1.15871 5.93026 1.98746C5.93026 2.20002 5.9728 2.39125 6.05774 2.58246C3.52896 3.19878 1.89275 5.55753 1.89275 8.36244V12.9099C1.61645 13.08 0.617676 14.4188 0.617676 14.4188C0.617824 14.4188 1.17025 15.1624 1.68033 15.1624L1.68026 15.1625Z" fill="#80C342"/>
</svg>
