<svg width="30" height="35" viewBox="0 0 30 35" fill="none" xmlns="http://www.w3.org/2000/svg">
<g clip-path="url(#clip0_211_1775)">
<path d="M5.46773 34.981C4.05764 34.981 2.64662 34.981 1.23654 34.9991C0.997781 34.9991 0.981863 34.8923 0.97999 34.6867C0.959392 32.6231 1.57829 30.7832 2.68876 29.1277C4.12506 26.9874 6.0679 25.5314 8.26729 24.4392C8.81222 24.1681 9.35528 23.8799 9.95265 23.752C9.94141 24.8936 9.90209 26.0362 10.2335 27.1446C10.5056 27.9743 10.9647 28.7183 11.5697 29.31C12.8505 30.5726 14.3533 31.0119 16.0452 30.6502C17.1662 30.413 18.1724 29.7548 18.8841 28.7931C19.2465 28.3185 19.6201 27.8187 19.695 27.1638C19.7886 27.063 19.7998 26.923 19.8354 26.795C20.1116 25.7974 20.033 24.7717 20.0405 23.753C20.7399 23.9112 21.3738 24.2568 22.0067 24.5822C24.1789 25.7078 26.0834 27.2021 27.4598 29.3725C28.4663 30.9605 29.0187 32.7098 29.0141 34.6495C29.0141 34.9346 28.9429 35.0031 28.6835 35.0001C27.2969 34.982 25.9092 34.985 24.5226 34.981C24.5226 34.2061 24.5226 33.4312 24.5226 32.6564C24.5226 32.2342 24.3194 31.9883 23.9814 31.9782C23.6265 31.9672 23.4065 32.2191 23.4046 32.6564C23.4046 33.4312 23.4046 34.2061 23.4046 34.981C23.3232 34.981 23.2426 34.9931 23.1612 34.9931H6.83099C6.74953 34.9931 6.66808 34.985 6.58662 34.981C6.58662 34.2061 6.58662 33.4312 6.58662 32.6564C6.58662 32.2342 6.3825 31.9883 6.04449 31.9782C5.68963 31.9672 5.4696 32.2191 5.46773 32.6564C5.46398 33.4363 5.46773 34.2061 5.46773 34.981Z" fill="#1DA4AB"/>
<path d="M6.60071 7.80621C6.60071 6.12347 6.58385 4.43972 6.59415 2.75698C6.59415 2.20278 6.87505 1.80578 7.3535 1.59821C11.398 -0.155976 15.8576 -0.473711 20.0817 0.69134C20.9405 0.925231 21.7835 1.22148 22.6051 1.57805C23.0976 1.79167 23.3906 2.18263 23.3944 2.75295C23.4075 4.43569 23.3944 6.11944 23.3944 7.80218C23.2333 8.20523 23.0095 8.52969 22.6069 8.69897C21.3604 9.22256 20.072 9.62224 18.7578 9.89301C17.9572 10.0583 17.1464 10.1248 16.3402 10.2427C14.5029 10.3364 12.6617 10.1953 10.8553 9.82247C9.73444 9.55027 8.6318 9.19748 7.55481 8.76648C7.09976 8.58108 6.77673 8.28987 6.60071 7.80621ZM15.0013 2.42144C14.8608 2.42144 14.7204 2.42144 14.5818 2.42144C14.1801 2.43252 14.0107 2.61087 14.0004 3.04012C13.9872 3.2414 13.9872 3.44343 14.0004 3.6447C14.0341 3.96513 13.9451 4.11325 13.6212 4.07093C13.4121 4.05229 13.202 4.05229 12.9929 4.07093C12.6558 4.08806 12.4845 4.27245 12.4732 4.64024C12.4629 4.9657 12.4648 5.29217 12.4732 5.61865C12.4826 6.00356 12.6605 6.18594 13.0116 6.21113C13.3225 6.23229 13.7232 6.06906 13.9236 6.27864C14.1408 6.50637 13.9713 6.94569 13.9985 7.29131C14.0256 7.63693 14.1923 7.83442 14.5303 7.85256C14.6698 7.85961 14.8112 7.85256 14.9498 7.85256C15.9722 7.85256 15.9891 7.83442 15.9891 6.74417C15.9891 6.21013 15.9891 6.21013 16.4694 6.21013C16.6323 6.21013 16.7962 6.21013 16.9591 6.21013C17.3636 6.194 17.5078 5.99651 17.5209 5.48665C17.5424 4.29764 17.5303 4.14146 16.9769 4.07597C16.8721 4.06941 16.7671 4.06941 16.6623 4.07597C15.9938 4.07597 15.9938 4.07597 15.9928 3.37063C15.9928 2.51918 15.9123 2.43454 15.109 2.43454L15.0013 2.42144Z" fill="#1DA4AB"/>
<path d="M12.2061 20.8489C11.1349 20.211 10.2529 19.3606 9.6406 18.2059C9.22669 17.4316 8.96474 16.5743 8.87095 15.6868C8.85878 15.3845 8.8466 15.0822 8.8335 14.785C10.6805 14.1522 12.5282 13.5197 14.3765 12.8876C14.7556 12.7523 15.1642 12.7459 15.5468 12.8695C17.4195 13.4982 19.2865 14.1431 21.1553 14.784L21.116 15.6908C20.8351 17.9147 19.7799 19.5783 17.9915 20.7139L17.7827 20.8479C17.7181 20.8761 17.6526 20.9013 17.5889 20.9315C16.6028 21.4143 15.5175 21.6145 14.4382 21.5129C13.6508 21.4393 12.9214 21.1804 12.2061 20.8489Z" fill="#1DA4AB"/>
<path d="M20.0369 23.753C20.0294 24.7718 20.1081 25.7975 19.8319 26.7951C19.7963 26.923 19.7879 27.0631 19.6914 27.1639C19.5397 27.1639 19.3881 27.1528 19.2364 27.1528L10.2347 27.1447C9.9023 26.0363 9.94162 24.8937 9.9538 23.752C10.2955 23.6069 10.6476 23.485 10.9762 23.3097C11.4772 23.0427 11.7487 22.5479 11.9762 22.0229C13.9893 23.0044 16.0024 23.0044 18.0154 22.0229C18.3225 22.8563 18.8843 23.3792 19.6877 23.6029C19.8072 23.6442 19.9239 23.6944 20.0369 23.753Z" fill="#F7CEBF"/>
<path d="M16.3374 10.2437C17.1436 10.1258 17.9544 10.0593 18.755 9.89405C20.0692 9.62329 21.3576 9.22361 22.6041 8.70002C23.0067 8.53073 23.2305 8.20527 23.3916 7.80322V13.2666L21.1688 12.4282C19.5536 11.7118 17.9319 11.0125 16.3374 10.2437Z" fill="#424243"/>
<path d="M6.60059 7.80664C6.77661 8.2903 7.09964 8.58151 7.55375 8.76691C8.63011 9.19817 9.73212 9.55129 10.8524 9.82391L8.81402 11.5097L6.60059 13.2569V7.80664Z" fill="#434244"/>
<path d="M18.0143 22.0225C16.0012 23.0019 13.9882 23.0019 11.9751 22.0225C12.0519 21.6316 12.129 21.2403 12.2064 20.8486C12.9217 21.1801 13.6511 21.4391 14.4385 21.5137C15.5178 21.6153 16.6031 21.415 17.5892 20.9323C17.6529 20.902 17.7184 20.8768 17.783 20.8486C17.8598 21.2409 17.9369 21.6322 18.0143 22.0225Z" fill="#F4A891"/>
<path d="M6.6008 13.2565L8.81424 11.5093L8.8339 14.7901C8.84701 15.0924 8.85918 15.3947 8.87135 15.6919C7.5549 15.6718 6.54555 14.5876 6.6008 13.2565Z" fill="#F5A790"/>
<path d="M21.1686 12.4282L23.3914 13.2666C23.4289 14.6047 22.4252 15.6748 21.1162 15.6919L21.1555 14.7851C21.1605 14.0005 21.1649 13.2148 21.1686 12.4282Z" fill="#F5A790"/>
<path d="M5.46777 34.9806C5.46777 34.2058 5.46777 33.4309 5.46777 32.656C5.46777 32.2187 5.68968 31.9668 6.04454 31.9779C6.38255 31.988 6.58479 32.2338 6.58666 32.656C6.58666 33.4309 6.58666 34.2058 6.58666 34.9806H5.46777Z" fill="#189392"/>
<path d="M23.4019 34.9806C23.4019 34.2058 23.4019 33.4309 23.4019 32.656C23.4019 32.2187 23.6238 31.9668 23.9786 31.9779C24.3166 31.988 24.5179 32.2338 24.5198 32.656C24.5198 33.4309 24.5198 34.2058 24.5198 34.9806H23.4019Z" fill="#189392"/>
<path d="M10.2344 27.145L19.2361 27.1531C19.3877 27.1531 19.5394 27.1601 19.6911 27.1642C19.6162 27.8191 19.2426 28.3189 18.8803 28.7935C18.1697 29.7542 17.1653 30.4123 16.0461 30.6506C14.3541 31.0123 12.8514 30.573 11.5705 29.3104C10.9655 28.7187 10.5064 27.9747 10.2344 27.145Z" fill="#189392"/>
<path d="M21.1686 12.4275C21.1642 13.2148 21.1598 14.0014 21.1555 14.7874C19.2829 14.1475 17.4196 13.5026 15.547 12.8729C15.1644 12.7494 14.7557 12.7557 14.3766 12.891C12.5283 13.5211 10.6807 14.1536 8.83363 14.7884L8.81396 11.5075L10.8523 9.82178C12.6588 10.1946 14.4999 10.3357 16.3372 10.242C17.9318 11.0118 19.5534 11.7111 21.1686 12.4275Z" fill="#F6CDBF"/>
<path d="M15.0011 2.4213H15.1059C15.9093 2.4213 15.9898 2.50594 15.9898 3.35739C15.9898 4.06273 15.9898 4.06273 16.6593 4.06273C16.764 4.05617 16.8691 4.05617 16.9739 4.06273C17.5272 4.13326 17.5356 4.28945 17.5179 5.47341C17.5085 5.98327 17.3643 6.17875 16.9561 6.19689C16.7932 6.20394 16.6293 6.19689 16.4664 6.19689C15.987 6.19689 15.987 6.19689 15.9861 6.73093C15.9861 7.82119 15.9692 7.83932 14.9467 7.83932C14.8072 7.83932 14.6659 7.84537 14.5273 7.83932C14.1893 7.82119 14.0235 7.6378 13.9955 7.27807C13.9674 6.91835 14.1378 6.49313 13.9206 6.26541C13.7202 6.05582 13.3194 6.21905 13.0086 6.19789C12.6547 6.1727 12.4796 5.99032 12.4702 5.60541C12.4627 5.27894 12.4608 4.95247 12.4702 4.627C12.4814 4.26022 12.6528 4.07482 12.9899 4.05769C13.1989 4.03905 13.4091 4.03905 13.6181 4.05769C13.9421 4.10001 14.031 3.95189 13.9973 3.63146C13.9841 3.43019 13.9841 3.22816 13.9973 3.02689C14.0076 2.59764 14.1771 2.42231 14.5788 2.4082C14.7211 2.41828 14.8578 2.4213 15.0011 2.4213Z" fill="#FEFFFF"/>
</g>
<defs>
<clipPath id="clip0_211_1775">
<rect width="28.0331" height="35" fill="white" transform="translate(0.979004)"/>
</clipPath>
</defs>
</svg>
