<svg width="30" height="35" viewBox="0 0 30 35" fill="none" xmlns="http://www.w3.org/2000/svg">
<g clip-path="url(#clip0_1967_2632)">
<path d="M28.6399 23.3934C28.7317 24.2414 28.9198 25.0669 29.0581 25.9036C29.1852 26.6725 29.369 27.4234 29.5596 28.1782C29.892 29.4973 28.9585 30.4 27.8189 30.1767C26.9686 30.0109 26.1726 29.6886 25.3919 29.3042C25.3309 29.274 25.264 29.1854 25.1918 29.2703C25.1411 29.3315 25.197 29.4012 25.209 29.4681C25.5205 31.2104 25.9117 32.9344 26.3812 34.6336C26.456 34.9059 26.4388 35.002 26.1476 34.9992C24.528 34.985 22.9083 34.9897 21.2878 34.9878C21.3324 33.1033 21.3547 31.2188 21.4595 29.3343L21.4784 29.3192L21.4587 29.3051L21.438 29.1459C21.5437 28.8962 21.4758 28.6286 21.5024 28.3713H23.6331C23.5837 28.2681 23.5075 28.1831 23.4141 28.1273C22.4342 27.4771 21.493 26.7639 20.5664 26.0261C20.3826 25.881 20.3319 25.7481 20.459 25.5427C20.7922 24.819 21.1529 24.1086 21.438 23.3586C21.5308 23.1701 21.6364 23.1531 21.8159 23.2577C22.454 23.6346 23.1041 23.9814 23.749 24.3404C23.8349 24.4016 23.9337 24.4977 23.9088 24.2678C23.8882 24.0794 23.8641 23.8975 23.8444 23.7119C23.7224 22.6095 23.601 21.5073 23.4802 20.4055C23.6898 20.1389 23.8186 19.8204 23.9603 19.5104C23.9875 19.4604 24.0013 19.4031 24.0001 19.3449C23.9988 19.2867 23.9827 19.2301 23.9534 19.1815C23.8598 19.0138 23.8023 18.8141 23.6881 18.6671C23.4923 18.4164 23.5017 18.0132 23.1805 17.8624C23.1342 17.7399 23.1805 17.5741 23.0405 17.494C23.0453 17.4141 23.0246 17.3348 22.9821 17.2697C22.8533 17.0813 23.0028 17.101 23.1024 17.0869C23.7989 17.2038 24.4953 17.3253 25.1918 17.4384C26.9094 17.7211 27.8249 18.7076 28.1306 20.5761C28.2835 21.5174 28.4217 22.4644 28.6399 23.3934ZM24.6516 24.1953C24.6516 24.3347 24.6516 24.4779 24.6516 24.6136C24.6516 24.7493 24.6516 24.885 24.7993 24.9604C25.0879 25.1074 25.3696 25.2713 25.6581 25.424C25.7964 25.4975 25.8926 25.505 25.8299 25.276C25.7337 24.9462 25.6487 24.6118 25.5585 24.2791C25.3412 23.4594 25.124 22.6387 24.8852 21.7351C24.7324 22.6132 24.5864 23.3934 24.6516 24.1953V24.1953Z" fill="#EDF2F4"/>
<path d="M15.0528 8.72805C14.6981 7.48805 14.8518 6.26689 15.2151 5.07305C16.2276 1.75255 19.1578 -0.30627 22.3517 0.0348255C25.3119 0.35048 27.9492 3.12259 28.3864 6.35358C28.5472 7.51564 28.4784 8.70206 28.1846 9.83237C27.9029 9.42909 27.6186 9.0324 27.0896 9.04088C27.1051 8.83453 27.0398 8.71863 26.832 8.75821C26.8302 8.70629 26.8122 8.65663 26.7809 8.61765C26.7496 8.57867 26.7069 8.55276 26.6602 8.54431C26.2257 8.40863 25.7954 8.25504 25.3634 8.10899C24.8121 7.43057 24.1087 7.08948 23.2955 6.99713C23.2903 6.97936 23.2869 6.96104 23.2852 6.94248C23.4097 6.79832 23.5634 6.84826 23.7034 6.88312C23.8296 6.91045 23.9971 6.99054 24.028 6.81434C24.0589 6.63814 23.8674 6.59856 23.7352 6.5816C23.5883 6.56276 23.4372 6.5816 23.2886 6.57406C23.1005 6.56181 22.9039 6.62966 22.7269 6.50622C22.6396 6.44062 22.5556 6.36984 22.4753 6.29421C21.4697 5.2502 20.7303 3.9904 20.0707 2.67031C19.9453 2.41967 19.8277 2.38763 19.5941 2.48186C17.685 3.26487 16.5488 4.7753 16.0782 6.92081C15.5028 7.36367 15.2014 7.99498 15.0528 8.72805Z" fill="#0D3038"/>
<path d="M23.7474 24.3394C23.1024 23.9804 22.4523 23.6309 21.8142 23.2568C21.6348 23.1522 21.5291 23.171 21.4364 23.3576C21.4286 23.2172 21.4304 23.0749 21.4115 22.9355C21.3754 22.6584 21.3591 22.3701 21.177 22.1459C21.1351 22.0838 21.0758 22.0385 21.0082 22.0167C20.9407 21.9949 20.8685 21.9979 20.8026 22.0252C20.6686 22.0799 20.709 22.2184 20.7107 22.3315C20.7107 22.4719 20.7262 22.6142 20.7262 22.7536C20.7262 22.8412 20.7596 22.9581 20.648 22.9929C20.5621 23.0203 20.5192 22.926 20.4762 22.862C20.2598 22.5407 20.0417 22.2203 19.833 21.8933C19.7403 21.7482 19.6406 21.6333 19.4663 21.6738C19.292 21.7143 19.3212 21.9056 19.2885 22.045C18.9132 21.8717 18.8274 21.9508 18.8755 22.4219L18.8463 22.4512C18.7406 22.3908 18.6376 22.34 18.5388 22.4709C18.4581 22.5784 18.4821 22.6792 18.5319 22.7894C18.5629 22.8582 18.6178 22.9232 18.5921 23.0118L18.5972 23.0061C18.5113 22.9713 18.4255 22.877 18.3396 22.9807C18.2537 23.0843 18.3198 23.1823 18.3525 23.2747C18.4511 23.5328 18.5849 23.773 18.7492 23.987C19.219 24.6381 19.8356 25.0951 20.4599 25.5417C20.3328 25.7472 20.3835 25.88 20.5673 26.0251C21.4939 26.7629 22.4351 27.4762 23.415 28.1263C23.5084 28.1822 23.5846 28.2671 23.634 28.3704H16.6658C16.245 28.4514 16.2536 28.1197 16.2184 27.8201C16.0861 26.6825 15.951 25.5455 15.813 24.4092C15.8037 24.3637 15.7899 24.3194 15.7718 24.2772C15.6747 23.4075 15.5854 22.536 15.4764 21.6681C15.4051 21.1028 15.3733 20.529 15.2471 19.9721C15.2471 19.8779 15.2471 19.7902 15.2471 19.6998C16.9647 19.7042 18.6797 19.7095 20.3921 19.7158C20.934 19.7158 20.9434 19.7224 20.9022 19.1156C20.8661 18.5992 20.8558 18.0876 20.9769 17.5825C21.5334 17.5825 22.0933 17.591 22.6455 17.5825C22.8757 17.5769 23.0148 17.6155 22.9891 17.9208C22.9753 18.0659 23.0286 18.2185 23.0457 18.3684C23.16 19.3596 23.269 20.3518 23.3893 21.3421C23.5095 22.3324 23.6237 23.3388 23.7474 24.3394Z" fill="#4C8AB1"/>
<path d="M15.2443 19.9707C15.3705 20.5286 15.4023 21.1014 15.4736 21.6668C15.5826 22.5346 15.6719 23.4062 15.769 24.2759C15.2374 24.5435 14.7092 24.8215 14.1725 25.0768C13.3515 25.4704 12.4843 25.7356 11.5961 25.8645C11.0808 25.938 10.5699 25.71 10.0821 25.4999C7.94455 24.5812 5.97791 23.3054 4.01472 22.022C3.95238 21.9766 3.88756 21.9354 3.82063 21.8986C3.61023 21.7968 3.50975 21.6423 3.59563 21.386C3.89707 20.9196 4.08171 20.3872 4.29297 19.8727C4.37885 19.6617 4.56778 19.4742 4.49822 19.2009C4.69402 18.9842 4.87694 19.052 5.10452 19.1745C7.05741 20.2223 9.01717 21.255 10.9752 22.2896C11.1873 22.4018 11.4046 22.4979 11.6193 22.6072C11.666 22.6371 11.7183 22.6549 11.7722 22.659C11.8262 22.663 11.8802 22.6534 11.9302 22.6307C12.5145 22.3209 13.0679 21.9454 13.5816 21.5104C13.6675 21.5217 13.7191 21.4595 13.7817 21.4162C14.3461 21.0371 14.8419 20.5471 15.2443 19.9707V19.9707Z" fill="#EDF2F4"/>
<path d="M27.0899 9.0431C27.6189 9.03462 27.9032 9.43131 28.1849 9.83459C28.2699 10.1192 28.2864 10.4231 28.2329 10.7168C28.1793 11.0105 28.0574 11.2841 27.8791 11.5109C27.4961 11.7577 27.0942 11.9603 26.6399 11.8482C26.4209 11.7935 26.347 11.8727 26.2612 12.0706C25.5664 13.6592 24.4328 14.6957 22.9042 15.2299C22.7324 15.2884 22.5486 15.2884 22.3889 15.3995C21.5573 15.5008 20.718 15.5008 19.8864 15.3995C19.5282 15.2591 19.1573 15.147 18.8129 14.9727C17.2868 14.2001 16.3396 12.9139 16.0063 11.0991C16.3825 11.2235 16.7337 11.41 17.1331 11.4817C18.0778 11.6513 19.5849 11.0963 19.9276 9.63578C20.0255 9.21648 20.3072 9.46052 20.503 9.42189C20.6988 9.38325 20.7134 9.56134 20.7151 9.72624C20.7239 10.0565 20.817 10.3774 20.9839 10.6525C21.5851 11.6965 22.4679 12.0932 23.5731 12.0253C24.7755 11.9509 25.8842 10.8456 25.806 9.57076C25.7974 9.43791 25.8283 9.34745 25.9632 9.31541C26.3393 9.22119 26.7009 9.06195 27.0899 9.0431ZM20.442 12.7179C20.5538 12.7362 20.6677 12.7302 20.7774 12.7001C20.887 12.6701 20.9902 12.6165 21.0809 12.5426C21.1763 12.4625 21.2527 12.3495 21.2158 12.211C21.1788 12.0724 21.0526 12.0838 20.947 12.0866C20.6035 12.0941 20.2659 12.096 19.9336 11.9792C19.8099 11.9349 19.6425 11.852 19.5738 12.0489C19.5507 12.1286 19.5532 12.2146 19.5811 12.2925C19.6089 12.3704 19.6603 12.4354 19.7266 12.4767C19.9405 12.6378 20.1723 12.7575 20.442 12.7169V12.7179ZM20.722 10.431C20.7082 10.1851 20.5992 9.99384 20.3639 9.98159C20.1105 9.96839 20.235 10.2124 20.2058 10.3481C20.1861 10.4423 20.1861 10.5366 20.1629 10.6223C20.0985 10.8786 20.2282 10.9144 20.4042 10.8692C20.6043 10.8164 20.7048 10.66 20.722 10.4301V10.431Z" fill="#F8C0AF"/>
<path d="M22.3887 15.3952C22.5441 15.284 22.7322 15.284 22.9039 15.2256C24.4335 14.6951 25.5662 13.6586 26.2618 12.07C26.3477 11.8721 26.4216 11.7929 26.6405 11.8476C27.0948 11.9597 27.4993 11.7534 27.8798 11.5103C27.9476 13.1743 28.4483 14.7045 29.0632 16.2074C29.9924 18.4792 29.9701 20.7387 28.9086 22.9615C28.8445 23.1223 28.7536 23.2687 28.6407 23.393C28.4225 22.464 28.2843 21.517 28.1254 20.5747C27.8197 18.7062 26.9051 17.7159 25.1866 17.437C24.4901 17.324 23.7937 17.2024 23.0972 17.0856C22.9125 16.9866 22.7047 17.0177 22.5141 16.9565C22.4746 16.4332 22.4328 15.9128 22.3887 15.3952Z" fill="#0D3038"/>
<path d="M16.0097 11.0943C16.3429 12.9091 17.2901 14.1953 18.8162 14.9679C19.1597 15.1422 19.5316 15.2506 19.8897 15.3947L19.949 16.8694C19.8742 16.8694 19.7995 16.8779 19.7248 16.8769C18.2391 16.8562 16.7531 16.8351 15.2668 16.8138C15.1329 16.8138 14.9963 16.778 14.8812 16.9165C14.5102 17.3631 14.2595 17.8682 14.2517 18.4835C14.2466 18.8764 14.3213 19.2655 14.5446 19.5746C14.7164 19.8158 15.0126 19.6179 15.2411 19.698C15.2411 19.7922 15.2411 19.8789 15.2411 19.9703C14.8383 20.5475 14.3419 21.0382 13.7768 21.4176C13.7141 21.46 13.66 21.5222 13.5767 21.5119C12.8622 18.834 13.6961 16.5452 15.1329 14.4544C15.746 13.5621 15.9238 12.6076 15.8568 11.5522C15.8431 11.3459 15.8663 11.1282 15.7804 10.9304C15.9135 10.8955 15.9479 11.0199 16.0097 11.0943Z" fill="#0D3038"/>
<path d="M1.21861 19.6223C0.535869 19.0061 0.199225 18.1873 0.0291844 17.2554C-0.168337 16.1765 0.680147 14.9139 1.7648 15.1127C1.86051 15.1221 1.95679 15.1221 2.05249 15.1127C2.12206 15.1928 2.18732 15.1966 2.24658 15.0995C2.3608 15.0694 2.47588 15.0468 2.5901 15.0053C3.60776 14.6557 4.55071 15.3257 4.69327 16.4959C4.79805 17.3506 4.63831 18.1505 4.29222 18.9138C3.99594 19.3953 3.60519 19.6892 3.0547 19.7119C2.79105 19.7222 2.52912 19.7957 2.26547 19.8268C1.92196 19.8673 1.58274 19.8824 1.28216 19.645L1.21431 19.6167L1.21861 19.6223ZM4.23468 16.4347C4.15883 16.0298 3.94584 15.6715 3.63868 15.4321C3.5908 15.3919 3.53075 15.3732 3.47076 15.3799C3.41077 15.3865 3.35535 15.418 3.31577 15.4679C3.22989 15.5697 3.31062 15.6564 3.35785 15.7506C3.49612 16.0258 3.67561 16.2764 3.75547 16.5873C3.7924 16.7315 3.87914 16.8455 4.03887 16.7937C4.17714 16.7475 4.24412 16.6326 4.23468 16.4347ZM4.36264 17.3685C4.36563 17.3389 4.36221 17.309 4.35266 17.2812C4.34311 17.2534 4.3277 17.2285 4.30768 17.2084C4.28767 17.1884 4.26362 17.1738 4.2375 17.166C4.21138 17.1581 4.18392 17.1571 4.15739 17.1631C4.12784 17.1624 4.09847 17.1682 4.07095 17.18C4.04343 17.1919 4.01831 17.2095 3.99702 17.232C3.97572 17.2545 3.95868 17.2814 3.94685 17.3111C3.93502 17.3408 3.92865 17.3728 3.92809 17.4052C3.92809 17.5324 4.01397 17.5767 4.12561 17.5795C4.26044 17.5852 4.35405 17.5353 4.36264 17.3685V17.3685Z" fill="#8CBA40"/>
<path d="M16.6633 28.3691H18.7819C18.7673 28.6518 18.7536 28.927 18.739 29.2059C18.7004 30.4138 18.6926 31.6227 18.7502 32.8298C18.7837 33.5544 18.8223 34.2818 18.9872 34.9913C18.003 34.9913 17.0186 34.9913 16.0338 34.9913C15.6903 34.9913 15.6602 34.9461 15.7255 34.5899C16.0424 32.8458 16.3524 31.1036 16.5422 29.3331C16.574 29.0118 16.6221 28.6914 16.6633 28.3691Z" fill="#EDF2F4"/>
<path d="M18.9843 34.9924C18.8194 34.2828 18.7807 33.5554 18.7472 32.8308C18.6897 31.6238 18.6974 30.4149 18.7361 29.2069C19.6352 29.1513 20.5352 29.141 21.4361 29.1447L21.4567 29.303L21.4464 29.3181L21.4576 29.3332C21.3545 31.2177 21.3322 33.1022 21.2858 34.9867L18.9843 34.9924Z" fill="#404551"/>
<path d="M16.0094 11.0941C15.9459 11.0196 15.9132 10.8952 15.7836 10.9292C15.4727 10.4854 15.1609 10.0444 15.0794 9.46396C15.045 9.21803 15.0656 8.97398 15.0527 8.72994C15.2013 7.99498 15.5027 7.36367 16.0833 6.92364C16.5264 6.60139 17.0116 6.48832 17.5432 6.50151C18.7756 6.5326 19.8096 7.48145 20.0028 8.80815C20.0268 8.97398 20.0028 9.15395 20.2347 9.12003C20.4339 9.09082 20.6898 9.24724 20.7757 8.87034C20.8517 8.53943 21.001 8.23421 21.2103 7.98179C21.7685 7.29677 22.4881 7.03954 23.2988 7.00279C24.1121 7.09702 24.8155 7.43623 25.3668 8.11465C25.5532 8.40486 25.5824 8.91556 25.8529 8.99848C26.1234 9.0814 26.5021 8.85526 26.8319 8.76386C27.0406 8.72052 27.1059 8.83642 27.0895 9.04654C26.7005 9.06538 26.3398 9.22462 25.9654 9.31414C25.8306 9.34617 25.7996 9.43663 25.8082 9.56949C25.8872 10.8444 24.7777 11.9496 23.5754 12.0241C22.4701 12.0919 21.5881 11.6952 20.9861 10.6512C20.8192 10.3762 20.7261 10.0552 20.7173 9.72496C20.7173 9.56006 20.6976 9.38198 20.5052 9.42061C20.3128 9.45924 20.0277 9.2152 19.9298 9.6345C19.5863 11.095 18.0791 11.65 17.1353 11.4804C16.7368 11.405 16.3856 11.2184 16.0094 11.0941ZM15.9579 7.4334C15.8196 7.51349 15.7492 7.66237 15.6685 7.79523C15.13 8.69131 15.2322 9.9266 15.8892 10.5278C15.9321 10.623 16.002 10.7004 16.0884 10.7482C16.6896 11.177 17.338 11.3409 18.0422 11.16C18.8357 10.9555 19.4248 10.4741 19.6644 9.59022C19.904 8.70638 19.606 8.00723 19.0118 7.42303C18.1641 6.59762 16.7102 6.53543 15.9579 7.4334ZM23.2525 7.34765C22.9294 7.32418 22.6054 7.3772 22.3026 7.50313C21.0411 8.03361 20.5696 9.5252 21.3382 10.7068C22.0356 11.781 23.5848 12.0853 24.654 11.3287C25.5927 10.6691 25.8314 9.42344 25.2002 8.41711C24.733 7.67085 24.0511 7.37121 23.2525 7.34765Z" fill="#ECE9E8"/>
<path d="M1.27968 19.6467C1.58026 19.8842 1.92119 19.8691 2.26299 19.8286C2.52664 19.7975 2.78857 19.724 3.05222 19.7136C3.60271 19.691 3.99689 19.397 4.28974 18.9155C4.35157 19.0173 4.38249 19.1454 4.49671 19.1982C4.56627 19.4715 4.37819 19.659 4.29146 19.87C4.08019 20.3845 3.89555 20.9169 3.59412 21.3833C2.8693 21.046 2.12731 20.8104 1.32691 20.9319C1.18521 20.9536 1.05725 20.9385 1.02118 20.768C0.968797 20.5211 1.17748 20.5032 1.33378 20.4071C1.15429 20.2375 0.93788 20.2432 0.743793 20.1866C0.651903 20.1602 0.555718 20.1518 0.46211 20.132C0.33415 20.1047 0.233673 20.0378 0.249132 19.8766C0.25398 19.8049 0.284337 19.7381 0.333658 19.6907C0.38298 19.6433 0.447311 19.619 0.512778 19.6232C0.748087 19.6137 0.983396 19.6232 1.2187 19.6232H1.21183C1.21956 19.6712 1.24275 19.6788 1.27968 19.6467Z" fill="#F8C0AF"/>
<path d="M2.0223 14.7914C1.46581 15.2268 0.834595 15.0967 0.467892 14.489C0.354531 14.3005 0.372565 14.2063 0.569228 14.1403C0.740374 14.0737 0.923428 14.0523 1.10353 14.0778C1.28363 14.1034 1.45571 14.1751 1.60579 14.2873C1.67793 14.3392 1.71829 14.5116 1.85656 14.4061V14.4004C1.77068 14.4946 1.84367 14.5163 1.90894 14.5417L2.0223 14.7914Z" fill="#53A34B"/>
<path d="M2.02221 14.7919L1.9097 14.5459C1.9097 14.4903 1.95608 14.4159 1.85732 14.4046V14.4103C1.85732 14.3782 1.85732 14.3452 1.85732 14.316C1.84873 14.2162 1.6263 14.137 1.8264 14.0192C2.0265 13.9014 2.06257 14.0767 2.11581 14.2171C2.22316 14.4998 2.2369 14.8013 2.24635 15.1019C2.18709 15.1961 2.12183 15.1961 2.05226 15.1151C2.04196 15.0058 2.03509 14.8993 2.02221 14.7919Z" fill="#404551"/>
<path d="M20.4572 25.5416C19.8329 25.095 19.2162 24.638 18.7465 23.9869C18.5821 23.7728 18.4484 23.5327 18.3497 23.2745C18.3171 23.1803 18.2518 23.0767 18.3368 22.9806C18.4219 22.8844 18.5086 22.9711 18.5945 23.006C18.6057 23.022 18.5945 23.088 18.6391 23.0286L18.5893 23.0117C18.6151 22.9231 18.5601 22.8581 18.5292 22.7893C18.4794 22.679 18.4554 22.5782 18.5361 22.4708C18.6348 22.3398 18.7379 22.3907 18.8435 22.451C18.8581 22.4868 18.8719 22.5217 18.8865 22.5565C18.9328 22.5057 18.9088 22.4623 18.8727 22.4218C18.8246 21.9507 18.9105 21.8715 19.2858 22.0449C19.3184 21.9054 19.2789 21.717 19.4636 21.6737C19.6482 21.6303 19.7375 21.7481 19.8303 21.8932C20.039 22.2202 20.2597 22.5405 20.4735 22.8618C20.5165 22.9259 20.5594 23.0201 20.6453 22.9928C20.7569 22.9579 20.7234 22.8411 20.7234 22.7535C20.7234 22.6121 20.7105 22.4708 20.708 22.3313C20.708 22.2183 20.6659 22.0798 20.7999 22.0251C20.8657 21.9978 20.9379 21.9948 21.0055 22.0166C21.0731 22.0383 21.1323 22.0837 21.1743 22.1457C21.3564 22.3728 21.3727 22.6583 21.4087 22.9353C21.4276 23.0748 21.4259 23.218 21.4336 23.3575C21.1511 24.1075 20.7904 24.818 20.4572 25.5416Z" fill="#F8C0AF"/>
<path d="M21.4364 29.1446C20.5355 29.1446 19.6329 29.1512 18.7363 29.2068C18.7509 28.9242 18.7647 28.649 18.7793 28.3701H21.5008C21.4742 28.6274 21.542 28.8921 21.4364 29.1446Z" fill="#51B8AF"/>
<path d="M23.7473 24.3392C23.6237 23.3386 23.4966 22.3379 23.3772 21.3363C23.2578 20.3347 23.1505 19.3575 23.0337 18.3625C23.0165 18.2127 22.9632 18.0601 22.977 17.9149C23.0062 17.6097 22.8671 17.571 22.6335 17.5767C22.0778 17.5889 21.5213 17.5767 20.9648 17.5767C20.9648 17.5522 20.97 17.5286 20.9717 17.5041L22.2006 17.4834C22.214 17.4881 22.2279 17.4909 22.2419 17.4919H22.7211H23.0328C23.1737 17.572 23.1264 17.7378 23.1728 17.8603C23.2415 18.7083 23.3394 19.5564 23.4725 20.4044C23.5939 21.5062 23.7153 22.6083 23.8366 23.7108C23.8564 23.8992 23.8804 24.0811 23.901 24.2667C23.9345 24.4966 23.8332 24.4005 23.7473 24.3392Z" fill="#4A7D9E"/>
<path d="M24.6518 24.1948C24.5865 23.3929 24.7325 22.6127 24.8759 21.7393C25.1147 22.6382 25.3319 23.4589 25.5492 24.2833L24.6518 24.1948Z" fill="#0D3038"/>
<path d="M23.4784 20.4044C23.3453 19.5611 23.2474 18.7131 23.1787 17.8604C23.4999 18.0111 23.4905 18.4144 23.6863 18.665C23.8005 18.812 23.858 19.0118 23.9516 19.1795C23.9809 19.2281 23.997 19.2847 23.9982 19.3428C23.9995 19.401 23.9857 19.4584 23.9585 19.5084C23.8168 19.8193 23.688 20.1378 23.4784 20.4044Z" fill="#ECE9E8"/>
<path d="M24.6518 24.1953L25.5492 24.2792C25.6351 24.6118 25.721 24.9463 25.8206 25.2761C25.8867 25.505 25.7906 25.4975 25.6489 25.424C25.362 25.2714 25.0803 25.1074 24.7901 24.9604C24.6415 24.885 24.6372 24.7578 24.6424 24.6137C24.6475 24.4695 24.6509 24.3348 24.6518 24.1953Z" fill="white"/>
<path d="M23.0386 17.4913L22.7269 17.496C22.8445 17.2425 22.6659 17.2048 22.5156 17.1455V16.957C22.7071 17.0183 22.915 16.9872 23.0996 17.0861C23 17.1003 22.8506 17.0805 22.9794 17.2689C23.0218 17.3334 23.0427 17.4119 23.0386 17.4913V17.4913Z" fill="#ECE9E8"/>
<path d="M21.457 29.3334L21.4458 29.3183L21.457 29.3042L21.4759 29.3183L21.457 29.3334Z" fill="#51B8AF"/>
<path d="M23.2981 7.00321C22.4874 7.03713 21.7677 7.29719 21.2095 7.98221C21.0002 8.23463 20.8509 8.53985 20.7749 8.87076C20.6891 9.24766 20.4314 9.09125 20.2339 9.12046C20.0003 9.15438 20.0261 8.97441 20.002 8.80857C19.8088 7.48188 18.7748 6.53303 17.5425 6.50193C17.01 6.48874 16.5248 6.60181 16.0825 6.92406C16.554 4.77855 17.6902 3.26812 19.5993 2.48511C19.8329 2.39088 19.9505 2.42575 20.0759 2.67356C20.7337 3.99271 21.4731 5.25345 22.4805 6.29746C22.5608 6.37309 22.6448 6.44387 22.7321 6.50947C22.5295 6.68096 22.2667 6.62254 22.0451 6.72336C21.9506 6.76671 21.8527 6.80816 21.8905 6.94196C21.9232 7.05598 22.0125 7.04938 22.1035 7.01546C22.1733 6.98685 22.246 6.96724 22.3199 6.95704C22.6428 6.92029 22.9657 6.76859 23.2903 6.94573C23.291 6.96514 23.2936 6.98442 23.2981 7.00321V7.00321ZM17.7924 5.78676C17.7574 5.77825 17.7217 5.77383 17.6859 5.77357C17.5588 5.78111 17.3621 5.69913 17.3604 5.9281C17.3604 6.1222 17.5442 6.08075 17.6661 6.08452C18.1905 6.10569 18.7055 6.2442 19.1793 6.49157C19.2729 6.53962 19.3863 6.62443 19.4507 6.46236C19.5151 6.30029 19.3837 6.26354 19.291 6.2136C18.8215 5.9656 18.3125 5.82061 17.7924 5.78676Z" fill="#F8C0AF"/>
<path d="M23.288 6.94798C22.9634 6.76613 22.6405 6.92254 22.3176 6.95929C22.2436 6.96949 22.171 6.98909 22.1012 7.01771C22.0101 7.05163 21.9208 7.05823 21.8882 6.94421C21.8504 6.81041 21.9483 6.76895 22.0428 6.72561C22.2643 6.62479 22.5271 6.68321 22.7298 6.51172C22.9067 6.63515 23.1034 6.56731 23.2915 6.57956C23.44 6.58993 23.5912 6.56825 23.738 6.5871C23.8703 6.60406 24.0644 6.63044 24.0309 6.81984C23.9974 7.00923 23.8325 6.91406 23.7063 6.88862C23.5663 6.85847 23.4126 6.80382 23.288 6.94798Z" fill="#19272B"/>
<path d="M26.8313 8.76445C26.5015 8.85867 26.1357 9.08576 25.8523 8.99907C25.5689 8.91238 25.5526 8.40545 25.3662 8.11523C25.7956 8.26128 26.225 8.41487 26.663 8.55055C26.7091 8.55977 26.7509 8.58602 26.7815 8.62493C26.8121 8.66384 26.8297 8.71307 26.8313 8.76445V8.76445Z" fill="#F8C0AF"/>
<path d="M20.9778 17.5075C20.9778 17.532 20.9778 17.5556 20.9709 17.5801C20.8498 18.0851 20.8601 18.5968 20.8962 19.1131C20.9374 19.72 20.9279 19.7152 20.3861 19.7134C18.6685 19.7058 16.9535 19.7005 15.241 19.6973C15.0126 19.6172 14.7189 19.8151 14.5446 19.5739C14.3213 19.2648 14.2466 18.8757 14.2517 18.4828C14.2594 17.8675 14.5093 17.3624 14.8812 16.9158C14.9963 16.7773 15.1328 16.8112 15.2668 16.8131C16.7554 16.8319 18.2414 16.853 19.7248 16.8762C19.7995 16.8762 19.8742 16.8715 19.9489 16.8687L21.2311 16.8847C21.1744 17.1052 20.9821 17.2616 20.9778 17.5075Z" fill="white"/>
<path d="M21.2311 16.8852L19.9489 16.8692L19.8896 15.3945C20.7213 15.4958 21.5605 15.4958 22.3922 15.3945C22.4345 15.9147 22.4763 16.4351 22.5175 16.9558C22.5175 17.019 22.5175 17.0821 22.5175 17.1443L22.2496 17.4929C22.2356 17.492 22.2218 17.4891 22.2084 17.4844C22.101 17.0096 21.8666 16.8644 21.2311 16.8852Z" fill="#F3B0A6"/>
<path d="M20.442 12.7167C20.1723 12.7573 19.9404 12.6376 19.7266 12.4755C19.6603 12.4343 19.6089 12.3693 19.581 12.2914C19.5532 12.2135 19.5506 12.1275 19.5737 12.0478C19.6424 11.8508 19.8099 11.9337 19.9336 11.978C20.2659 12.0949 20.6051 12.093 20.9469 12.0854C21.0526 12.0854 21.1788 12.0647 21.2157 12.2098C21.2527 12.3549 21.1762 12.4614 21.0809 12.5415C20.9902 12.6154 20.887 12.6689 20.7774 12.699C20.6677 12.7291 20.5537 12.7351 20.442 12.7167V12.7167Z" fill="#F26F73"/>
<path d="M20.7215 10.4302C20.7043 10.6602 20.6039 10.8166 20.4038 10.8684C20.232 10.9136 20.098 10.8778 20.1624 10.6215C20.1856 10.532 20.1856 10.4378 20.2054 10.3473C20.2346 10.2116 20.1101 9.97043 20.3634 9.98079C20.5987 9.99304 20.7078 10.1843 20.7215 10.4302Z" fill="#F3B0A6"/>
<path d="M4.23477 16.435C4.24422 16.6328 4.17723 16.7478 4.03897 16.7921C3.87923 16.8439 3.79249 16.7299 3.75557 16.5857C3.6757 16.2748 3.49793 16.0204 3.35795 15.749C3.31071 15.6548 3.23171 15.57 3.31587 15.4663C3.35544 15.4164 3.41087 15.3849 3.47086 15.3783C3.53085 15.3716 3.5909 15.3903 3.63877 15.4305C3.9463 15.6703 4.15932 16.0294 4.23477 16.435V16.435Z" fill="#AECC4A"/>
<path d="M4.36286 17.3684C4.35427 17.5352 4.26067 17.5842 4.12584 17.5795C4.01763 17.5795 3.92488 17.5324 3.92832 17.4052C3.92887 17.3728 3.93525 17.3408 3.94707 17.3111C3.9589 17.2814 3.97595 17.2545 3.99724 17.232C4.01853 17.2095 4.04366 17.1918 4.07117 17.18C4.09869 17.1682 4.12806 17.1624 4.15761 17.163C4.18415 17.1571 4.2116 17.158 4.23772 17.1659C4.26384 17.1738 4.28789 17.1884 4.3079 17.2084C4.32792 17.2284 4.34333 17.2534 4.35288 17.2812C4.36243 17.309 4.36585 17.3389 4.36286 17.3684Z" fill="#AECC4A"/>
<path d="M1.27976 19.6474C1.24283 19.6794 1.21964 19.6719 1.21191 19.6191L1.27976 19.6474Z" fill="white"/>
<path d="M23.2524 7.34804C24.0511 7.3716 24.733 7.67123 25.1993 8.41561C25.8305 9.42194 25.5917 10.6638 24.6531 11.3272C23.5839 12.081 22.0346 11.7795 21.3373 10.7053C20.5687 9.52088 21.0402 8.02929 22.3017 7.50163C22.6049 7.37621 22.9291 7.32383 23.2524 7.34804ZM23.3769 9.19863C23.3572 9.08555 23.3451 8.96872 23.316 8.85753C23.2369 8.55318 23.0746 8.31479 22.7698 8.3016C22.4838 8.28935 22.3043 8.49759 22.1823 8.76802C22.0781 9.00166 22.0424 9.265 22.0802 9.52182C22.1308 9.91097 22.3782 10.2125 22.6504 10.237C22.908 10.2596 23.1742 10.0137 23.2971 9.65091C23.3466 9.50647 23.3736 9.35387 23.3769 9.19957V9.19863Z" fill="#F8C0AF"/>
<path d="M15.9582 7.4336C16.7105 6.53563 18.1644 6.59782 19.0121 7.42512C19.6064 8.00555 19.9018 8.71318 19.6648 9.5923C19.4277 10.4714 18.836 10.9576 18.0425 11.1621C17.3383 11.343 16.6882 11.1791 16.0887 10.7503C16.0023 10.7025 15.9324 10.6251 15.8895 10.5298C15.8483 10.1489 15.825 9.76579 15.8199 9.38218C15.8045 8.72825 15.9058 8.08093 15.9582 7.4336ZM17.5392 8.8319C17.5392 9.35297 17.7651 9.72987 18.088 9.7685C18.4315 9.80902 18.7012 9.52728 18.8034 9.02601C18.812 8.98078 18.8274 8.93178 18.8334 8.89032C18.8961 8.39752 18.6196 7.89247 18.2666 7.85384C17.9137 7.81521 17.6122 8.18269 17.5547 8.68868C17.5478 8.7471 17.5418 8.80458 17.5392 8.8319V8.8319Z" fill="#F8C0AF"/>
<path d="M15.9583 7.43359C15.9059 8.08092 15.8045 8.72354 15.82 9.3784C15.8251 9.76202 15.8483 10.1451 15.8895 10.5261C15.2326 9.92679 15.1304 8.6915 15.6688 7.79353C15.7496 7.66256 15.82 7.51369 15.9583 7.43359Z" fill="#0D3038"/>
<path d="M1.85773 14.4043C1.95649 14.4156 1.91183 14.49 1.91011 14.5456C1.84485 14.5202 1.77786 14.4966 1.85773 14.4043Z" fill="white"/>
<path d="M18.8754 22.4219C18.9115 22.4633 18.9355 22.5057 18.8891 22.5566C18.8745 22.5218 18.8608 22.4869 18.8462 22.4511L18.8754 22.4219Z" fill="#4C8AB1"/>
<path d="M18.5918 23.0115L18.6416 23.0285C18.5995 23.0878 18.6081 23.0219 18.597 23.0059L18.5918 23.0115Z" fill="#4C8AB1"/>
<path d="M21.2309 16.8857C21.8664 16.865 22.1008 17.0101 22.2065 17.4878L20.9775 17.5085C20.9818 17.2626 21.1742 17.1062 21.2309 16.8857Z" fill="#E8CFD8"/>
<path d="M22.248 17.4956L22.516 17.147C22.6663 17.2063 22.8449 17.2412 22.7273 17.4975L22.248 17.4956Z" fill="#51B8AF"/>
<path d="M17.7922 5.78662C18.3123 5.82047 18.8214 5.96546 19.2908 6.21346C19.3836 6.2634 19.5115 6.30769 19.4505 6.46222C19.3896 6.61675 19.2728 6.53948 19.1792 6.49143C18.705 6.24394 18.1898 6.10542 17.6651 6.08437C17.5432 6.08437 17.3577 6.12206 17.3594 5.92796C17.3594 5.69899 17.5578 5.78097 17.6849 5.77343C17.721 5.77362 17.757 5.77804 17.7922 5.78662V5.78662Z" fill="#19272B"/>
<path d="M23.3773 9.19874C23.3739 9.35273 23.3469 9.50499 23.2975 9.64914C23.1746 10.0119 22.9058 10.2578 22.6508 10.2352C22.3785 10.2107 22.1312 9.9092 22.0805 9.52005C22.0428 9.26323 22.0785 8.99989 22.1827 8.76625C22.3047 8.49582 22.4842 8.28758 22.7702 8.29983C23.075 8.31302 23.2373 8.55141 23.3163 8.85576C23.3455 8.96789 23.3576 9.08473 23.3773 9.19874ZM22.9161 9.1912C22.8844 9.00275 22.8406 8.76342 22.5967 8.78038C22.339 8.79828 22.2678 9.04704 22.2686 9.29579C22.2686 9.52099 22.3442 9.7509 22.5795 9.73677C22.8371 9.71886 22.8964 9.46728 22.9161 9.19026V9.1912Z" fill="#19272B"/>
<path d="M17.5391 8.8318C17.5391 8.80447 17.5477 8.74699 17.5546 8.68857C17.6121 8.18258 17.9256 7.81605 18.2665 7.85374C18.6074 7.89143 18.896 8.39742 18.8333 8.89022C18.8273 8.93544 18.8118 8.98444 18.8032 9.0259C18.701 9.52718 18.4305 9.80891 18.0879 9.7684C17.765 9.72976 17.5357 9.35286 17.5391 8.8318ZM17.7461 8.79411C17.7418 9.05605 17.7976 9.28596 18.0269 9.29538C18.2923 9.30669 18.3704 9.04851 18.3824 8.80918C18.3902 8.59906 18.3378 8.3569 18.0956 8.34842C17.8234 8.339 17.7632 8.58022 17.7461 8.79411V8.79411Z" fill="#19272B"/>
<path d="M22.9161 9.19097C22.8963 9.46799 22.8371 9.71958 22.5794 9.73654C22.3441 9.75067 22.2694 9.52076 22.2686 9.29556C22.2686 9.0468 22.3347 8.79805 22.5966 8.78015C22.8405 8.76319 22.8843 9.00346 22.9161 9.19097Z" fill="#EDF2F4"/>
<path d="M17.7458 8.7941C17.763 8.58021 17.8231 8.33899 18.0954 8.34841C18.3375 8.35689 18.3899 8.59905 18.3822 8.80917C18.3727 9.0485 18.2963 9.30668 18.0267 9.29538C17.7974 9.28595 17.7415 9.05605 17.7458 8.7941Z" fill="#EDF2F4"/>
</g>
<defs>
<clipPath id="clip0_1967_2632">
<rect width="29.7322" height="35" fill="white"/>
</clipPath>
</defs>
</svg>
