<svg width="33" height="30" viewBox="0 0 33 30" fill="none" xmlns="http://www.w3.org/2000/svg">
<path d="M17.6957 26.8678H14.4913C13.7257 26.8678 13.0103 26.4575 12.624 25.7966C12.4208 25.4494 12.045 25.2337 11.6432 25.2337H2.47368C2.19003 25.2337 1.96 25.0039 1.96 24.72V6.7859C1.96 5.0175 3.39865 3.5791 5.16705 3.5791H13.9304C14.2143 3.5791 14.4441 3.80889 14.4441 4.09278C14.4441 4.37667 14.2143 4.60645 13.9304 4.60645L5.16705 4.6067C3.9652 4.6067 2.98737 5.5846 2.98737 6.78619V24.2063H11.6435C12.4091 24.2063 13.125 24.6172 13.5112 25.278C13.714 25.6253 14.0897 25.8404 14.4916 25.8404H17.6959C18.0978 25.8404 18.4735 25.6253 18.6763 25.278C19.0625 24.6174 19.7784 24.2063 20.5436 24.2063H29.8921V6.79306C29.8921 5.58759 28.9113 4.60676 27.7058 4.60676H25.8982C25.6143 4.60676 25.3845 4.37697 25.3845 4.09308C25.3845 3.8092 25.6143 3.57941 25.8982 3.57941H27.7058C29.4779 3.57941 30.9198 5.02124 30.9198 6.79332V24.7206C30.9198 25.0045 30.69 25.2343 30.4061 25.2343L20.5435 25.234C20.1417 25.234 19.7664 25.4497 19.5632 25.7969C19.1767 26.4578 18.4615 26.8682 17.6958 26.8682L17.6957 26.8678Z" fill="#80C342"/>
<path d="M27.6356 22.4676H5.24307C4.95942 22.4676 4.72939 22.2378 4.72939 21.9539L4.72915 6.86622C4.72915 6.58233 4.95918 6.35254 5.24282 6.35254H13.9301C14.214 6.35254 14.4438 6.58233 14.4438 6.86622C14.4438 7.1501 14.214 7.37989 13.9301 7.37989H5.75685V21.4401H27.1226V7.37989H25.8979C25.614 7.37989 25.3842 7.1501 25.3842 6.86622C25.3842 6.58233 25.614 6.35254 25.8979 6.35254H27.6363C27.9202 6.35254 28.1499 6.58233 28.1499 6.86622V21.9539C28.1502 22.2378 27.9204 22.4676 27.6363 22.4676H27.6356Z" fill="#80C342"/>
<path d="M29.0274 29.9995H3.85133C1.72766 29.9995 0 28.2716 0 26.148V25.414C0 24.7487 0.540969 24.208 1.20597 24.208H11.6431C12.4087 24.208 13.1246 24.6188 13.5108 25.2797C13.7136 25.627 14.0893 25.8421 14.4912 25.8421H17.6955C18.0974 25.8421 18.4731 25.627 18.6759 25.2797C19.0621 24.6191 19.778 24.208 20.5432 24.208H31.6727C32.338 24.208 32.8787 24.7487 32.8787 25.414V26.148C32.8787 28.2716 31.1513 29.9995 29.0276 29.9995H29.0274ZM1.20572 25.2354C1.10703 25.2354 1.0271 25.3155 1.0271 25.414V26.148C1.0271 27.7053 2.29401 28.972 3.85087 28.972H29.0275C30.5844 28.972 31.8511 27.7051 31.8511 26.148V25.414C31.8511 25.3155 31.7709 25.2354 31.6725 25.2354H20.5429C20.1411 25.2354 19.7658 25.451 19.5626 25.7983C19.1764 26.4589 18.4609 26.8695 17.6952 26.8695H14.4909C13.7253 26.8695 13.0098 26.4591 12.6235 25.7983C12.4203 25.451 12.0446 25.2354 11.6427 25.2354H1.20572Z" fill="#80C342"/>
<path d="M16.7681 12.5032C16.6587 12.5032 16.5478 12.4822 16.4421 12.4389C16.1165 12.3058 15.9062 11.9924 15.9062 11.6396V10.0813H15.3314C14.2758 10.0813 13.417 9.22234 13.417 8.16696L13.4168 1.91506C13.4168 0.858935 14.2758 0 15.3311 0H24.3029C25.3585 0 26.2173 0.858997 26.2173 1.91506L26.2175 8.16696C26.2175 9.11878 25.5087 9.93193 24.569 10.0589C24.5122 10.0725 24.416 10.0815 24.3031 10.0815H19.5054L17.3841 12.2428C17.2177 12.4128 16.995 12.503 16.7681 12.503L16.7681 12.5032ZM15.3314 1.02744C14.8423 1.02744 14.4444 1.42585 14.4444 1.91495V8.16685C14.4444 8.65591 14.8423 9.05386 15.3314 9.05386H16.0663C16.5444 9.05386 16.9338 9.44106 16.9338 9.91672V11.2348L18.8192 9.31386C18.9878 9.14475 19.2064 9.0541 19.4383 9.0541H24.3031C24.3428 9.0541 24.3718 9.05215 24.3945 9.04703C24.8641 8.98221 25.1901 8.60646 25.1901 8.16714L25.1899 1.91461C25.1899 1.42555 24.7919 1.02711 24.3029 1.02711L15.3314 1.02744ZM16.0663 10.0815H16.0714H16.0663Z" fill="#80C342"/>
<path d="M11.7888 17.4196C10.3214 17.4196 9.12735 16.2255 9.12735 14.7581C9.12735 13.2907 10.3214 12.0967 11.7888 12.0967C13.2562 12.0967 14.4503 13.2907 14.4503 14.7581C14.4503 16.2255 13.2562 17.4196 11.7888 17.4196ZM11.7888 13.124C10.8877 13.124 10.1547 13.857 10.1547 14.7581C10.1547 15.6592 10.8877 16.3922 11.7888 16.3922C12.6899 16.3922 13.4229 15.6592 13.4229 14.7581C13.4229 13.857 12.6899 13.124 11.7888 13.124Z" fill="#80C342"/>
<path d="M15.9865 22.4643H7.58986C7.30622 22.4643 7.07619 22.2345 7.07619 21.9506V21.0916C7.07619 18.4933 9.19012 16.3799 11.7884 16.3799C14.3868 16.3799 16.5002 18.4936 16.5002 21.0916V21.9506C16.5002 22.2345 16.2704 22.4643 15.9863 22.4643H15.9865ZM8.10389 21.437H15.4731V21.0919C15.4731 19.0601 13.8204 17.4075 11.7887 17.4075C9.75688 17.4075 8.10402 19.0601 8.10402 21.0919L8.10389 21.437Z" fill="#80C342"/>
</svg>
