<svg width="26" height="23" viewBox="0 0 26 23" fill="none" xmlns="http://www.w3.org/2000/svg">
<path d="M13.567 20.5997H11.1102C10.5232 20.5997 9.97461 20.2851 9.67845 19.7784C9.52264 19.5122 9.23455 19.3468 8.92645 19.3468H1.89616C1.67869 19.3468 1.50232 19.1706 1.50232 18.953V5.20281C1.50232 3.84697 2.60534 2.74414 3.96118 2.74414H10.6801C10.8978 2.74414 11.0739 2.92032 11.0739 3.13798C11.0739 3.35564 10.8978 3.53182 10.6801 3.53182L3.96118 3.532C3.03971 3.532 2.29 4.28176 2.29 5.20303V18.5591H8.92667C9.51367 18.5591 10.0626 18.8741 10.3587 19.3808C10.5141 19.647 10.8022 19.812 11.1103 19.812H13.5671C13.8752 19.812 14.1633 19.647 14.3187 19.3808C14.6149 18.8743 15.1638 18.5591 15.7504 18.5591H22.918V5.20829C22.918 4.28406 22.166 3.53205 21.2418 3.53205H19.8558C19.6382 3.53205 19.462 3.35587 19.462 3.13821C19.462 2.92056 19.6382 2.74438 19.8558 2.74438H21.2418C22.6004 2.74438 23.7059 3.84983 23.7059 5.20849V18.9534C23.7059 19.1711 23.5297 19.3473 23.312 19.3473L15.7504 19.3471C15.4423 19.3471 15.1546 19.5124 14.9987 19.7786C14.7024 20.2853 14.1541 20.6 13.5671 20.6L13.567 20.5997Z" fill="white"/>
<path d="M21.1884 17.2256H4.01994C3.80247 17.2256 3.6261 17.0494 3.6261 16.8317L3.62592 5.26396C3.62592 5.0463 3.80228 4.87012 4.01975 4.87012H10.6803C10.898 4.87012 11.0742 5.0463 11.0742 5.26396C11.0742 5.48161 10.898 5.65779 10.6803 5.65779H4.41386V16.4378H20.7951V5.65779H19.8561C19.6384 5.65779 19.4622 5.48161 19.4622 5.26396C19.4622 5.0463 19.6384 4.87012 19.8561 4.87012H21.1889C21.4066 4.87012 21.5827 5.0463 21.5827 5.26396V16.8317C21.5829 17.0494 21.4067 17.2256 21.1889 17.2256H21.1884Z" fill="white"/>
<path d="M22.2554 23H2.95283C1.32461 23 0 21.6752 0 20.0469V19.4842C0 18.9741 0.414763 18.5596 0.924618 18.5596H8.92679C9.51378 18.5596 10.0627 18.8746 10.3588 19.3813C10.5143 19.6475 10.8023 19.8125 11.1104 19.8125H13.5672C13.8753 19.8125 14.1634 19.6475 14.3189 19.3813C14.615 18.8748 15.1639 18.5596 15.7506 18.5596H24.2836C24.7937 18.5596 25.2082 18.9741 25.2082 19.4842V20.0469C25.2082 21.6752 23.8838 23 22.2556 23H22.2554ZM0.924427 19.3473C0.848763 19.3473 0.78748 19.4087 0.78748 19.4842V20.047C0.78748 21.241 1.75883 22.2121 2.95248 22.2121H22.2555C23.4492 22.2121 24.4203 21.2408 24.4203 20.047V19.4842C24.4203 19.4087 24.3589 19.3473 24.2834 19.3473H15.7503C15.4423 19.3473 15.1545 19.5126 14.9987 19.7788C14.7026 20.2853 14.1541 20.6001 13.567 20.6001H11.1102C10.5232 20.6001 9.97468 20.2855 9.67852 19.7788C9.52271 19.5126 9.23462 19.3473 8.92652 19.3473H0.924427Z" fill="white"/>
<path d="M12.8566 9.58625C12.7727 9.58625 12.6877 9.57018 12.6066 9.53693C12.357 9.43492 12.1958 9.19466 12.1958 8.92415V7.7294H11.7551C10.9457 7.7294 10.2873 7.0708 10.2873 6.26164L10.2871 1.46828C10.2871 0.658549 10.9457 0 11.7549 0H18.6335C19.4429 0 20.1013 0.658597 20.1013 1.46828L20.1015 6.26164C20.1015 6.99141 19.558 7.61485 18.8376 7.71218C18.794 7.72264 18.7202 7.72956 18.6337 7.72956H14.9553L13.3289 9.38657C13.2013 9.51698 13.0305 9.58611 12.8566 9.58611L12.8566 9.58625ZM11.7551 0.787743C11.3801 0.787743 11.075 1.09321 11.075 1.4682V6.26156C11.075 6.63652 11.3801 6.94163 11.7551 6.94163H12.3185C12.6851 6.94163 12.9836 7.2385 12.9836 7.60319V8.61376L14.4291 7.14098C14.5584 7.01132 14.726 6.94181 14.9039 6.94181H18.6337C18.6642 6.94181 18.6864 6.94032 18.7038 6.9364C19.0638 6.8867 19.3138 6.59861 19.3138 6.26178L19.3136 1.46794C19.3136 1.09298 19.0085 0.787486 18.6335 0.787486L11.7551 0.787743ZM12.3185 7.72955H12.3225H12.3185Z" fill="white"/>
<path d="M9.03841 13.3555C7.91335 13.3555 6.99786 12.44 6.99786 11.315C6.99786 10.1899 7.91335 9.27441 9.03841 9.27441C10.1635 9.27441 11.079 10.1899 11.079 11.315C11.079 12.44 10.1635 13.3555 9.03841 13.3555ZM9.03841 10.0621C8.34753 10.0621 7.78555 10.6241 7.78555 11.315C7.78555 12.0058 8.34753 12.5678 9.03841 12.5678C9.7293 12.5678 10.2913 12.0058 10.2913 11.315C10.2913 10.6241 9.7293 10.0621 9.03841 10.0621Z" fill="white"/>
<path d="M12.2571 17.2226H5.81944C5.60197 17.2226 5.4256 17.0464 5.4256 16.8287V16.1701C5.4256 14.178 7.04636 12.5576 9.03851 12.5576C11.0307 12.5576 12.651 14.1782 12.651 16.1701V16.8287C12.651 17.0464 12.4749 17.2226 12.257 17.2226H12.2571ZM6.21354 16.4349H11.8635V16.1703C11.8635 14.6126 10.5964 13.3455 9.03867 13.3455C7.4809 13.3455 6.21364 14.6126 6.21364 16.1703L6.21354 16.4349Z" fill="white"/>
</svg>
