<svg width="23" height="21" viewBox="0 0 23 21" fill="none" xmlns="http://www.w3.org/2000/svg">
<path d="M12.4663 18.6482H10.33C9.81956 18.6482 9.34258 18.3746 9.08506 17.934C8.94957 17.7025 8.69907 17.5588 8.43116 17.5588H2.31804C2.12894 17.5588 1.97559 17.4056 1.97559 17.2163V5.25998C1.97559 4.08102 2.9347 3.12207 4.11366 3.12207H9.95604C10.1453 3.12207 10.2985 3.27527 10.2985 3.46453C10.2985 3.65379 10.1453 3.80699 9.95604 3.80699L4.11366 3.80715C3.31241 3.80715 2.66051 4.45909 2.66051 5.26017V16.8738H8.43135C8.94177 16.8738 9.41909 17.1477 9.67656 17.5883C9.81172 17.8198 10.0622 17.9632 10.3301 17.9632H12.4664C12.7343 17.9632 12.9848 17.8198 13.12 17.5883C13.3775 17.1479 13.8548 16.8738 14.3649 16.8738H20.5974V5.26475C20.5974 4.46109 19.9435 3.80719 19.1398 3.80719H17.9347C17.7454 3.80719 17.5922 3.65399 17.5922 3.46473C17.5922 3.27547 17.7454 3.12227 17.9347 3.12227H19.1398C20.3212 3.12227 21.2825 4.08351 21.2825 5.26492V17.2167C21.2825 17.4059 21.1293 17.5591 20.94 17.5591L14.3648 17.559C14.0969 17.559 13.8468 17.7027 13.7113 17.9342C13.4536 18.3748 12.9768 18.6484 12.4664 18.6484L12.4663 18.6482Z" fill="#80C342"/>
<path d="M19.0931 15.7113H4.1644C3.9753 15.7113 3.82194 15.5581 3.82194 15.3689L3.82178 5.31023C3.82178 5.12097 3.97514 4.96777 4.16424 4.96777H9.95587C10.1451 4.96777 10.2983 5.12097 10.2983 5.31023C10.2983 5.49949 10.1451 5.65269 9.95587 5.65269H4.50693V15.0264H18.751V5.65269H17.9345C17.7453 5.65269 17.5921 5.49949 17.5921 5.31023C17.5921 5.12097 17.7453 4.96777 17.9345 4.96777H19.0935C19.2827 4.96777 19.4359 5.12097 19.4359 5.31023V15.3689C19.4361 15.5581 19.2829 15.7113 19.0935 15.7113H19.0931Z" fill="#80C342"/>
<path d="M20.0209 20.7341H3.23655C1.82074 20.7341 0.668945 19.5822 0.668945 18.1664V17.677C0.668945 17.2335 1.0296 16.873 1.47294 16.873H8.43114C8.94156 16.873 9.41887 17.1469 9.67634 17.5875C9.81151 17.819 10.062 17.9625 10.3299 17.9625H12.4662C12.7341 17.9625 12.9846 17.819 13.1198 17.5875C13.3773 17.1471 13.8546 16.873 14.3647 16.873H21.7845C22.228 16.873 22.5885 17.2335 22.5885 17.677V18.1664C22.5885 19.5822 21.4369 20.7341 20.0211 20.7341H20.0209ZM1.47277 17.558C1.40698 17.558 1.35369 17.6114 1.35369 17.6771V18.1664C1.35369 19.2046 2.19831 20.0491 3.23624 20.0491H20.021C21.0589 20.0491 21.9034 19.2045 21.9034 18.1664V17.6771C21.9034 17.6114 21.85 17.558 21.7843 17.558H14.3645C14.0966 17.558 13.8464 17.7017 13.7109 17.9332C13.4534 18.3737 12.9765 18.6474 12.466 18.6474H10.3297C9.8193 18.6474 9.34232 18.3738 9.0848 17.9332C8.94932 17.7017 8.69881 17.558 8.4309 17.558H1.47277Z" fill="#80C342"/>
<path d="M11.848 9.07C11.7751 9.07 11.7012 9.05603 11.6307 9.02711C11.4136 8.93841 11.2734 8.7295 11.2734 8.49428V7.45539H10.8902C10.1864 7.45539 9.61393 6.88272 9.61393 6.17912L9.61377 2.01111C9.61377 1.30701 10.1864 0.734375 10.89 0.734375H16.8713C17.5751 0.734375 18.1476 1.30705 18.1476 2.01111L18.1478 6.17912C18.1478 6.81368 17.6752 7.35579 17.0487 7.44042C17.0109 7.44952 16.9467 7.45553 16.8715 7.45553H13.6729L12.2587 8.89637C12.1478 9.00977 11.9993 9.06987 11.848 9.06987L11.848 9.07ZM10.8902 1.41935C10.5642 1.41935 10.2989 1.68496 10.2989 2.01103V6.17905C10.2989 6.50509 10.5642 6.7704 10.8902 6.7704H11.3802C11.6989 6.7704 11.9585 7.02854 11.9585 7.34565V8.22438L13.2154 6.94374C13.3279 6.831 13.4736 6.77056 13.6282 6.77056H16.8715C16.898 6.77056 16.9173 6.76926 16.9324 6.76585C17.2455 6.72263 17.4628 6.47213 17.4628 6.17924L17.4627 2.01081C17.4627 1.68476 17.1974 1.41912 16.8713 1.41912L10.8902 1.41935ZM11.3802 7.45553H11.3836H11.3802Z" fill="#80C342"/>
<path d="M8.52825 12.3465C7.54996 12.3465 6.75391 11.5505 6.75391 10.5722C6.75391 9.5939 7.54996 8.79785 8.52825 8.79785C9.50654 8.79785 10.3026 9.5939 10.3026 10.5722C10.3026 11.5505 9.50654 12.3465 8.52825 12.3465ZM8.52825 9.48278C7.9275 9.48278 7.43883 9.97144 7.43883 10.5722C7.43883 11.1729 7.9275 11.6616 8.52825 11.6616C9.12899 11.6616 9.61766 11.1729 9.61766 10.5722C9.61766 9.97144 9.12899 9.48278 8.52825 9.48278Z" fill="#80C342"/>
<path d="M11.327 15.7116H5.72918C5.54008 15.7116 5.38672 15.5584 5.38672 15.3692V14.7965C5.38672 13.0643 6.79603 11.6553 8.52829 11.6553C10.2605 11.6553 11.6695 13.0644 11.6695 14.7965V15.3692C11.6695 15.5584 11.5163 15.7116 11.3269 15.7116H11.327ZM6.07187 15.0267H10.9847V14.7967C10.9847 13.4421 9.88297 12.3404 8.52843 12.3404C7.17388 12.3404 6.07195 13.4421 6.07195 14.7967L6.07187 15.0267Z" fill="#80C342"/>
</svg>
