<svg width="22" height="20" viewBox="0 0 22 20" fill="none" xmlns="http://www.w3.org/2000/svg">
<path d="M21.5001 3.99996H16.0002V2.49996C16.0002 1.83682 15.7367 1.20099 15.2679 0.732261C14.799 0.263359 14.1632 0 13.5001 0H8.49991H8.50008C7.83694 0 7.20111 0.263337 6.73221 0.732261C6.26343 1.20104 5.99995 1.83682 5.99995 2.49996V3.99996H0.50006C0.223998 3.99996 0 4.2238 0 4.50002V19.5001C0 19.6327 0.052736 19.7598 0.146486 19.8537C0.240237 19.9474 0.367468 20 0.50006 20H21.5002C21.6328 20 21.76 19.9474 21.8537 19.8537C21.9475 19.7598 22.0002 19.6327 22.0002 19.5001V4.50002C22.0002 4.36743 21.9475 4.2402 21.8537 4.14645C21.76 4.0527 21.6328 3.99996 21.5002 3.99996H21.5001ZM7.00016 2.49996C7.00016 2.10219 7.15819 1.72064 7.43945 1.43924C7.7207 1.15798 8.10223 0.999948 8.50017 0.999948H13.5003H13.5002C13.8981 0.999948 14.2797 1.15798 14.5609 1.43924C14.8421 1.72066 15.0002 2.1022 15.0002 2.49996V3.99996H7.00042L7.00016 2.49996ZM20.9999 19H1.00012V4.99983H20.9999V19Z" fill="#80C342"/>
<path d="M13 11.5001H11.5V10.0001C11.5 9.724 11.276 9.5 11 9.5C10.7239 9.5 10.4999 9.724 10.4999 10.0001V11.5001H8.99989C8.72383 11.5001 8.5 11.7239 8.5 12.0001C8.5 12.2762 8.72383 12.5 8.99989 12.5H10.4999V14C10.4999 14.2763 10.7239 14.5001 11 14.5001C11.276 14.5001 11.5 14.2763 11.5 14V12.5H13C13.2761 12.5 13.4999 12.2762 13.4999 12.0001C13.4999 11.7239 13.2761 11.5001 13 11.5001Z" fill="#80C342"/>
<path d="M11.0001 7C9.67403 7 8.4022 7.52685 7.46452 8.46452C6.52685 9.4022 6 10.674 6 12.0001C6 13.3261 6.52685 14.598 7.46452 15.5356C8.4022 16.4733 9.67403 17 11.0001 17C12.3261 17 13.598 16.4733 14.5356 15.5356C15.4733 14.598 16.0002 13.3261 16.0002 12.0001C16.0002 10.674 15.4733 9.4022 14.5356 8.46452C13.598 7.52685 12.3261 7 11.0001 7ZM11.0001 16C9.93919 16 8.92184 15.5787 8.17167 14.8285C7.42149 14.0783 7.00012 13.061 7.00012 12.0001C7.00012 10.9392 7.42149 9.92167 8.17167 9.17167C8.92184 8.42149 9.93919 7.99995 11.0001 7.99995C12.061 7.99995 13.0783 8.42149 13.8285 9.17167C14.5787 9.92167 15.0001 10.9392 15.0001 12.0001C15.0001 13.061 14.5787 14.0783 13.8285 14.8285C13.0783 15.5787 12.061 16 11.0001 16Z" fill="#80C342"/>
</svg>
