<svg width="30" height="30" viewBox="0 0 30 30" fill="none" xmlns="http://www.w3.org/2000/svg">
<path d="M29.318 5.99995H21.8182V3.74993C21.8182 2.75524 21.4589 1.80149 20.8197 1.09839C20.1803 0.395038 19.3133 0 18.409 0H11.5907H11.5909C10.6866 0 9.81959 0.395006 9.18019 1.09839C8.54096 1.80155 8.18166 2.75524 8.18166 3.74993V5.99995H0.681893C0.305449 5.99995 0 6.33569 0 6.75004V29.2502C0 29.449 0.0719119 29.6396 0.199752 29.7805C0.327592 29.9211 0.501087 30 0.681893 30H29.3181C29.4989 30 29.6724 29.9211 29.8002 29.7805C29.9281 29.6396 30 29.449 30 29.2502V6.75004C30 6.55115 29.9281 6.3603 29.8002 6.21968C29.6724 6.07905 29.4989 5.99995 29.3181 5.99995H29.318ZM9.54557 3.74993C9.54557 3.15328 9.76107 2.58096 10.1446 2.15885C10.5281 1.73698 11.0484 1.49992 11.591 1.49992H18.4094H18.4091C18.9518 1.49992 19.4721 1.73698 19.8555 2.15885C20.2391 2.58098 20.4546 3.1533 20.4546 3.74993V5.99995H9.54592L9.54557 3.74993ZM28.636 28.5001H1.36379V7.49974H28.636V28.5001Z" fill="#80C342"/>
<path d="M17.7274 17.2384H15.6819V14.9884C15.6819 14.5743 15.3765 14.2383 15 14.2383C14.6236 14.2383 14.3181 14.5743 14.3181 14.9884V17.2384H12.2727C11.8962 17.2384 11.591 17.5741 11.591 17.9885C11.591 18.4026 11.8963 18.7383 12.2727 18.7383H14.3181V20.9883C14.3181 21.4027 14.6236 21.7384 15 21.7384C15.3765 21.7384 15.6819 21.4027 15.6819 20.9883V18.7383H17.7274C18.1038 18.7383 18.409 18.4026 18.409 17.9885C18.409 17.5741 18.1038 17.2384 17.7274 17.2384Z" fill="#80C342"/>
<path d="M14.9998 10.4883C13.1916 10.4883 11.4573 11.2785 10.1787 12.6851C8.90003 14.0916 8.18161 15.9993 8.18161 17.9884C8.18161 19.9775 8.90003 21.8852 10.1787 23.2918C11.4573 24.6983 13.1916 25.4883 14.9998 25.4883C16.8081 25.4883 18.5424 24.6983 19.821 23.2918C21.0996 21.8852 21.8181 19.9775 21.8181 17.9884C21.8181 15.9993 21.0996 14.0916 19.821 12.6851C18.5424 11.2785 16.8081 10.4883 14.9998 10.4883ZM14.9998 23.9884C13.5532 23.9884 12.1659 23.3563 11.1429 22.231C10.12 21.1058 9.5454 19.5797 9.5454 17.9884C9.5454 16.3971 10.12 14.8708 11.1429 13.7458C12.1659 12.6205 13.5532 11.9882 14.9998 11.9882C16.4465 11.9882 17.8338 12.6205 18.8567 13.7458C19.8797 14.8708 20.4543 16.3971 20.4543 17.9884C20.4543 19.5797 19.8797 21.1058 18.8567 22.231C17.8338 23.3563 16.4465 23.9884 14.9998 23.9884Z" fill="#80C342"/>
</svg>
