<svg width="18" height="19" viewBox="0 0 18 19" fill="none" xmlns="http://www.w3.org/2000/svg">
<path d="M14.572 13.6749L13.4246 14.8223L13.4245 11.4723C13.4245 11.2816 13.2698 11.1269 13.0791 11.1269C12.8884 11.1269 12.7337 11.2816 12.7337 11.4723V14.8216L11.5868 13.6747C11.4519 13.5398 11.2332 13.5398 11.0983 13.6747C10.9633 13.8097 10.9633 14.0283 11.0983 14.1632L12.833 15.8979C12.8657 15.9314 12.9051 15.9579 12.9488 15.9759C12.9502 15.9763 12.9514 15.9765 12.9526 15.977C12.992 15.9924 13.0344 16.0016 13.0792 16.0016H13.0796H13.0797C13.1237 16.0014 13.1657 15.9924 13.2044 15.9773C13.2066 15.9763 13.209 15.9762 13.2113 15.9751C13.2527 15.958 13.29 15.933 13.3217 15.9021C13.3223 15.9015 13.3233 15.9012 13.3239 15.9005L15.0606 14.1638C15.1956 14.0288 15.1956 13.8102 15.0606 13.6752C14.9259 13.5401 14.7069 13.54 14.572 13.6749L14.572 13.6749ZM13.0795 8.74228V2.68977C13.0795 1.41807 12.048 0.386719 10.7765 0.386719H2.83919C1.56765 0.386719 0.536133 1.41807 0.536133 2.68977V13.8349C0.536133 15.1069 1.56765 16.138 2.83919 16.138H9.0089C9.86469 17.4866 11.3674 18.3867 13.0797 18.3867C15.7386 18.3867 17.9017 16.2234 17.9017 13.5647C17.9017 10.906 15.7384 8.74269 13.0797 8.74269L13.0795 8.74228ZM5.60696 2.80492H8.00818C8.26265 2.80492 8.46875 3.01136 8.46875 3.26549C8.46875 3.51996 8.26264 3.72606 8.00818 3.72606H5.60696C5.35265 3.72606 5.14639 3.51995 5.14639 3.26549C5.14639 3.01119 5.35298 2.80492 5.60696 2.80492ZM2.92123 5.49596H10.694C10.9485 5.49596 11.1546 5.70239 11.1546 5.95653C11.1546 6.21099 10.9485 6.4171 10.694 6.4171H2.92123C2.66693 6.4171 2.46066 6.21099 2.46066 5.95653C2.4605 5.70254 2.66709 5.49596 2.92123 5.49596ZM2.92123 7.28958H10.694C10.9485 7.28958 11.1546 7.4957 11.1546 7.75015C11.1546 8.00446 10.9485 8.21072 10.694 8.21072H2.92123C2.66693 8.21072 2.46066 8.00429 2.46066 7.75015C2.4605 7.49553 2.66709 7.28958 2.92123 7.28958ZM2.92123 9.08259H10.694C10.8187 9.08259 10.9305 9.13352 11.0137 9.21416C10.583 9.41963 10.1883 9.686 9.83921 10.0039L2.92141 10.0037C2.66711 10.0037 2.46084 9.79763 2.46084 9.54317C2.46068 9.28887 2.66727 9.08261 2.92141 9.08261L2.92123 9.08259ZM8.25897 13.59H2.92123C2.66693 13.59 2.46066 13.3839 2.46066 13.1294C2.46066 12.8751 2.66709 12.6689 2.92123 12.6689H8.3441C8.28932 12.9595 8.25751 13.2583 8.25751 13.5645C8.25735 13.573 8.25879 13.5815 8.25879 13.59L8.25897 13.59ZM2.92123 11.797C2.66693 11.797 2.46066 11.5906 2.46066 11.3364C2.46066 11.082 2.66709 10.8758 2.92123 10.8758H9.0782C8.87642 11.1755 8.71176 11.5006 8.58049 11.8425L2.92123 11.797ZM13.0793 17.6953C10.8013 17.6953 8.94824 15.8421 8.94824 13.5642C8.94824 11.2863 10.8015 9.43307 13.0793 9.43307C15.3572 9.43307 17.2104 11.2863 17.2104 13.5642C17.2104 15.8421 15.3569 17.6953 13.0793 17.6953Z" fill="#80C342"/>
</svg>
