<svg width="40" height="29" viewBox="0 0 40 29" fill="none" xmlns="http://www.w3.org/2000/svg">
<path d="M39.3925 21.7918C38.2609 14.7933 35.956 10.896 32.3102 9.80644C31.5139 9.55505 30.4662 9.38726 29.5442 9.93214C28.9158 10.3092 28.4547 10.9798 28.1195 12.0275C27.9099 11.5247 27.7842 10.9798 27.7842 10.3931L27.7845 7.79467C27.7845 7.45938 27.5331 7.16619 27.156 7.16619H26.6111V4.31669C26.6111 3.1433 25.6474 2.17952 24.474 2.17952L5.74166 2.17922V0.838059C5.74166 0.377071 5.36457 0 4.94536 0H4.40077C3.93979 0 3.60447 0.377093 3.60447 0.838059V2.22098L2.22155 2.22127V1.38321C2.22155 1.25752 2.13765 1.17362 2.01196 1.17362H1.34167C1.21598 1.17362 1.13208 1.25752 1.13208 1.38321V4.27485C1.13208 4.40055 1.21598 4.48445 1.34167 4.48445H2.01225C2.13795 4.48445 2.22184 4.40055 2.22184 4.27485V3.43679H3.60476V5.65785H5.74193V3.43679L24.5161 3.4365C25.0189 3.4365 25.4799 3.85569 25.4799 4.40028V7.24979H24.935C24.5998 7.24979 24.3066 7.54328 24.3066 7.87827V10.4764C24.3066 11.0213 24.1809 11.608 23.9713 12.1108C23.636 11.0631 23.175 10.3925 22.5465 10.0154C21.6663 9.47056 20.5769 9.63835 19.7806 9.88974C16.1348 10.8959 13.8298 14.7934 12.6983 21.792C12.0277 25.857 12.1955 27.7428 13.1593 28.5808C13.4946 28.8743 13.9134 29 14.3744 29C15.1707 29 16.0927 28.6647 17.1822 28.2876C17.6432 28.1201 18.146 27.9523 18.6908 27.7848C19.5289 27.5334 20.2413 27.4495 20.87 27.3656C23.6778 27.0304 24.6836 26.318 24.6836 19.4453C24.6836 18.6072 24.6836 17.8109 24.6418 17.0564L26.0666 15.4221L27.4913 17.0564C27.4495 17.727 27.4495 18.5233 27.4495 19.4031C27.4495 26.2758 28.4133 26.9883 31.2631 27.3235C31.8916 27.4074 32.646 27.491 33.4423 27.7427C33.9872 27.9102 34.49 28.078 34.951 28.2455C36.6692 28.874 38.0101 29.335 38.9742 28.5808C39.9377 27.7845 40.0634 25.857 39.3928 21.792L39.3925 21.7918ZM38.1773 27.6168C37.7581 27.9521 36.5848 27.5329 35.3696 27.0719C34.8668 26.9044 34.3637 26.6948 33.8191 26.527C32.8972 26.2336 32.059 26.15 31.3885 26.0661C29.4189 25.8565 28.6647 25.7726 28.6647 19.3608C28.6647 18.4389 28.6647 17.559 28.7065 16.7627C28.7065 16.5952 28.6647 16.4692 28.539 16.3435L26.8629 14.4156C26.6533 14.1642 26.3601 14.0386 26.0248 14.0386C25.6896 14.0386 25.3964 14.1642 25.1868 14.4156L23.5107 16.3435C23.4268 16.4692 23.3432 16.5949 23.3432 16.7627C23.385 17.559 23.385 18.4388 23.385 19.3608C23.385 25.7726 22.6308 25.8565 20.6612 26.0661C19.9906 26.15 19.1525 26.2336 18.2306 26.527C17.6857 26.6945 17.1411 26.9041 16.6801 27.0719C15.4228 27.5329 14.2495 27.9521 13.8724 27.6168C13.3275 27.1558 13.3275 25.2701 13.8724 21.9592C14.92 15.4636 16.9315 11.9016 20.0745 10.9797C20.5355 10.854 20.8708 10.7701 21.164 10.7701C21.4575 10.7701 21.6668 10.8119 21.8764 10.9376C22.4212 11.2729 22.7983 12.1949 23.0915 13.6614C23.1333 13.9128 23.3011 14.0806 23.5525 14.1224C23.8039 14.1642 24.0553 14.0806 24.181 13.9128C25.019 12.9069 25.48 11.6917 25.48 10.3506V8.38093L26.6113 8.38123V10.3927C26.6113 11.6917 27.0723 12.949 27.9524 13.9967C28.1199 14.1642 28.3716 14.248 28.5809 14.2062C28.7905 14.1224 28.958 13.9549 29.0001 13.7035C29.2515 12.2366 29.6707 11.3146 30.2152 10.9797C30.5923 10.7283 31.1372 10.7283 31.9753 10.9797C35.1183 11.9016 37.1718 15.5056 38.1775 21.9592C38.7223 25.3118 38.7223 27.1976 38.1775 27.6168L38.1773 27.6168Z" fill="white"/>
<path d="M18.3134 18.2713C17.5171 17.8521 16.8047 17.936 16.3019 18.0617C15.8827 19.4446 15.5896 20.8695 15.3382 22.2106C15.0868 23.6774 14.9611 24.8926 14.9611 25.7306C14.9611 25.8563 15.0029 25.9402 15.0868 26.0241C15.1286 26.0659 15.2125 26.108 15.2964 26.108H15.422C15.7155 26.0241 16.0087 25.8984 16.3022 25.8145C16.805 25.647 17.3499 25.4374 17.8948 25.2697C18.9843 24.9344 19.9062 24.8087 20.6186 24.7248C20.87 24.683 21.1634 24.683 21.3727 24.6409C21.4984 24.6409 21.5823 24.557 21.6241 24.4313C21.8337 23.9285 22.0433 22.6712 22.0433 19.4443C22.0433 18.8576 22.0433 18.2709 22.0015 17.7261C21.0374 18.1038 19.3192 18.7743 18.3133 18.2712L18.3134 18.2713Z" fill="white"/>
<path d="M36.0399 18.8164C35.1597 18.9839 32.8551 19.3192 31.9331 18.3972C31.3046 17.8106 30.6341 17.6431 30.1313 17.6431C30.1313 18.1879 30.0895 18.8165 30.0895 19.4031C30.0895 22.63 30.3409 23.8873 30.5087 24.3901C30.5505 24.5158 30.6344 24.5997 30.7601 24.5997C30.9697 24.6415 31.2629 24.6836 31.5142 24.6836C32.1848 24.7675 33.1486 24.8932 34.1963 25.2285C34.7829 25.396 35.3278 25.6056 35.8306 25.7734C36.082 25.8573 36.4173 25.983 36.7108 26.0669H36.8365C36.9204 26.0669 36.9622 26.0251 37.0461 25.983C37.13 25.8991 37.1718 25.8155 37.1718 25.6895C37.1718 24.8514 37.0461 23.678 36.7947 22.1694C36.6266 21.1214 36.3749 19.948 36.0399 18.8165L36.0399 18.8164Z" fill="white"/>
<path d="M6.2443 6.83154H3.10129C1.38304 6.83154 0.00012207 8.21446 0.00012207 9.93271V13.9138H9.34532V9.93271C9.34532 8.21446 7.9624 6.83154 6.24437 6.83154H6.2443Z" fill="white"/>
<path d="M0.00012207 15.1289H9.34532V20.6607H0.00012207V15.1289Z" fill="white"/>
<path d="M0.000142733 27.9517C0.000142733 28.4966 0.461132 28.9575 1.00598 28.9575H8.33966C8.88453 28.9575 9.34549 28.4965 9.34549 27.9517L9.3452 21.875H0L0.000142733 27.9517Z" fill="white"/>
</svg>
