<svg width="22" height="20" viewBox="0 0 22 20" fill="none" xmlns="http://www.w3.org/2000/svg">
<path d="M21.17 3.05498C21.17 4.7422 19.8023 6.10995 18.115 6.10995C16.4278 6.10995 15.0601 4.7422 15.0601 3.05498C15.0601 1.36775 16.4278 0 18.115 0C19.8023 0 21.17 1.36775 21.17 3.05498Z" fill="#80C342"/>
<path d="M18.75 8.50004H2.42244C1.78015 8.50199 1.16475 8.75827 0.710788 9.21265C0.256822 9.66704 0.00125 10.2827 0 10.925C0 10.925 0 20 10.585 20C21.1701 20 21.1701 10.925 21.1701 10.925C21.1688 10.2831 20.9135 9.66786 20.4601 9.21347C20.0067 8.75907 19.392 8.50268 18.7501 8.5L18.75 8.50004Z" fill="#80C342"/>
<path d="M17.5 6.67244C16.7647 6.55092 16.0838 6.20843 15.5478 5.69029C15.0119 5.17229 14.6464 4.50336 14.5 3.77246L10.4575 7.82998H16.35L17.5 6.67244Z" fill="#80C342"/>
</svg>
