<svg width="32" height="35" viewBox="0 0 32 35" fill="none" xmlns="http://www.w3.org/2000/svg">
<g clip-path="url(#clip0_211_1792)">
<path d="M27.6409 33.9414C28.8125 33.9451 29.9837 33.9491 31.1543 33.9535C31.4902 33.9535 31.6942 34.139 31.695 34.4545C31.695 34.7514 31.5518 34.9268 31.304 34.9852C31.2139 34.999 31.1227 35.0021 31.032 34.9945C21.1367 34.9945 11.2417 34.9964 1.3469 35.0001C1.06437 35.0001 0.830417 34.9453 0.678223 34.6503V34.3023C0.817464 34.024 1.02875 33.9442 1.30643 33.947C2.46974 33.9572 3.63305 33.947 4.79637 33.9414C4.88704 33.9414 4.9769 33.9544 5.06756 33.9544H25.6745C26.3302 33.9544 26.9851 33.946 27.6409 33.9414Z" fill="#16536B"/>
<path d="M27.6408 33.9416C26.9851 33.9416 26.3302 33.9546 25.6745 33.9546H5.06754C4.97688 33.9546 4.88702 33.9463 4.79635 33.9416C4.79635 30.9336 4.79635 27.9255 4.80282 24.9175C4.80282 24.6261 4.73401 24.5333 4.46605 24.5009C3.72159 24.4067 3.02097 24.0501 2.46082 23.4802C1.76623 22.7973 1.32179 21.9419 1.19064 20.925C1.0174 19.5777 1.2716 18.3335 2.10219 17.2952C2.91173 16.2811 3.91152 15.7931 5.11126 15.8348C5.2675 15.8404 5.43508 15.8914 5.58403 15.7856C6.28672 15.8896 6.99183 15.82 7.69613 15.8311L8.01023 15.8385H10.0681L12.5404 15.8311C12.8772 15.9944 13.15 16.2746 13.4585 16.4899C13.8009 16.7283 14.1061 17.0466 14.5109 17.1524C15.1658 17.3259 15.8247 17.4817 16.4789 17.6562C16.7217 17.7211 16.9549 17.7601 17.1896 17.6562C17.3452 17.5962 17.482 17.485 17.5827 17.3365C17.6835 17.188 17.7439 17.0087 17.7563 16.8211C17.796 16.3878 17.5887 16.0788 17.286 15.845L18.0656 15.8163C18.1967 15.8209 18.327 15.8302 18.4582 15.8302C20.6035 15.8302 22.7488 15.8302 24.8941 15.8302C25.9513 15.8302 27.0094 15.8376 28.0667 15.8422C28.6261 16.0278 29.1854 16.2134 29.6566 16.6337C30.5252 17.4131 31.0887 18.3873 31.2206 19.6714C31.3704 21.13 30.9527 22.352 30.0581 23.3596C29.5058 23.9993 28.7784 24.4019 27.9978 24.4999C27.674 24.5407 27.6303 24.6771 27.6311 24.9917C27.64 27.1322 27.636 29.2718 27.636 31.4123C27.6376 32.2542 27.6392 33.0973 27.6408 33.9416Z" fill="#E5E1E3"/>
<path d="M28.0651 15.8452C27.0078 15.8405 25.9497 15.834 24.8925 15.8331C22.7472 15.8331 20.6019 15.8331 18.4566 15.8331C18.3254 15.8331 18.1951 15.8238 18.064 15.8192C18.425 15.6253 18.5594 15.294 18.5497 14.8468C18.5359 14.1676 18.5351 13.4875 18.5497 12.8056C18.5586 12.3964 18.4364 12.0939 18.1255 11.8935L20.5501 10.3542C21.073 10.036 21.6025 9.72606 22.1173 9.39853C22.5942 9.09698 23.0669 8.84183 23.6328 8.78616C24.9556 8.66183 26.2735 8.46976 27.5947 8.3111C27.8125 8.28743 28.0301 8.35856 28.2043 8.51036C28.3784 8.66215 28.4963 8.8835 28.5346 9.13038C28.6196 9.64626 28.3654 10.151 27.9031 10.2605C27.1156 10.4479 26.3201 10.5882 25.5199 10.6808C25.4065 10.1325 25.3142 10.0026 25.0341 10.0601C24.6115 10.1461 24.1906 10.2447 23.7712 10.3561C23.4798 10.4331 23.3908 10.6344 23.4652 10.9777C23.4992 11.1317 23.5721 11.2756 23.564 11.4416C23.1115 11.9 22.6581 12.3565 22.2064 12.8167C22.1578 12.8659 22.0752 12.9095 22.1101 13.0023C22.1384 13.0783 22.2153 13.0533 22.272 13.0589L26.3108 13.4059C27.1252 13.4764 27.9396 13.5386 28.7524 13.6202C29.0024 13.6409 29.2353 13.7733 29.401 13.9888C29.5668 14.2043 29.6522 14.4857 29.6388 14.7726C29.6234 15.3562 29.2081 15.809 28.6674 15.8275C28.4682 15.8387 28.2666 15.8405 28.0651 15.8452Z" fill="#23A1C8"/>
<path d="M18.1279 11.8965C18.4388 12.0969 18.561 12.3994 18.5521 12.8085C18.5359 13.4868 18.5367 14.1669 18.5521 14.8498C18.561 15.297 18.4266 15.6283 18.0664 15.8222L17.2868 15.8509C16.7889 15.709 16.2951 15.5429 15.7924 15.4297C15.1771 15.2924 14.621 15.0437 14.136 14.5724C13.7773 14.2348 13.4036 13.9186 13.0164 13.625C12.5688 13.2725 12.0328 13.3884 11.7374 13.8793C11.433 14.385 11.539 15.0029 11.9802 15.375C12.1648 15.5299 12.3915 15.6181 12.5412 15.8305L10.0689 15.8379C9.74508 15.6923 9.44879 15.5141 9.27393 15.1495C9.70298 14.5993 9.9677 13.9702 9.99685 13.2214C10.0209 12.6356 9.98663 12.0485 9.89485 11.4715L11.8248 11.3054C12.1162 11.2897 12.4077 11.2637 12.6991 11.2609C14.5236 11.2421 16.3444 11.4553 18.1279 11.8965Z" fill="#F22B3C"/>
<path d="M18.128 11.8972C16.344 11.4546 14.5227 11.2402 12.6975 11.2579C12.4061 11.2579 12.1147 11.2867 11.8232 11.3025C11.8491 10.8896 11.8184 10.4785 11.8661 10.061C12.0151 8.76203 12.8773 7.80729 14.0608 7.57347C14.366 7.51223 14.6688 7.43336 14.9732 7.36285C15.1035 7.64584 15.0201 7.94924 15.0298 8.24244C15.0292 8.39306 15.056 8.54218 15.1085 8.68023C15.1611 8.81828 15.2382 8.94222 15.335 9.0441C15.675 9.38461 16.0895 9.51822 16.5121 9.28162C16.9347 9.04502 17.1719 8.66461 17.1638 8.09584C17.1597 7.82863 17.0917 7.54563 17.2269 7.28955C17.6762 7.4046 18.128 7.51316 18.5764 7.63563C19.1212 7.77554 19.6103 8.11821 19.9674 8.61016C20.3244 9.10211 20.5293 9.71568 20.5501 10.3551L18.128 11.8972Z" fill="#E5E1E3"/>
<path d="M17.2309 7.2891C17.0957 7.54518 17.1637 7.82817 17.1677 8.09539C17.1758 8.66416 16.9289 9.05014 16.516 9.28117C16.1032 9.5122 15.679 9.38416 15.339 9.04364C15.2422 8.94177 15.165 8.81783 15.1125 8.67978C15.0599 8.54173 15.0331 8.39261 15.0338 8.24199C15.0241 7.94879 15.1074 7.64539 14.9771 7.36239C15.0038 7.20559 14.9488 7.11559 14.8281 7.0293C13.9927 6.43177 13.5952 5.55032 13.5879 4.43135C13.5831 3.71691 13.5879 3.00247 13.5936 2.28711C14.1565 2.56917 14.7191 2.85062 15.2815 3.13144C15.4944 3.23722 15.7089 3.34113 15.9477 3.33557C16.9062 3.3133 17.8502 3.13515 18.7973 2.9867C18.7973 3.63619 18.8524 4.28568 18.7755 4.9231C18.6549 5.91033 18.1732 6.6628 17.3993 7.15641C17.3402 7.19631 17.2843 7.24178 17.2309 7.2891Z" fill="#F6CDBF"/>
<path d="M9.89428 11.468C9.98607 12.045 10.0203 12.6321 9.99628 13.2179C9.96714 13.9667 9.70242 14.5958 9.27336 15.146C8.89591 15.4682 8.46678 15.7022 8.01048 15.8344L7.69637 15.827C7.69637 15.6999 7.70123 15.5737 7.70042 15.4466C7.69637 14.3443 7.67209 14.3035 6.73383 14.1142C6.4513 14.0567 6.26348 13.8832 6.20843 13.577C6.02952 12.5749 5.86924 11.5691 5.70166 10.5643C6.67311 10.5643 7.6389 10.5504 8.60711 10.5643C9.05641 10.5699 9.41665 10.8176 9.68866 11.224C9.73875 11.3234 9.80935 11.4072 9.89428 11.468Z" fill="#F6CDBF"/>
<path d="M18.7943 2.98843C17.8471 3.13688 16.9032 3.31503 15.9447 3.3373C15.7059 3.34286 15.4914 3.23895 15.2785 3.13317C14.715 2.85296 14.1524 2.57152 13.5906 2.28884C13.5962 1.93254 13.5501 1.57347 13.631 1.21996C13.7017 0.879825 13.8694 0.576452 14.1075 0.357949C14.3457 0.139445 14.6407 0.0183176 14.9457 0.0137716C15.7936 0.00016329 16.6409 -0.00169358 17.4877 0.00820338C18.1677 0.016554 18.7789 0.720786 18.7935 1.49832C18.8032 1.99378 18.7943 2.49111 18.7943 2.98843Z" fill="#16536B"/>
<path d="M5.7015 10.564C5.86907 11.5688 6.02531 12.5746 6.20827 13.5767C6.26332 13.8828 6.45113 14.0563 6.73367 14.1139C7.67193 14.2994 7.69621 14.344 7.70026 15.4462C7.70026 15.5734 7.70026 15.6996 7.69621 15.8267C6.99191 15.8155 6.2868 15.8851 5.58411 15.7812C4.68876 15.4518 4.24999 14.7708 4.24756 13.6954C4.24756 12.5616 4.24756 11.4281 4.24756 10.2949C4.24756 9.81147 4.43699 9.68807 4.79724 9.93302C5.10163 10.139 5.40116 10.3533 5.7015 10.564Z" fill="#16536B"/>
<path d="M23.5657 11.4419C23.5738 11.2758 23.5009 11.132 23.4669 10.978C23.3924 10.6347 23.4815 10.4334 23.7729 10.3563C24.1917 10.2456 24.6127 10.147 25.0358 10.0604C25.3159 10.0028 25.4082 10.1327 25.5215 10.6811C25.4527 11.6739 24.7184 12.2269 24.0222 11.8186C23.8506 11.7184 23.7713 11.4818 23.5657 11.4419Z" fill="#F6CDBF"/>
<path d="M12.5404 15.8267C12.3906 15.6143 12.164 15.5261 11.9794 15.3712C11.5366 15 11.4305 14.3812 11.7365 13.8755C12.032 13.3847 12.5679 13.2687 13.0156 13.6213C13.4022 13.9158 13.7754 14.2329 14.1336 14.5714C14.6193 15.0427 15.1746 15.2914 15.7899 15.4287C16.2926 15.5419 16.7864 15.7071 17.2843 15.8499C17.5871 16.0838 17.7943 16.3927 17.7547 16.826C17.7422 17.0136 17.6819 17.1929 17.5811 17.3414C17.4803 17.4899 17.3436 17.6011 17.188 17.6611C16.9532 17.7631 16.7176 17.7242 16.4772 17.6611C15.8231 17.4866 15.1641 17.3308 14.5092 17.1573C14.1044 17.0496 13.7992 16.7332 13.4568 16.4948C13.15 16.2703 12.8772 15.99 12.5404 15.8267Z" fill="#F6CDBF"/>
<path d="M8.01025 15.834C8.46656 15.7017 8.89568 15.4678 9.27314 15.1455C9.448 15.5101 9.74753 15.6883 10.0681 15.834H8.01025Z" fill="white"/>
</g>
<defs>
<clipPath id="clip0_211_1792">
<rect width="31.0168" height="35" fill="white" transform="translate(0.678223)"/>
</clipPath>
</defs>
</svg>
