<svg width="29" height="35" viewBox="0 0 29 35" fill="none" xmlns="http://www.w3.org/2000/svg">
<g clip-path="url(#clip0_211_1730)">
<path d="M22.2347 9.25593C22.2347 9.34068 22.2347 9.42544 22.2426 9.5102C22.2426 9.53066 22.265 9.54917 22.2767 9.56963C22.2894 9.56963 22.3041 9.5745 22.3129 9.56963C23.4388 8.91202 24.4406 9.60372 24.5588 10.9257C24.6564 12.0675 24.2737 13.0612 23.2737 13.7461C22.932 13.9799 22.558 14.0131 22.1644 13.9887C22.1742 13.7237 22.2777 13.4685 22.2406 13.1976C22.2103 12.9697 22.2758 12.8333 22.5267 12.7378C22.9593 12.5722 23.3079 11.9039 23.261 11.4538C23.2103 10.9715 22.9056 10.6374 22.3675 10.4961C22.3081 10.4865 22.2547 10.4544 22.2183 10.4065C22.1819 10.3586 22.1655 10.2986 22.1723 10.2389C22.1723 10.1308 22.1918 9.99731 22.0687 9.9525C21.9232 9.89891 21.8598 10.0499 21.7758 10.1269C20.3241 11.5661 18.875 13.0067 17.4285 14.4485C16.7449 15.1305 16.0848 15.83 15.3612 16.4671C15.0097 16.4525 14.6708 16.586 14.3125 16.5275C13.7031 16.4301 13.084 16.3834 12.5606 15.9966C12.4386 15.906 12.3009 15.9664 12.2091 16.0872C12.1863 16.1121 12.1688 16.1413 12.1577 16.1731C12.1465 16.205 12.142 16.2387 12.1444 16.2724C12.1468 16.306 12.156 16.3388 12.1715 16.3688C12.187 16.3987 12.2084 16.4252 12.2345 16.4467C12.322 16.5312 12.4205 16.6037 12.5274 16.662C13.1856 17.0108 13.8994 17.1218 14.6347 17.1335C14.6347 17.302 14.496 17.3819 14.3935 17.4774C13.543 18.2782 12.8009 19.192 11.8546 19.8964C11.8078 20.064 11.966 20.1117 12.0499 20.1887C13.0056 21.1629 13.9652 22.1336 14.9286 23.1006C14.8544 23.1747 14.7802 23.2487 14.707 23.3237H14.5673C14.1328 22.9175 13.582 22.6837 13.1026 22.3388C12.5977 21.9744 12.0011 21.7426 11.5636 21.2818C11.5509 20.7946 11.6886 20.3075 11.6349 19.8136L10.5393 19.2291C9.30013 18.3523 8.29336 17.2806 7.68208 15.867C7.45651 15.3448 7.2534 14.8139 7.18212 14.244C7.16259 14.0871 7.104 13.9838 6.93604 13.9965C5.78183 14.0774 4.98306 12.8654 4.77409 11.8961C4.65202 11.3427 4.65691 10.7972 4.8815 10.2613C5.24671 9.39232 5.94002 9.11272 6.79445 9.49948C6.8589 9.52968 6.92627 9.55306 7.01611 9.58911C7.0249 9.45954 7.03174 9.35432 7.03857 9.24813C7.44186 8.89644 7.75434 8.46875 8.0717 8.04204C8.6296 7.38152 9.18751 6.72067 9.74541 6.0595C10.1516 6.01468 10.5061 6.27285 10.9074 6.25434C10.9855 6.28623 11.0662 6.31133 11.1486 6.32935C12.1828 6.44646 13.2273 6.43926 14.2597 6.30792C14.7011 6.25824 15.1522 6.24752 15.5829 6.11308C16.6424 6.00104 17.6882 5.79938 18.7301 5.58797C18.8198 5.56174 18.9156 5.5648 19.0034 5.5967C19.0912 5.62859 19.1666 5.68766 19.2184 5.76528C19.8238 6.49107 20.4312 7.21395 21.0512 7.92708C21.4467 8.3801 21.7748 8.87695 22.2347 9.25593ZM15.5136 13.0457C15.5136 12.6706 15.5194 12.2955 15.5136 11.9204C15.5038 11.4284 15.1532 11.0894 14.6562 11.0768C14.541 11.0697 14.4257 11.0863 14.3172 11.1256C14.2088 11.1648 14.1096 11.2259 14.0258 11.305C13.942 11.3841 13.8754 11.4796 13.8302 11.5855C13.7849 11.6913 13.7619 11.8053 13.7627 11.9204C13.7549 12.2955 13.7627 12.6706 13.7627 13.0457C13.7627 13.4578 13.7578 13.8699 13.7627 14.282C13.7686 14.8051 14.1123 15.1539 14.621 15.1588C15.1532 15.1656 15.5087 14.8197 15.5155 14.282C15.5175 13.8718 15.5136 13.4597 15.5136 13.0457ZM7.03857 11.6817C7.03857 11.3895 7.03857 11.0972 7.03857 10.8118C7.03857 10.4883 6.94092 10.4318 6.64016 10.5546C6.2564 10.7095 5.9781 11.1956 6.01814 11.6418C6.06989 12.2263 6.56009 12.693 6.84913 12.7797C7.01611 12.8304 7.03955 12.7553 7.03955 12.6248C7.0376 12.3072 7.0376 11.9935 7.03857 11.6817ZM12.295 10.7894C12.295 10.6802 12.3009 10.5711 12.295 10.463C12.2745 10.1084 12.0665 9.91548 11.7091 9.91645C11.3517 9.91742 11.1437 10.1113 11.1301 10.4669C11.1135 10.7076 11.1154 10.9493 11.1359 11.1898C11.174 11.5161 11.3888 11.6662 11.713 11.6652C12.0372 11.6642 12.2423 11.5122 12.2892 11.1868C12.3005 11.0537 12.3025 10.9199 12.295 10.7864V10.7894ZM18.1403 10.7894C18.1403 10.7173 18.1403 10.6452 18.1403 10.5721C18.1345 10.1249 17.945 9.91353 17.5544 9.91158C17.1638 9.90963 16.9685 10.121 16.9685 10.5663C16.9576 10.7714 16.9599 10.9771 16.9754 11.182C17.0154 11.5083 17.2244 11.6613 17.5495 11.6623C17.8747 11.6632 18.0807 11.5132 18.1305 11.1878C18.1435 11.0557 18.1468 10.9229 18.1403 10.7903V10.7894ZM17.5544 9.03575C17.8327 9.03575 18.111 9.03575 18.3893 9.03575C18.5846 9.03575 18.7243 8.93833 18.7164 8.73179C18.7106 8.54961 18.5797 8.45706 18.3981 8.45609C17.8415 8.45609 17.2849 8.45609 16.7283 8.45609C16.533 8.45609 16.3934 8.55351 16.4002 8.75907C16.4061 8.9432 16.5398 9.03283 16.7195 9.03575C16.9988 9.04062 17.2771 9.0377 17.5554 9.0377L17.5544 9.03575ZM11.7023 9.03575C11.9826 9.03575 12.2618 9.03575 12.5421 9.03575C12.7374 9.03575 12.8799 8.93833 12.8712 8.72985C12.8633 8.54669 12.7296 8.45609 12.547 8.45609C11.9995 8.45609 11.4513 8.45609 10.9026 8.45609C10.7073 8.45609 10.5578 8.53987 10.5559 8.74836C10.5539 8.95684 10.7024 9.04062 10.8986 9.04062L11.7023 9.03575Z" fill="#F0D9CC"/>
<path d="M11.8623 19.8962C12.8056 19.1918 13.5477 18.278 14.4012 17.4772C14.5037 17.3798 14.6404 17.3018 14.6424 17.1333C14.9539 17.105 15.2693 17.1002 15.5759 17.0427C16.0124 16.9599 16.4547 16.881 16.8219 16.5936C16.9674 16.4796 17.0543 16.3344 16.9137 16.1591C16.7965 16.012 16.6618 16.01 16.4987 16.1094C16.1529 16.3074 15.7687 16.4293 15.3718 16.4669C16.0954 15.8298 16.7555 15.1264 17.4391 14.4483C18.8869 13.0097 20.3324 11.5688 21.7757 10.1257C21.8567 10.0468 21.9202 9.89772 22.0686 9.9513C22.1916 9.99612 22.1711 10.1296 22.1721 10.2377C22.1653 10.2974 22.1818 10.3574 22.2182 10.4053C22.2545 10.4532 22.308 10.4853 22.3674 10.4949C22.9055 10.6362 23.2101 10.9703 23.2609 11.4526C23.3087 11.9027 22.9592 12.571 22.5266 12.7366C22.2756 12.834 22.2102 12.9685 22.2405 13.1964C22.2776 13.4673 22.1741 13.7225 22.1643 13.9875C22.01 14.2934 22.0354 14.6402 21.9368 14.9617C21.3831 16.7699 20.2709 18.1572 18.7368 19.2308L17.65 19.8153C16.5651 20.205 15.4529 20.4408 14.2908 20.4106C13.4423 20.3921 12.6494 20.1573 11.8623 19.8962Z" fill="#F0CDC0"/>
<path d="M21.068 34.99H16.459C16.4614 34.8078 16.5033 34.6283 16.582 34.4639C17.0501 33.2058 17.5188 31.9488 17.9882 30.6927C18.661 28.8933 19.3455 27.0968 20.0007 25.2906C20.2175 24.6905 20.4958 24.1098 20.6247 23.4785L20.7302 23.4941C21.3424 23.5983 21.8971 23.9091 22.5162 23.9861L22.5337 27.4037C22.5337 27.6959 22.5337 27.995 22.5337 28.2912C21.1227 28.6536 20.6852 30.0682 21.4381 31.1262C21.4147 31.3746 21.1588 31.4087 21.0299 31.5617C20.901 31.7146 20.8034 31.8111 21.0495 31.9718C21.5465 32.2953 22.0064 32.6742 22.5005 33.0006C22.7525 33.1662 22.7759 33.2734 22.5533 33.4877C22.0416 33.9738 21.5592 34.4873 21.068 34.99Z" fill="#EEF3F4"/>
<path d="M10.9112 6.259C10.5099 6.27459 10.1554 6.01642 9.7492 6.06415C9.73578 6.03015 9.71539 5.99933 9.68932 5.97366C9.66326 5.94799 9.6321 5.92804 9.59785 5.9151C8.6526 5.57217 7.96906 4.89119 7.32848 4.15565C6.5219 2.99632 6.0815 1.70255 5.89694 0.311356C5.86765 0.0911815 5.88327 0.0190895 6.14107 0.077543C7.26013 0.342532 8.40262 0.319151 9.54414 0.331816C11.0538 0.348378 12.5469 0.114563 14.0526 0.0755941C14.0449 0.158783 14.0265 0.24064 13.9979 0.31915C13.4306 1.39859 12.8476 2.46927 12.29 3.55358C11.8272 4.45181 11.2901 5.31497 10.9112 6.259Z" fill="#A57162"/>
<path d="M8.2063 34.9894C5.8051 34.9894 3.40391 34.9836 1.00271 34.9982C0.672658 34.9982 0.56915 34.9008 0.605281 34.5871C0.616515 34.3817 0.616515 34.1758 0.605281 33.9704C1.16676 34.2373 1.76633 34.0678 2.34637 34.1185C2.31902 34.3543 2.42546 34.4293 2.65787 34.4108C2.93318 34.3738 3.21262 34.4371 3.44492 34.589C3.78474 34.819 4.21635 34.6943 4.48684 34.3708C4.616 34.2232 4.68911 34.0351 4.6934 33.8392C4.69768 33.6434 4.63287 33.4522 4.51027 33.2992C4.24467 32.9572 3.7945 32.8189 3.44394 33.0556C3.21147 33.2072 2.93218 33.2705 2.65689 33.2339C2.42546 33.2164 2.31902 33.2914 2.34637 33.5262H1.47338C0.782026 33.5262 0.45783 33.1657 0.623834 32.5042C0.887487 31.455 1.19411 30.4155 1.48315 29.3711H6.15859C6.08828 29.7725 6.40076 29.9439 6.63805 30.1505C7.17707 30.6308 7.72098 31.1042 8.26489 31.5777C8.4387 31.7287 8.42991 31.8193 8.22778 31.9557C7.7698 32.2645 7.33429 32.6065 6.88999 32.9299L6.78062 32.9368C6.31386 32.9689 6.02774 33.1784 5.90763 33.5768C5.85848 33.747 5.86335 33.9282 5.92157 34.0955C5.9798 34.2628 6.08852 34.408 6.23281 34.5111C6.55212 34.7439 6.88803 34.7449 7.27961 34.4799C7.40265 34.4023 7.5511 34.3754 7.69364 34.4049L8.2063 34.9894Z" fill="#CFE1EB"/>
<path d="M21.0676 34.9897C21.5558 34.487 22.0441 33.9736 22.548 33.4855C22.7706 33.2702 22.7433 33.163 22.4952 32.9984C22.0011 32.672 21.5412 32.2931 21.0442 31.9696C20.7981 31.8089 20.885 31.7231 21.0246 31.5595C21.1643 31.3958 21.4094 31.3724 21.4328 31.124C21.9962 31.6998 22.6476 31.9618 23.4414 31.6579C24.2158 31.3656 24.5156 30.7362 24.5839 29.9617C25.7479 29.9228 26.9158 30.0445 28.0769 29.8887C28.4386 30.8249 28.6368 31.8161 28.6628 32.8191C28.6725 33.3891 28.6432 33.9609 28.6715 34.5299C28.6891 34.8855 28.6051 35.0043 28.2175 35.0014C25.8348 34.98 23.4512 34.9897 21.0676 34.9897Z" fill="#CFE1EB"/>
<path d="M10.9111 6.25917C11.29 5.31515 11.8271 4.45198 12.2899 3.55082C12.8475 2.46651 13.4305 1.39584 13.9978 0.316398C14.0264 0.237887 14.0448 0.15603 14.0525 0.0728414C15.5534 -0.0976479 17.021 0.0163368 18.4389 0.572619C18.2319 0.962309 18.0259 1.352 17.8159 1.74169C17.2915 2.71591 16.7515 3.69014 16.2467 4.67313C16.0055 5.14271 15.694 5.58501 15.5866 6.11693C15.1559 6.24845 14.7077 6.25917 14.2634 6.31178C13.231 6.44312 12.1865 6.45031 11.1523 6.33321C11.0699 6.3155 10.9892 6.29073 10.9111 6.25917Z" fill="#9F6D5C"/>
<path d="M15.5869 6.12097C15.6943 5.58905 16.0058 5.14675 16.247 4.67717C16.7519 3.6932 17.2919 2.71898 17.8192 1.74475C18.0291 1.35506 18.2352 0.965374 18.4422 0.575684C20.2506 1.21672 21.3902 2.49004 21.937 4.30015C22.1011 4.84571 22.1323 5.4205 22.1841 5.99237C22.2817 7.08351 22.2026 8.17074 22.2378 9.25895C21.7779 8.87998 21.4498 8.38215 21.066 7.9379C20.4459 7.22477 19.8386 6.50189 19.2331 5.7761C19.1813 5.69848 19.106 5.63941 19.0182 5.60751C18.9303 5.57562 18.8346 5.57256 18.7449 5.59879C17.6922 5.80727 16.6474 6.00894 15.5869 6.12097Z" fill="#9A6955"/>
<path d="M20.6243 23.4751C20.4954 24.1064 20.2171 24.687 20.0004 25.2871C19.3451 27.0934 18.6606 28.8918 17.9878 30.6892C17.5191 31.946 17.0504 33.2031 16.5817 34.4605C16.503 34.6249 16.461 34.8044 16.4586 34.9865H16.0895C15.986 33.5804 15.8818 32.1739 15.777 30.7672C15.7847 30.732 15.7887 30.696 15.7888 30.66C15.7022 29.5624 15.6146 28.4644 15.5261 27.3661C15.5163 27.2473 15.4997 27.1284 15.5876 27.0203C15.8522 26.69 16.111 26.3559 16.3688 26.0227C16.7506 26.3695 16.9547 26.842 17.2476 27.2522C17.566 27.6935 17.5503 27.7013 17.8443 27.2648C18.6958 25.999 19.5483 24.7348 20.4017 23.4722L20.6243 23.4751Z" fill="#CAE1EB"/>
<path d="M13.1838 34.9846H12.8156C12.8125 34.8024 12.7702 34.623 12.6916 34.4585C12.2281 33.2128 11.7633 31.9674 11.2972 30.7223C10.597 28.8421 9.89005 26.9638 9.20455 25.0787C9.00925 24.5467 8.74658 24.0382 8.6499 23.4731L8.86375 23.4683C9.71721 24.7322 10.5697 25.996 11.4212 27.2599C11.7141 27.6983 11.7005 27.6906 12.0178 27.2483C12.3108 26.8391 12.5197 26.3656 12.8967 26.0188C13.1076 26.2838 13.3087 26.5566 13.5314 26.8108C13.7267 27.0291 13.7491 27.2541 13.7267 27.5425C13.629 28.6141 13.5695 29.6858 13.4962 30.7642C13.3921 32.1717 13.2879 33.5784 13.1838 34.9846Z" fill="#CAE1EB"/>
<path d="M28.0773 29.8876C26.9162 30.0435 25.7483 29.9217 24.5844 29.9606C24.4652 29.076 23.9737 28.5185 23.1099 28.2879V27.4004L23.1274 24.3452C24.1515 24.8483 25.0801 25.5255 25.8714 26.3463C26.8479 27.3673 27.6154 28.5363 28.0773 29.8876Z" fill="#CAE1EB"/>
<path d="M8.64983 23.4751C8.74748 24.0401 9.01113 24.5467 9.20447 25.0806C9.88802 26.9657 10.597 28.8441 11.2971 30.7243C11.7613 31.97 12.2261 33.2154 12.6915 34.4605C12.7701 34.625 12.8124 34.8044 12.8155 34.9865H8.2065L7.69775 34.4166C7.88523 34.3406 8.25532 34.5803 8.21919 34.1166C8.5473 34.1166 8.87735 34.0922 9.2035 34.1166C10.1995 34.1916 10.7092 33.2963 10.5071 32.437C10.3851 31.9197 10.2425 31.4082 10.1068 30.8948L8.94961 26.5283C8.87735 26.2614 8.79239 25.9974 8.73478 25.7275C8.56975 24.9481 8.36957 24.1989 7.60303 23.7703C7.93601 23.6173 8.29829 23.5676 8.64983 23.4751Z" fill="#EEF3F4"/>
<path d="M7.60309 23.7742C8.36963 24.2029 8.56981 24.955 8.73484 25.7315C8.79245 26.0013 8.87741 26.2653 8.94967 26.5323C8.87253 26.7973 8.6079 26.7164 8.43701 26.808C8.33936 26.4504 8.19093 26.0997 8.14406 25.7363C8.02884 24.8946 7.54742 24.3539 6.82287 23.9827C6.49379 23.7363 6.16862 23.4849 5.83466 23.2443C5.44406 22.9608 5.13061 22.9647 4.73513 23.2501C4.17462 23.6544 3.6229 24.0714 3.05654 24.4669C2.85342 24.6006 2.70673 24.8041 2.64446 25.0388C2.48041 25.6311 2.30659 26.2215 2.13668 26.8138L1.61914 26.6852C1.7395 25.9573 1.9325 25.2432 2.19527 24.5536C2.2739 24.3622 2.40739 24.1982 2.57903 24.0821C3.1991 23.634 3.77914 23.1147 4.44413 22.7523C4.92359 22.4902 5.04858 22.1453 5.16771 21.6758C5.5671 20.0995 6.71838 19.247 8.35694 19.2402C9.08638 19.2402 9.81484 19.2334 10.5443 19.2285L11.6399 19.8131C10.5332 19.8169 9.42847 19.8205 8.32569 19.8238C7.01817 19.8286 6.18229 20.4405 5.78095 21.6836C5.70283 21.9252 5.571 22.1882 5.65889 22.4191C5.71064 22.5565 5.97137 22.6071 6.12663 22.7114C6.62073 23.067 7.11093 23.4226 7.60309 23.7742Z" fill="#4F4F4F"/>
<path d="M13.1836 34.9845C13.2884 33.5784 13.3926 32.1722 13.4961 30.7661H15.7772C15.882 32.1729 15.9861 33.5793 16.0896 34.9855L13.1836 34.9845Z" fill="#1C79AC"/>
<path d="M23.1241 24.3466L23.1065 27.4018H22.5333L22.5158 23.9842C22.5158 23.6208 22.5275 23.2574 22.5265 22.895C22.5265 21.3265 21.4836 20.1341 19.9232 19.8895C19.1615 19.7707 18.3969 19.8662 17.6343 19.8214H17.645L18.7319 19.2368C19.3744 19.2553 20.015 19.2466 20.6399 19.4589C22.172 19.9782 23.1056 21.2486 23.1124 22.859C23.1144 23.35 23.1202 23.8478 23.1241 24.3466Z" fill="#4F4F4F"/>
<path d="M1.61633 26.6851L2.13387 26.8137C1.98642 27.4284 1.84092 28.0451 1.63781 28.6452C1.58801 28.8897 1.54016 29.1323 1.48743 29.3788C1.19448 30.4232 0.891768 31.4627 0.628115 32.5119C0.462111 33.1734 0.786306 33.5339 1.47766 33.5339H2.35065V34.1184C1.77061 34.0658 1.17104 34.2373 0.609561 33.9703C0.366189 33.8135 0.180014 33.5825 0.078686 33.3117C-0.0226419 33.0409 -0.0337177 32.7447 0.0471022 32.4671C0.530466 30.5401 1.06949 28.6277 1.58801 26.7094C1.59387 26.6997 1.60949 26.6919 1.61633 26.6851Z" fill="#BDBFC1"/>
<path d="M7.32859 4.15332C7.96917 4.88886 8.65272 5.56984 9.59796 5.91277C9.63221 5.92571 9.66337 5.94566 9.68944 5.97133C9.7155 5.997 9.7359 6.02783 9.74932 6.06183L8.07463 8.04437C7.74067 7.46666 7.60201 6.81198 7.34422 6.20504C7.27977 6.05306 7.27098 5.86503 7.05615 5.82996C7.06006 5.25712 7.11474 4.69207 7.32859 4.15332Z" fill="#9A6955"/>
<path d="M7.05615 5.83008C7.27098 5.86515 7.27977 6.05318 7.34422 6.20516C7.60201 6.8121 7.74067 7.47165 8.07463 8.04449C7.76118 8.46731 7.44577 8.89889 7.04248 9.24669C7.04769 8.10944 7.05225 6.97057 7.05615 5.83008Z" fill="#9F6D5C"/>
<path d="M12.9003 26.0204C12.5194 26.3672 12.3144 26.8407 12.0214 27.2498C11.7041 27.6921 11.7197 27.6999 11.4248 27.2615C10.5713 25.997 9.71756 24.7331 8.86345 23.4699C8.85817 23.4038 8.87123 23.3376 8.9012 23.2785C8.93118 23.2193 8.9769 23.1696 9.03336 23.1347C9.55676 22.7353 10.0626 22.3105 10.6036 21.9374C10.9219 21.7172 11.1445 21.3529 11.5674 21.2856C12.0048 21.7465 12.6015 21.9783 13.1063 22.3427C13.5819 22.6876 14.1326 22.9214 14.571 23.3276C14.5164 23.6618 14.1922 23.8556 14.1258 24.184C13.6591 24.7554 13.2488 25.3704 12.9003 26.0204Z" fill="#EEF3F4"/>
<path d="M20.4097 23.47C19.5576 24.7339 18.7051 25.9981 17.8523 27.2626C17.5594 27.6991 17.574 27.6913 17.2557 27.25C16.9627 26.8398 16.7547 26.3673 16.3768 26.0205C16.0311 25.3698 15.6219 24.7547 15.1552 24.1841C15.0888 23.8558 14.7646 23.6609 14.7109 23.3277C14.7842 23.2527 14.8584 23.1787 14.9326 23.1046C15.8847 22.5649 16.7879 21.9512 17.7097 21.3578C17.7533 21.3254 17.8075 21.3102 17.8617 21.3155C17.9159 21.3207 17.9661 21.3459 18.0027 21.3861C18.6335 21.8849 19.2868 22.3603 19.902 22.8737C20.0885 23.0374 20.4273 23.1124 20.4097 23.47Z" fill="#EEF3F4"/>
<path d="M11.5697 21.2855C11.1469 21.3508 10.9242 21.7171 10.6059 21.9373C10.0649 22.3104 9.5591 22.7352 9.0357 23.1346C8.97924 23.1695 8.93352 23.2193 8.90354 23.2784C8.87357 23.3375 8.86051 23.4037 8.86579 23.4698L8.65194 23.4746C8.3004 23.5662 7.93812 23.6169 7.60514 23.7737C7.11689 23.422 6.62279 23.0664 6.12771 22.7196C5.97244 22.6115 5.71172 22.5608 5.65997 22.4273C5.57208 22.1964 5.70391 21.9334 5.78203 21.6918C6.18337 20.4487 7.01924 19.8408 8.32677 19.832C9.43346 19.8268 10.5382 19.8232 11.641 19.8213C11.6927 20.3103 11.5551 20.7945 11.5697 21.2855Z" fill="white"/>
<path d="M17.7056 21.3576C16.7867 21.9509 15.8805 22.5647 14.9284 23.1044C13.9676 22.1354 13.008 21.1647 12.0497 20.1925C11.9697 20.1116 11.8115 20.0639 11.8544 19.9002C12.6454 20.1584 13.4383 20.3961 14.282 20.4165C15.444 20.4467 16.5562 20.2139 17.6411 19.8213H17.6304C17.6236 20.3337 17.7485 20.8394 17.7056 21.3576Z" fill="#EFB8A5"/>
<path d="M15.5138 13.0464C15.5138 13.4575 15.5138 13.8696 15.5138 14.2817C15.5069 14.8214 15.1515 15.1673 14.6193 15.1585C14.1105 15.1527 13.7668 14.8039 13.761 14.2817C13.7561 13.8696 13.761 13.4575 13.761 13.0454L15.5138 13.0464Z" fill="#EFB8A5"/>
<path d="M15.5137 13.0457H13.7609C13.7609 12.6706 13.754 12.2955 13.7609 11.9205C13.7601 11.8054 13.7831 11.6914 13.8283 11.5855C13.8736 11.4796 13.9402 11.3842 14.024 11.3051C14.1078 11.2259 14.2069 11.1649 14.3154 11.1256C14.4238 11.0863 14.5392 11.0697 14.6543 11.0768C15.1514 11.0895 15.5019 11.4285 15.5117 11.9205C15.5195 12.2985 15.5137 12.6735 15.5137 13.0457Z" fill="#F0CDC0"/>
<path d="M15.3649 16.4678C15.7618 16.4301 16.146 16.3082 16.4918 16.1102C16.6548 16.0128 16.7847 16.0128 16.9068 16.1599C17.0474 16.3353 16.9605 16.4805 16.815 16.5944C16.4517 16.8818 16.0055 16.9607 15.569 17.0436C15.2624 17.101 14.947 17.1059 14.6355 17.1342C13.9002 17.1225 13.1863 17.0114 12.5282 16.6626C12.4213 16.6043 12.3228 16.5319 12.2352 16.4473C12.2092 16.4259 12.1877 16.3994 12.1722 16.3694C12.1567 16.3395 12.1475 16.3067 12.1451 16.273C12.1428 16.2394 12.1473 16.2056 12.1584 16.1738C12.1695 16.142 12.187 16.1127 12.2098 16.0878C12.3016 15.967 12.4393 15.9066 12.5614 15.9972C13.0848 16.3869 13.7039 16.4298 14.3132 16.5282C14.6745 16.5866 15.0134 16.4561 15.3649 16.4678Z" fill="#EFB8A5"/>
<path d="M7.03843 11.6822C7.03843 11.9969 7.03843 12.3106 7.03843 12.6252C7.03843 12.7558 7.01499 12.8308 6.84801 12.7802C6.55506 12.6934 6.06682 12.2248 6.01701 11.6423C5.97698 11.1961 6.25528 10.7099 6.63904 10.555C6.94175 10.4323 7.02964 10.4888 7.03745 10.8122C7.04135 11.0977 7.03843 11.3899 7.03843 11.6822Z" fill="#F0CDC0"/>
<path d="M12.2952 10.787C12.3045 10.9193 12.3045 11.0521 12.2952 11.1845C12.2484 11.5098 12.0443 11.6618 11.7191 11.6628C11.3939 11.6638 11.1801 11.5137 11.142 11.1874C11.1215 10.9469 11.1195 10.7053 11.1361 10.4645C11.1498 10.1079 11.3598 9.91406 11.7152 9.91406C12.0707 9.91406 12.2796 10.1089 12.3011 10.4606C12.3079 10.5687 12.3011 10.6779 12.3011 10.787H12.2952Z" fill="#532721"/>
<path d="M18.1405 10.7909C18.1503 10.9235 18.1503 11.0567 18.1405 11.1893C18.0907 11.5147 17.8837 11.6647 17.5595 11.6638C17.2353 11.6628 17.0253 11.5098 16.9853 11.1835C16.9698 10.9786 16.9675 10.7729 16.9785 10.5678C16.9785 10.1225 17.1738 9.91212 17.5644 9.91309C17.9549 9.91406 18.1405 10.1264 18.1502 10.5736C18.1502 10.6467 18.1502 10.7188 18.1502 10.7909H18.1405Z" fill="#532721"/>
<path d="M17.5553 9.03767C17.277 9.03767 16.9987 9.03767 16.7204 9.03767C16.5408 9.03767 16.407 8.94025 16.4011 8.76099C16.3943 8.55738 16.532 8.45898 16.7292 8.45801C17.2858 8.45801 17.8424 8.45801 18.399 8.45801C18.5807 8.45801 18.7115 8.55543 18.7174 8.73371C18.7252 8.9383 18.5875 9.03475 18.3902 9.03767C18.1119 9.04059 17.8336 9.03767 17.5553 9.03767Z" fill="#7B5B56"/>
<path d="M11.7031 9.03815H10.8994C10.7041 9.03815 10.5547 8.95144 10.5567 8.74588C10.5586 8.54032 10.707 8.45361 10.9033 8.45361C11.4521 8.45361 12.0002 8.45361 12.5477 8.45361C12.7303 8.45361 12.8641 8.54422 12.8719 8.72737C12.8807 8.93391 12.7411 9.03036 12.5428 9.03328C12.2626 9.04107 11.9833 9.03815 11.7031 9.03815Z" fill="#7B5B56"/>
<path d="M14.707 23.3281C14.7617 23.6613 15.0849 23.8562 15.1513 24.1845H14.1221C14.1885 23.8562 14.5127 23.6623 14.5674 23.3281H14.707Z" fill="#CAE1EB"/>
<path d="M17.706 21.3586C17.7489 20.8432 17.622 20.3347 17.6347 19.8203C18.3973 19.8651 19.1619 19.7697 19.9236 19.8885C21.486 20.133 22.523 21.3255 22.5269 22.894C22.5269 23.2564 22.5201 23.6198 22.5162 23.9832C21.8971 23.9062 21.3444 23.5935 20.7302 23.4912L20.6247 23.4756L20.4099 23.4707C20.4275 23.1132 20.0886 23.0382 19.8943 22.8745C19.2791 22.3572 18.6248 21.8857 17.995 21.3869C17.9586 21.3477 17.9091 21.3232 17.8559 21.318C17.8026 21.3128 17.7493 21.3272 17.706 21.3586Z" fill="white"/>
<path d="M23.1098 28.2871C23.975 28.517 24.4665 29.0746 24.5843 29.9599C24.5159 30.7392 24.2162 31.3588 23.4418 31.656C22.6479 31.9599 21.9966 31.6979 21.4332 31.1221C20.6803 30.0641 21.1177 28.6495 22.5288 28.2871H23.1098ZM22.8022 29.1639C22.6284 29.1666 22.4594 29.2207 22.3164 29.3192C22.1735 29.4177 22.063 29.5564 21.999 29.7175C21.9349 29.8787 21.9202 30.0552 21.9567 30.2247C21.9932 30.3942 22.0792 30.5491 22.2039 30.6698C22.3286 30.7906 22.4864 30.8717 22.6573 30.903C22.8282 30.9343 23.0046 30.9143 23.1641 30.8457C23.3237 30.777 23.4592 30.6626 23.5537 30.5171C23.6481 30.3716 23.6972 30.2014 23.6947 30.028C23.6901 29.7949 23.5935 29.5729 23.4258 29.4104C23.2582 29.2479 23.033 29.1579 22.7993 29.16L22.8022 29.1639Z" fill="#4F4F4F"/>
<path d="M23.1098 28.2874H22.5288C22.5288 27.9952 22.5288 27.6961 22.5288 27.3999H23.102L23.1098 28.2874Z" fill="#BDBFC1"/>
<path d="M6.81959 23.9805C7.54415 24.3526 8.02556 24.8933 8.14079 25.7341C8.19059 26.0984 8.33609 26.4492 8.43374 26.8057C8.82434 28.2865 9.21102 29.767 9.59381 31.2472C9.72954 31.7704 9.93265 32.2828 9.95218 32.8294C9.96878 33.3048 9.7354 33.5259 9.26864 33.5288C8.9171 33.5288 8.56556 33.5288 8.21305 33.5288C8.18083 33.409 8.26578 33.1966 8.01189 33.2434C7.58712 33.3213 7.23851 33.1362 6.88795 32.9453C7.33225 32.617 7.76679 32.275 8.22574 31.9711C8.42788 31.8347 8.43667 31.7441 8.26285 31.5931C7.71895 31.1196 7.17504 30.6461 6.63601 30.1658C6.39873 29.9554 6.08625 29.7839 6.15656 29.3864C6.20333 29.1992 6.2292 29.0075 6.2337 28.8146C6.27374 28.23 6.33135 27.6387 6.38896 27.0512C6.48075 26.077 6.57352 25.106 6.66726 24.1383L6.81959 23.9805Z" fill="#EEF3F4"/>
<path d="M6.67346 24.1284C6.58036 25.0987 6.4876 26.0697 6.39515 27.0413C6.33949 27.6259 6.27993 28.2163 6.23989 28.8047C6.2354 28.9976 6.20952 29.1894 6.16275 29.3766H1.4873C1.53711 29.132 1.58495 28.8895 1.63768 28.643C1.72166 28.643 1.76365 28.5923 1.80174 28.5241C2.39552 27.4312 3.19177 26.4606 4.14825 25.6638C4.91772 25.0335 5.73895 24.4869 6.67346 24.1284Z" fill="#CAE1EB"/>
<path d="M2.35039 34.1183V33.5338C2.32305 33.298 2.42949 33.223 2.66092 33.2415C2.9362 33.2781 3.2155 33.2148 3.44797 33.0632C3.79853 32.8265 4.24869 32.9658 4.5143 33.3068C4.63689 33.4598 4.7017 33.651 4.69742 33.8469C4.69314 34.0427 4.62003 34.2309 4.49086 34.3784C4.22037 34.7019 3.78877 34.8266 3.44895 34.5967C3.21665 34.4447 2.9372 34.3814 2.66189 34.4184C2.42949 34.4291 2.32305 34.3541 2.35039 34.1183Z" fill="#4F4F4F"/>
<path d="M6.89389 32.9438C7.24445 33.1387 7.59306 33.3199 8.01783 33.242C8.27172 33.1952 8.18676 33.4076 8.21899 33.5274V34.1188C8.25512 34.5825 7.88503 34.3428 7.69754 34.4188C7.555 34.3893 7.40655 34.4162 7.28351 34.4938C6.89291 34.7588 6.55602 34.7579 6.23671 34.525C6.09243 34.4219 5.9837 34.2767 5.92548 34.1094C5.86725 33.9421 5.86238 33.7609 5.91154 33.5907C6.03165 33.1923 6.31776 32.9828 6.78452 32.9507L6.89389 32.9438Z" fill="#4F4F4F"/>
<path d="M14.122 24.1836H15.1512C15.6179 24.7542 16.0271 25.3693 16.3728 26.02C16.1111 26.3532 15.8523 26.6874 15.5916 27.0176C15.5037 27.1258 15.5203 27.2446 15.5301 27.3635C15.6173 28.4611 15.7049 29.559 15.7928 30.6573C15.7927 30.6934 15.7887 30.7293 15.781 30.7645H13.4961C13.5693 29.6928 13.6269 28.6144 13.7265 27.5427C13.7529 27.2505 13.7265 27.0293 13.5312 26.8111C13.3086 26.5568 13.1074 26.284 12.8965 26.019C13.245 25.3694 13.6554 24.7548 14.122 24.1836Z" fill="#248DBD"/>
<path d="M8.21924 34.119V33.5276C8.57175 33.5276 8.92329 33.5335 9.27483 33.5276C9.73866 33.5276 9.97204 33.3036 9.95837 32.8281C9.93884 32.2816 9.73573 31.7692 9.6 31.246C9.21721 29.7639 8.83052 28.2834 8.43993 26.8045C8.61081 26.7129 8.87544 26.7938 8.95258 26.5288L10.1048 30.8982C10.2406 31.4116 10.3831 31.9231 10.5052 32.4404C10.7073 33.2997 10.1976 34.194 9.20159 34.12C8.87739 34.0946 8.54734 34.118 8.21924 34.119Z" fill="#BDBFC1"/>
<path d="M6.67347 24.1289C5.73896 24.4874 4.91578 25.0339 4.15021 25.6642C3.19409 26.4611 2.39817 27.4317 1.80468 28.5246C1.76659 28.5928 1.7246 28.6444 1.64062 28.6434C1.84569 28.0433 1.98923 27.4266 2.13668 26.8119C2.30659 26.2195 2.48041 25.6292 2.64446 25.0368C2.70673 24.8022 2.85342 24.5986 3.05654 24.465C3.6229 24.0694 4.17462 23.6525 4.73513 23.2482C5.13061 22.9627 5.44113 22.9559 5.83466 23.2423C6.16862 23.483 6.49379 23.7294 6.82287 23.9808L6.67347 24.1289Z" fill="white"/>
<path d="M22.7994 29.1604C22.9731 29.1562 23.1442 29.2035 23.291 29.2963C23.4378 29.3892 23.5537 29.5233 23.6241 29.6818C23.6945 29.8404 23.7162 30.0162 23.6865 30.187C23.6567 30.3579 23.5769 30.516 23.457 30.6416C23.3372 30.7672 23.1827 30.8545 23.0131 30.8925C22.8435 30.9305 22.6665 30.9174 22.5043 30.855C22.3422 30.7926 22.2022 30.6837 22.1021 30.5419C22.002 30.4002 21.9463 30.232 21.942 30.0587C21.9383 29.8267 22.0261 29.6025 22.1865 29.4345C22.3468 29.2665 22.5669 29.168 22.7994 29.1604ZM22.8199 29.7449C22.6461 29.7713 22.5269 29.8638 22.5328 30.0479C22.5316 30.0844 22.5381 30.1207 22.5518 30.1545C22.5655 30.1883 22.586 30.219 22.6122 30.2444C22.6384 30.2699 22.6696 30.2897 22.7038 30.3025C22.7381 30.3153 22.7746 30.3208 22.8111 30.3188C22.8506 30.3229 22.8905 30.3182 22.9279 30.305C22.9653 30.2917 22.9993 30.2703 23.0274 30.2423C23.0555 30.2143 23.0769 30.1804 23.0902 30.1431C23.1034 30.1057 23.1082 30.0659 23.104 30.0265C23.1001 29.857 22.9878 29.7693 22.8228 29.742L22.8199 29.7449Z" fill="#BDBFC1"/>
<path d="M22.8224 29.7427C22.9874 29.77 23.0997 29.8576 23.1036 30.0223C23.1077 30.0617 23.103 30.1015 23.0898 30.1388C23.0765 30.1762 23.0551 30.2101 23.027 30.2381C22.9989 30.2661 22.9649 30.2875 22.9275 30.3007C22.8901 30.314 22.8501 30.3187 22.8107 30.3145C22.7742 30.3166 22.7376 30.311 22.7034 30.2982C22.6692 30.2854 22.638 30.2657 22.6118 30.2402C22.5856 30.2147 22.565 30.1841 22.5514 30.1503C22.5377 30.1165 22.5312 30.0802 22.5324 30.0437C22.5294 29.8615 22.6486 29.769 22.8224 29.7427Z" fill="#4F4F4F"/>
</g>
<defs>
<clipPath id="clip0_211_1730">
<rect width="28.6747" height="35" fill="white"/>
</clipPath>
</defs>
</svg>
