<svg width="19" height="20" viewBox="0 0 19 20" fill="none" xmlns="http://www.w3.org/2000/svg">
<path d="M9.49879 0.634766C4.32704 0.634766 0.133789 4.82762 0.133789 9.99977C0.133789 15.1719 4.32664 19.3648 9.49879 19.3648C14.6709 19.3648 18.8638 15.1719 18.8638 9.99977C18.8638 4.82762 14.6709 0.634766 9.49879 0.634766ZM9.49879 18.1936C4.98031 18.1936 1.30451 14.5178 1.30451 9.99936C1.30451 5.48093 4.98035 1.80509 9.49879 1.80509C14.0172 1.80509 17.6931 5.48093 17.6931 9.99936C17.6931 14.5178 14.0172 18.1936 9.49879 18.1936Z" fill="#80C342"/>
<path d="M10.4782 6.09766H9.30743V9.41518H5.99007V10.5848H9.30743V13.9023H10.4782V10.5848H13.7948V9.41518H10.4782V6.09766Z" fill="#80C342"/>
</svg>
