<svg width="37" height="37" viewBox="0 0 37 37" fill="none" xmlns="http://www.w3.org/2000/svg">
<rect width="37" height="37" rx="9" fill="#FF5E5B"/>
<path d="M13.0429 16.8527L13.5819 18.4698L14.9895 15.475L16.397 18.4698L16.936 16.8527L18.8825 17.9608L17.1455 14.2471C17.4749 13.798 17.6546 13.2589 17.6546 12.6898C17.6546 11.2223 16.4568 10.0244 14.9892 10.0244C13.5217 10.0244 12.3238 11.2222 12.3238 12.6898C12.3238 13.2589 12.5035 13.7978 12.8329 14.2471L11.0959 17.9608L13.0429 16.8527ZM13.7317 13.888C13.4321 13.5585 13.2525 13.1393 13.2525 12.72C13.2525 11.7616 14.0311 10.983 14.9596 10.983C15.9181 10.983 16.6966 11.7616 16.6966 12.72C16.6966 13.1691 16.517 13.5884 16.2174 13.888L16.0077 14.1276L16.7564 15.7148L16.397 15.5051L16.2473 15.9843L15.4986 14.3971L15.1691 14.4269H14.7797L14.4503 14.3971L13.7016 15.9843L13.552 15.5051L13.1927 15.7148L13.9414 14.1276L13.7317 13.888Z" fill="white"/>
<path d="M12.414 22.1836H23.8242V23.1119H12.414V22.1836Z" fill="white"/>
<path d="M12.4141 24.6689H23.8243V25.5973H12.4141V24.6689Z" fill="white"/>
<path d="M24.0638 7H12.6836C10.6472 7 9 8.6472 9 10.6836V26.3164C9 28.3528 10.6472 30 12.6836 30H24.0638C26.1002 30 27.7474 28.3528 27.7474 26.3164V10.6836C27.7474 8.6472 26.1002 7 24.0636 7H24.0638ZM26.8192 26.3165C26.8192 27.8438 25.5913 29.0717 24.064 29.0717H12.6837C11.1564 29.0717 9.9285 27.8438 9.9285 26.3165L9.92829 10.6836C9.92829 9.15631 11.1562 7.92839 12.6835 7.92839H24.0638C25.5911 7.92839 26.819 9.15631 26.819 10.6836L26.8192 26.3165Z" fill="white"/>
<path d="M19.9011 10.9531H23.8242V11.8815H19.9011V10.9531Z" fill="white"/>
<path d="M19.9011 18.4404H23.8243V19.3688H19.9011V18.4404Z" fill="white"/>
<path d="M19.9011 14.6963H23.8243V15.6246H19.9011V14.6963Z" fill="white"/>
</svg>
