<svg width="37" height="37" viewBox="0 0 37 37" fill="none" xmlns="http://www.w3.org/2000/svg">
<rect width="37" height="37" rx="9" fill="#A73B6B"/>
<path d="M18.5 8C21.6756 8 24.5511 9.28713 26.6316 11.3684C28.7129 13.4497 30 16.3248 30 19.5C30 22.6756 28.7129 25.5511 26.6316 27.6316C24.5503 29.7129 21.6752 31 18.5 31C15.3244 31 12.4489 29.7129 10.3684 27.6316C8.28713 25.5503 7 22.6752 7 19.5C7 16.3244 8.28713 13.4489 10.3684 11.3684C12.4497 9.28713 15.3248 8 18.5 8ZM18.5 12.2154C19.4499 12.2154 20.3095 12.6006 20.932 13.2231C21.5544 13.8455 21.9396 14.7052 21.9396 15.655C21.9396 16.6042 21.5544 17.4646 20.932 18.087C20.3095 18.7095 19.4499 19.0947 18.5 19.0947C17.5501 19.0947 16.6905 18.7095 16.068 18.087C15.4456 17.4646 15.0604 16.6041 15.0604 15.655C15.0604 14.7052 15.4456 13.8455 16.068 13.2231C16.6905 12.6006 17.5501 12.2154 18.5 12.2154ZM20.0583 14.0968C19.6598 13.6984 19.1091 13.4512 18.5 13.4512C17.8916 13.4512 17.3404 13.6975 16.9417 14.0968C16.5425 14.4953 16.2961 15.046 16.2961 15.6551C16.2961 16.2635 16.5425 16.814 16.9417 17.2133C17.3402 17.6118 17.891 17.859 18.5 17.859C19.1084 17.859 19.6596 17.6126 20.0583 17.2133C20.4576 16.8149 20.7039 16.2641 20.7039 15.6551C20.7039 15.046 20.4575 14.4955 20.0583 14.0968ZM10.2909 25.6634C10.7964 24.3144 11.7188 23.1336 12.9236 22.2387C14.4289 21.1199 16.3765 20.4445 18.5003 20.4445C20.6231 20.4445 22.5714 21.1198 24.0769 22.2387C25.2817 23.1336 26.2041 24.3144 26.7096 25.6634C28.0002 23.9476 28.7649 21.8134 28.7649 19.5008C28.7649 16.6661 27.6158 14.1002 25.7583 12.2427C23.9008 10.3852 21.3346 9.23608 18.5001 9.23608C15.6654 9.23608 13.0995 10.3852 11.242 12.2427C9.38448 14.1002 8.23537 16.6664 8.23537 19.5008C8.23537 21.8132 9.00008 23.9472 10.2906 25.6634H10.2909ZM25.7594 26.7577C25.4243 25.3614 24.5546 24.1292 23.343 23.228C22.0446 22.2634 20.3534 21.6804 18.5002 21.6804C16.6476 21.6804 14.9564 22.2627 13.6574 23.228C12.4449 24.1286 11.5752 25.3615 11.2409 26.7577L11.2424 26.7592C13.0999 28.6167 15.6661 29.7658 18.5006 29.7658C21.3353 29.7658 23.9012 28.6167 25.7587 26.7592L25.7602 26.7577H25.7594Z" fill="white"/>
</svg>
