<svg width="37" height="37" viewBox="0 0 37 37" fill="none" xmlns="http://www.w3.org/2000/svg">
<rect width="37" height="37" rx="9" fill="#2BC999"/>
<path d="M21.0326 23.7393C20.7502 23.7393 20.5215 23.9681 20.5215 24.2503C20.5215 24.5327 20.7502 24.7616 21.0326 24.7616H23.0514C23.3337 24.7616 23.5626 24.5327 23.5626 24.2503C23.5626 23.9681 23.3337 23.7393 23.0514 23.7393H21.0326Z" fill="white"/>
<path d="M24.7738 23.7363C24.567 23.7363 24.3807 23.8608 24.3015 24.0519C24.2224 24.2428 24.2661 24.4626 24.4122 24.6088C24.5584 24.7549 24.7784 24.7988 24.9693 24.7196C25.1604 24.6405 25.2848 24.4542 25.2848 24.2474C25.2848 24.1119 25.231 23.9818 25.1351 23.8861C25.0394 23.7902 24.9092 23.7363 24.7738 23.7363L24.7738 23.7363Z" fill="white"/>
<path d="M29.4888 17.9865C29.2065 17.9865 28.9778 18.2152 28.9778 18.4975C28.9747 20.906 28.1422 23.24 26.6202 25.1065C25.0981 26.9729 22.9796 28.2581 20.621 28.7457C18.2624 29.2333 15.8079 28.8933 13.6708 27.7832C11.5334 26.6732 9.84363 24.8606 8.88588 22.6511C7.92827 20.4412 7.7612 17.9689 8.41278 15.6502C9.0645 13.3317 10.4949 11.3082 12.4635 9.92064C14.432 8.53324 16.8186 7.86614 19.2212 8.03193C21.624 8.19772 23.896 9.18619 25.6557 10.831H24.378C24.0956 10.831 23.8669 11.0599 23.8669 11.3421C23.8669 11.6245 24.0956 11.8532 24.378 11.8532H26.9335C27.069 11.8532 27.1991 11.7993 27.2949 11.7036C27.3908 11.6077 27.4446 11.4777 27.4446 11.3421V8.7865C27.4446 8.50431 27.2157 8.27543 26.9335 8.27543C26.6512 8.27543 26.4225 8.50432 26.4225 8.7865V10.164C24.5028 8.33978 22.0124 7.23385 19.3718 7.03315C16.7312 6.83225 14.1023 7.54905 11.9291 9.06214C9.75593 10.5752 8.17133 12.7919 7.44331 15.3379C6.71511 17.8839 6.88802 20.6033 7.93266 23.0366C8.9773 25.4699 10.8298 27.4682 13.1775 28.694C15.5249 29.9197 18.2234 30.2977 20.8174 29.7641C23.4113 29.2306 25.7414 27.8182 27.4149 25.7655C29.0879 23.7128 30.0013 21.1458 30.0007 18.4976C30.0007 18.3621 29.9469 18.232 29.851 18.1363C29.7553 18.0404 29.6251 17.9865 29.4897 17.9865L29.4888 17.9865Z" fill="white"/>
<path d="M26.8055 21.245V14.2171C26.8055 14.0817 26.7516 13.9515 26.6557 13.8558C26.56 13.7599 26.4299 13.7061 26.2944 13.7061H12.2387C11.9563 13.7061 11.7276 13.9349 11.7276 14.2171V15.2393H10.7055L10.7053 15.2394C10.4231 15.2394 10.1942 15.4682 10.1942 15.7505V22.7784C10.1942 22.9138 10.248 23.044 10.344 23.1397C10.4397 23.2356 10.5698 23.2894 10.7053 23.2894H24.761C24.8967 23.2894 25.0266 23.2356 25.1225 23.1397C25.2182 23.044 25.2721 22.9138 25.2721 22.7784V21.7562H26.2942L26.2944 21.756C26.4299 21.756 26.56 21.7022 26.6557 21.6065C26.7516 21.5106 26.8055 21.3806 26.8055 21.245L26.8055 21.245ZM24.2499 22.2671H11.2164V16.2615H24.2499V22.2671ZM25.7833 20.7337H25.2722L25.2721 15.7503C25.2721 15.6146 25.2182 15.4847 25.1225 15.3888C25.0266 15.2931 24.8966 15.2392 24.761 15.2392H12.7497V14.7282H25.7832L25.7833 20.7337Z" fill="white"/>
<path d="M17.7331 21.564C18.3431 21.564 18.9282 21.3217 19.3596 20.8903C19.7908 20.4591 20.0332 19.874 20.0332 19.264C20.0332 18.654 19.7908 18.0689 19.3596 17.6375C18.9282 17.2063 18.3431 16.9639 17.7331 16.9639C17.1231 16.9639 16.538 17.2063 16.1068 17.6375C15.6754 18.0689 15.4331 18.654 15.4331 19.264C15.4331 19.874 15.6754 20.4591 16.1068 20.8903C16.538 21.3217 17.1231 21.564 17.7331 21.564ZM17.7331 17.9863C18.072 17.9863 18.3969 18.1209 18.6367 18.3605C18.8763 18.6002 19.0109 18.9252 19.0109 19.2641C19.0109 19.603 18.8763 19.9279 18.6367 20.1675C18.3969 20.4073 18.072 20.5419 17.7331 20.5419C17.3942 20.5419 17.0692 20.4073 16.8296 20.1675C16.5899 19.9279 16.4553 19.603 16.4553 19.2641C16.4553 18.9252 16.5899 18.6002 16.8296 18.3605C17.0692 18.1209 17.3942 17.9863 17.7331 17.9863Z" fill="white"/>
</svg>
