<svg width="31" height="30" viewBox="0 0 31 30" fill="none" xmlns="http://www.w3.org/2000/svg">
<path d="M11.8446 3.75C13.8148 3.75 15.7043 4.53265 17.0974 5.92578C18.4905 7.31891 19.2732 9.20839 19.2732 11.1786C19.2732 13.0186 18.5989 14.71 17.4903 16.0129L17.7989 16.3214H18.7017L24.416 22.0357L22.7017 23.75L16.9874 18.0357V17.1329L16.6789 16.8243C15.376 17.9329 13.6846 18.6071 11.8446 18.6071C9.87441 18.6071 7.98492 17.8245 6.59179 16.4314C5.19867 15.0382 4.41602 13.1488 4.41602 11.1786C4.41602 9.20839 5.19867 7.31891 6.59179 5.92578C7.98492 4.53265 9.87441 3.75 11.8446 3.75ZM11.8446 6.03571C8.98744 6.03571 6.70173 8.32143 6.70173 11.1786C6.70173 14.0357 8.98744 16.3214 11.8446 16.3214C14.7017 16.3214 16.9874 14.0357 16.9874 11.1786C16.9874 8.32143 14.7017 6.03571 11.8446 6.03571Z" fill="#80C342"/>
</svg>
