<svg width="18" height="30" viewBox="0 0 18 30" fill="none" xmlns="http://www.w3.org/2000/svg">
<path d="M7.64065 12.7423L7.96266 13.4563V12.5745C7.95445 12.5717 7.94905 12.5717 7.94084 12.5691C4.1837 11.7493 4.52537 7.036 4.52537 7.036C8.07757 6.89929 10.0585 3.55202 10.0585 3.55202C10.6734 5.6698 12.7909 6.48937 12.7909 6.48937C14.0889 8.06052 12.7909 8.67537 12.7909 8.67537C12.7909 8.67537 12.0968 11.662 9.92178 12.468V13.4543L10.2429 12.7422L10.7705 12.8407C12.294 13.1251 13.512 13.5346 14.4175 14.0547L13.9111 4.70505C13.7662 2.06575 11.5858 0 8.94068 0C6.29834 0 4.11516 2.06569 3.97302 4.70521L3.46399 14.0554C4.36976 13.5349 5.58823 13.1254 7.11272 12.8408L7.64065 12.7423Z" fill="#80C342"/>
<path d="M6.41935 16.1043C6.3444 16.0263 6.26169 15.9961 6.13902 15.9961C5.98137 15.9993 5.90643 16.0391 5.84121 16.1043C5.62308 16.3336 5.53389 16.8623 5.52439 17.2461C5.51639 17.3623 5.48292 17.4707 5.42893 17.5629C5.42094 17.7603 5.41619 18.0264 5.41942 18.2685H6.84633C6.84957 18.0329 6.84633 17.77 6.84007 17.5741C6.77485 17.4754 6.73964 17.3592 6.73964 17.2348C6.72366 16.7239 6.60423 16.2921 6.41936 16.1043L6.41935 16.1043Z" fill="#80C342"/>
<path d="M4.2155 18.1203C4.2155 17.9084 4.22176 17.6998 4.225 17.5421C4.17403 17.4497 4.14703 17.3447 4.14703 17.2348C4.16453 16.7044 4.27596 15.7522 4.85736 15.1501C5.02776 14.9734 5.22688 14.8395 5.44501 14.7503V14.0098C4.92583 14.1737 4.41313 14.3745 3.95292 14.6244C3.52941 14.849 3.14545 15.1166 2.8526 15.4301C2.08029 16.107 1.47191 16.9717 1.06267 17.9591C1.02294 18.053 0.981468 18.1582 0.940002 18.2697H4.21748C4.21554 18.2206 4.21553 18.1697 4.21553 18.1202L4.2155 18.1203Z" fill="#80C342"/>
<path d="M12.9962 15.3698C13.4405 15.6152 13.7335 16.0864 13.7335 16.6168C13.7335 17.3989 13.0949 18.0374 12.3082 18.0374C11.5231 18.0374 10.8845 17.3988 10.8845 16.6168C10.8845 16.0864 11.1776 15.6152 11.6218 15.3698V13.7805C11.281 13.6946 10.953 13.6229 10.6457 13.5654L9.54209 16.0147C9.30648 16.5306 8.5739 16.5306 8.33811 16.0147L7.23452 13.5654C7.10235 13.5894 6.96218 13.6196 6.81879 13.6499V14.7502C7.03691 14.8394 7.23452 14.9731 7.40643 15.1499C7.99734 15.7583 8.10228 16.7042 8.1135 17.217C8.11674 17.3332 8.08953 17.4463 8.03856 17.545C8.04482 17.7329 8.05281 18.0037 8.04806 18.2696H16.9404C16.899 18.1564 16.8577 18.0529 16.8178 17.959C16.4085 16.9716 15.8002 16.1069 15.0279 15.4301C14.5326 14.9046 13.7921 14.5016 12.9958 14.2006L12.9962 15.3698Z" fill="#80C342"/>
<path d="M7.60088 17.2322C7.5944 16.8867 7.52594 16.0092 7.03723 15.5028C6.83983 15.2989 6.5945 15.1795 6.30616 15.1445V13.7686C6.18997 13.7956 6.07357 13.8228 5.95889 13.8562V15.1414C5.67058 15.1749 5.42546 15.2991 5.22634 15.503C4.73912 16.0094 4.67043 16.8869 4.65942 17.2324C4.65942 17.2914 4.69765 17.3423 4.74538 17.3631H4.74689C4.74063 17.484 4.72465 17.887 4.73091 18.2693H4.90454C4.89828 17.8808 4.91729 17.4618 4.92204 17.3599V17.3583C4.97452 17.3393 5.00799 17.2914 5.01123 17.2357C5.01922 16.9284 5.07969 16.1591 5.47621 15.7466C5.64984 15.5682 5.86149 15.487 6.1323 15.4837H6.13856C6.40139 15.4837 6.61304 15.5714 6.78515 15.7466C7.1849 16.1558 7.24213 16.9281 7.25336 17.2357C7.25336 17.2914 7.28684 17.3424 7.34104 17.3631H7.34255C7.34731 17.4698 7.3648 17.8838 7.35854 18.2693H7.53369C7.54016 17.8855 7.52246 17.4795 7.5177 17.3599C7.56889 17.3422 7.6056 17.2927 7.60085 17.2323L7.60088 17.2322Z" fill="#80C342"/>
<path d="M12.1353 13.917V15.7214C11.7148 15.8026 11.3979 16.1721 11.3979 16.6164C11.3979 17.1181 11.8072 17.5241 12.3089 17.5241C12.8121 17.5241 13.2214 17.1181 13.2214 16.6164C13.2214 16.1721 12.9046 15.8026 12.4841 15.7214V14.0222C12.4253 14.0015 12.1927 13.933 12.1353 13.917L12.1353 13.917ZM12.8695 16.6163C12.8695 16.9237 12.6212 17.177 12.3089 17.177C11.9983 17.177 11.75 16.9239 11.75 16.6163C11.75 16.3043 11.9983 16.0527 12.3089 16.0527C12.6211 16.0527 12.8695 16.3043 12.8695 16.6163Z" fill="#80C342"/>
<path d="M12.5526 16.6115C12.5526 16.9345 12.068 16.9345 12.068 16.6115C12.068 16.2884 12.5526 16.2884 12.5526 16.6115Z" fill="#80C342"/>
<path d="M16.0117 28.6201H1.8383C1.45712 28.6201 1.14832 28.9292 1.14832 29.3101C1.14832 29.6913 1.45736 30.0001 1.8383 30.0001H16.0117C16.3929 30.0001 16.7017 29.691 16.7017 29.3101C16.7017 28.9289 16.3929 28.6201 16.0117 28.6201Z" fill="#80C342"/>
<path d="M17.0047 19.0645H0.844783C0.296876 19.0645 -0.10588 19.5782 0.024764 20.1104L1.99741 28.1419H15.8524L17.825 20.1104C17.9555 19.5782 17.5527 19.0645 17.0046 19.0645H17.0047ZM8.66349 25.5358C7.79659 25.4192 7.10876 24.7313 6.99216 23.8645H7.78758C7.88735 24.2986 8.22944 24.6407 8.66355 24.7405L8.66349 25.5358ZM8.66349 22.4659C8.2294 22.5657 7.88731 22.9078 7.78752 23.3419H6.99211C7.10873 22.475 7.79659 21.7871 8.66344 21.6705L8.66349 22.4659ZM9.18569 25.5358V24.7404C9.61979 24.6406 9.96187 24.2985 10.0617 23.8644H10.8571C10.7407 24.7311 10.0528 25.4192 9.18575 25.5358L9.18569 25.5358ZM10.0617 23.3418C9.96189 22.9077 9.6198 22.5656 9.18569 22.4658V21.6704C10.0526 21.787 10.7404 22.4749 10.857 23.3417L10.0617 23.3418Z" fill="#80C342"/>
</svg>
