<svg width="20" height="20" viewBox="0 0 20 20" fill="none" xmlns="http://www.w3.org/2000/svg">
<path d="M10.7148 0C10.3203 0 10.0005 0.319824 10.0005 0.714267C10.0005 1.10871 10.3203 1.42853 10.7148 1.42853C15.0538 1.42853 18.5717 4.94616 18.5717 9.28547C18.5717 9.67992 18.8915 9.99974 19.286 9.99974C19.6804 9.99974 20.0002 9.67992 20.0002 9.28547C20.0002 4.15744 15.8428 0 10.7148 0Z" fill="#80C342"/>
<path fill-rule="evenodd" clip-rule="evenodd" d="M5.11492 2.7969C4.24474 1.9321 2.83355 1.92096 1.96068 2.78861C-0.194574 4.93059 -0.703336 8.33091 1.09066 10.8953C3.4806 14.3125 5.94523 16.8017 9.10923 18.9653C11.6732 20.719 15.0311 20.1354 17.1474 18.032C18.039 17.1459 18.1006 15.7033 17.1898 14.7979L15.2182 12.8384C14.3688 11.9942 13.0026 11.95 12.1094 12.7527L11.1509 13.6138C10.8873 13.8507 10.5121 13.8856 10.2303 13.7152C8.36905 12.5891 7.33626 11.5529 6.22273 9.7325C6.05389 9.45668 6.08737 9.08966 6.32445 8.82881L7.19084 7.87635C8.0011 6.98559 7.95596 5.62049 7.10443 4.77422L5.11492 2.7969ZM2.96767 3.80181C3.27602 3.49538 3.78749 3.49171 4.10797 3.8101L6.09771 5.78772C6.41435 6.10245 6.42344 6.59766 6.13438 6.91557L5.268 7.86804C4.6261 8.57369 4.48708 9.63281 5.00429 10.4783C6.23687 12.4931 7.4339 13.6932 9.49112 14.9378C10.3372 15.4497 11.3973 15.3134 12.1058 14.6768L13.0642 13.8155C13.3869 13.5256 13.8924 13.5352 14.2112 13.852L16.1827 15.8116C16.5388 16.1654 16.4764 16.6852 16.1405 17.0192C14.4385 18.7106 11.8341 19.0985 9.91575 17.7867C6.90754 15.7294 4.56242 13.3672 2.26125 10.0771C0.906841 8.14064 1.25234 5.50704 2.96773 3.80218L2.96767 3.80181Z" fill="#80C342"/>
<path d="M10.7148 5.71387C10.3203 5.71387 10.0005 6.03369 10.0005 6.42813C10.0005 6.82258 10.3203 7.1424 10.7148 7.1424C11.8982 7.1424 12.8576 8.10172 12.8576 9.2852C12.8576 9.67965 13.1774 9.99947 13.5718 9.99947C13.9663 9.99947 14.2861 9.67965 14.2861 9.2852C14.2861 7.31285 12.6871 5.71387 10.7148 5.71387Z" fill="#80C342"/>
<path d="M10.0005 3.5712C10.0005 3.17676 10.3203 2.85693 10.7148 2.85693C14.265 2.85693 17.1432 5.73506 17.1432 9.28534C17.1432 9.67978 16.8233 9.99961 16.4289 9.99961C16.0345 9.99961 15.7146 9.67978 15.7146 9.28534C15.7146 6.52394 13.4762 4.28547 10.7148 4.28547C10.3203 4.28547 10.0005 3.96564 10.0005 3.5712Z" fill="#80C342"/>
</svg>
