<svg width="37" height="37" viewBox="0 0 37 37" fill="none" xmlns="http://www.w3.org/2000/svg">
<rect width="37" height="37" rx="9" fill="#FFC107"/>
<path d="M14.6583 15.9841H24.0608C24.2915 15.9841 24.4787 15.797 24.4787 15.5663C24.4787 15.3354 24.2915 15.1485 24.0608 15.1485H14.6583C14.4274 15.1485 14.2405 15.3354 14.2405 15.5663C14.2405 15.7968 14.4274 15.9841 14.6583 15.9841ZM14.6583 13.6319H24.0608C24.2915 13.6319 24.4787 13.4448 24.4787 13.2141C24.4787 12.9832 24.2915 12.7963 24.0608 12.7963H14.6583C14.4274 12.7963 14.2405 12.9832 14.2405 13.2141C14.2405 13.4446 14.4274 13.6319 14.6583 13.6319ZM22.2495 17.6742C22.2495 17.4434 22.0623 17.2564 21.8317 17.2564H14.6579C14.427 17.2564 14.2401 17.4434 14.2401 17.6742C14.2401 17.9049 14.427 18.092 14.6579 18.092H21.8317C22.0623 18.0922 22.2495 17.9049 22.2495 17.6742ZM18.7675 19.3645H14.6581C14.4272 19.3645 14.2403 19.5517 14.2403 19.7824C14.2403 20.013 14.4272 20.2002 14.6581 20.2002H18.7675C18.9983 20.2002 19.1853 20.013 19.1853 19.7824C19.1853 19.5517 18.9981 19.3645 18.7675 19.3645ZM17.3873 21.4729H14.6579C14.4271 21.4729 14.2401 21.66 14.2401 21.8907C14.2401 22.1213 14.4271 22.3085 14.6579 22.3085H17.3873C17.6182 22.3085 17.8051 22.1213 17.8051 21.8907C17.8051 21.6602 17.6182 21.4729 17.3873 21.4729ZM27.6177 22.036L24.7233 25.4473L22.8736 23.9758C22.6937 23.832 22.4302 23.862 22.2865 24.0427C22.1427 24.223 22.1729 24.4862 22.3534 24.6298L24.5194 26.3537C24.596 26.4149 24.6879 26.4444 24.7791 26.4444C24.8978 26.4444 25.0159 26.3941 25.098 26.2971L28.2545 22.5768C28.4041 22.4008 28.3823 22.1373 28.2065 21.9878C28.0304 21.8384 27.7667 21.8601 27.6176 22.036L27.6177 22.036ZM26.7191 18.5221V11.3762C26.7191 11.2658 26.6756 11.1604 26.5983 11.0819L22.6745 7.1234C22.5956 7.04431 22.4889 7 22.3776 7H12.4178C12.1869 7 12 7.18695 12 7.41781V26.5732C12 26.8038 12.1869 26.991 12.4178 26.991H20.1752C21.1717 28.7835 23.0834 30 25.2754 30C28.4918 30 31.1085 27.3835 31.1085 24.1669C31.1079 21.4498 29.2379 19.1672 26.719 18.5224L26.7191 18.5221ZM19.7985 26.1551H12.8357V7.83601H21.9601V11.3764C21.9601 11.6072 22.1473 11.7942 22.378 11.7942H25.8837V18.3665C25.6839 18.3459 25.4811 18.3344 25.2753 18.3344C22.0589 18.3344 19.4422 20.9513 19.4422 24.1675C19.4422 24.8661 19.5724 25.5335 19.7986 26.1551L19.7985 26.1551ZM25.2754 29.1639C22.5198 29.1639 20.2781 26.9223 20.2781 24.1666C20.2781 21.411 22.5198 19.1693 25.2754 19.1693C28.0311 19.1693 30.2727 21.4111 30.2727 24.1666C30.2727 26.9221 28.0307 29.1639 25.2754 29.1639Z" fill="white"/>
</svg>
