<svg width="32" height="20" viewBox="0 0 32 20" fill="none" xmlns="http://www.w3.org/2000/svg">
<path d="M18.5189 0C15.4926 0 12.8522 1.64776 11.4468 4.09719C10.8903 3.84632 10.2798 3.70372 9.6295 3.70372C7.39734 3.70372 5.55943 5.35565 5.24296 7.49991C2.26596 8.00008 0 10.5844 0 13.7037C0 17.1811 2.81887 20 6.29628 20H24.8149C28.2923 20 31.1112 17.1811 31.1112 13.7037C31.1112 10.8655 29.2361 8.45997 26.6552 7.67352C26.4084 3.39518 22.8587 0.000184681 18.5189 0.000184681L18.5189 0ZM15.4864 6.66672C15.6876 6.64631 15.8884 6.70908 16.0421 6.84033L18.6346 9.06243C18.7834 9.19135 18.8751 9.37426 18.8894 9.57061C18.9033 9.76722 18.839 9.96124 18.7098 10.11C18.5809 10.2589 18.3982 10.3506 18.2016 10.3645C18.0053 10.3787 17.8113 10.3141 17.6624 10.1852L16.2966 9.01618V16.296C16.3022 16.6874 15.9473 17.0483 15.5559 17.0483C15.1645 17.0483 14.8095 16.6874 14.8152 16.296V9.01618L13.4493 10.1852C13.3005 10.3141 13.1065 10.3787 12.9101 10.3645C12.7135 10.3506 12.5309 10.2589 12.402 10.11C12.2728 9.96124 12.2085 9.76721 12.2224 9.57061C12.2366 9.37426 12.3283 9.19135 12.4771 9.06243L15.0697 6.84033C15.1872 6.74035 15.333 6.67963 15.4864 6.66672H15.4864Z" fill="#2D2D2D"/>
</svg>
