<svg width="37" height="37" viewBox="0 0 37 37" fill="none" xmlns="http://www.w3.org/2000/svg">
<rect width="37" height="37" rx="9" fill="#1F98B3"/>
<path d="M25.0721 16.1278L26.8546 16.0502C27.1646 15.9727 27.4746 15.6628 27.4746 15.2753V13.1054H8.25519C7.86778 13.1054 7.55774 12.7954 7.55774 12.4854C7.55774 12.0979 7.86777 11.7879 8.25519 11.7879H11.8201L14.3 10.6255H7.17011C6.70517 10.6255 6.31759 11.0129 6.31759 11.478V27.9075C6.31759 28.3724 6.705 28.76 7.17011 28.76H26.6222C27.0871 28.76 27.4747 28.3726 27.4747 27.9075V24.1101C27.4747 23.6452 27.0873 23.2576 26.6222 23.2576H23.9872C22.8248 23.2576 21.8947 22.3277 21.8947 21.0877V18.2202C21.8947 16.2828 23.5223 16.1278 25.0721 16.1278L25.0721 16.1278ZM14.8424 11.7879H23.3672L21.7397 8.53303L14.8425 11.7879H14.8424ZM24.8395 11.7879H27.4744V11.4779C27.4744 11.0129 27.087 10.6253 26.6219 10.6253H24.2194L24.8395 11.7877V11.7879ZM23.5995 9.308H26.6219C27.7843 9.308 28.7144 10.3155 28.7144 11.4779V15.2753C28.7144 15.5853 28.7144 15.8178 28.5595 16.1278H29.0244C30.1868 16.1278 31.1943 17.0577 31.1943 18.2203V21.0877C31.1943 22.2501 30.1868 23.2576 29.0244 23.2576H28.5595C28.7144 23.4901 28.7144 23.8001 28.7144 24.1101V27.9075C28.7144 29.0699 27.7845 30 26.6219 30H7.16987C6.00748 30 5 29.0701 5 27.9075V11.4781C5 10.3157 6.00748 9.3082 7.16987 9.3082H17.012L21.8168 7.06078C22.1268 6.90585 22.5142 7.06078 22.6693 7.37081L23.5992 9.3082L23.5995 9.308ZM29.0245 17.4453H23.9871C23.5222 17.4453 23.2122 17.7553 23.2122 18.2202V21.0877C23.2122 21.5526 23.5222 21.9402 23.9871 21.9402H29.0245C29.4894 21.9402 29.877 21.5528 29.877 21.0877V18.2202C29.877 17.7553 29.4896 17.4453 29.0245 17.4453V17.4453Z" fill="white"/>
<path fill-rule="evenodd" clip-rule="evenodd" d="M26.5444 19.693C26.5444 20.2493 26.0932 20.7005 25.5369 20.7005C24.9804 20.7005 24.5294 20.2493 24.5294 19.693C24.5294 19.1366 24.9804 18.6855 25.5369 18.6855C26.0932 18.6855 26.5444 19.1366 26.5444 19.693Z" fill="white"/>
</svg>
