<svg width="26" height="31" viewBox="0 0 26 31" fill="none" xmlns="http://www.w3.org/2000/svg">
<path fill-rule="evenodd" clip-rule="evenodd" d="M3.72446 5.94126H6.58822C6.58822 2.66003 9.24807 0 12.5295 0C15.8107 0 18.4705 2.66003 18.4705 5.94126H21.3343C23.3827 5.94126 25.0587 7.61733 25.0587 9.66572V27.2755C25.0587 29.3244 23.3827 31 21.3343 31H3.72446C1.67559 31 0 29.3244 0 27.2755V9.66572C0 7.61733 1.67559 5.94126 3.72446 5.94126ZM13.8109 5.50431L15.0207 3.45032L12.9668 4.65991C12.0975 4.36211 11.1748 5.00767 11.1748 5.94152C11.1748 6.68975 11.7813 7.2958 12.5295 7.2958C13.4646 7.2958 14.108 6.37451 13.8112 5.50455L13.8109 5.50431ZM7.81827 11.6201H17.2405C20.5199 11.6201 22.3022 14.5842 21.8597 17.5978L20.573 26.3207C20.2634 28.4262 18.6252 30.0542 16.4488 30.0542H8.60962C6.43319 30.0542 4.79501 28.4262 4.48518 26.3207L3.19846 17.5978C2.75593 14.5828 4.54018 11.6201 7.81821 11.6201H7.81827ZM13.3442 13.2503V28.4237H16.4489C17.8231 28.4237 18.7691 27.3984 18.9619 26.0849L20.2486 17.3621C20.5453 15.3395 19.5183 13.2506 17.2403 13.2506L13.3442 13.2503ZM11.7142 13.2503H7.81803C5.54265 13.2503 4.51313 15.3394 4.80976 17.3618L6.09648 26.0846C6.28882 27.3983 7.23518 28.4234 8.6095 28.4234H11.7142V13.2503ZM12.5291 1.85912C14.7833 1.85912 16.6108 3.68659 16.6108 5.94087C16.6108 8.19556 14.7833 10.0228 12.5291 10.0228C10.2744 10.0228 8.44667 8.19538 8.44667 5.94087C8.44667 3.68665 10.2744 1.85912 12.5291 1.85912Z" fill="white"/>
</svg>
